<?xml version="1.0" encoding="UTF-8"?>
<svg width="129px" height="82px" viewBox="0 0 129 82" version="1.1" xmlns="http://www.w3.org/2000/svg" xmlns:xlink="http://www.w3.org/1999/xlink">
    <title>logo</title>
    <g id="Main-UI" stroke="none" stroke-width="1" fill="none" fill-rule="evenodd">
        <g id="登入" transform="translate(-740.000000, -107.000000)" fill="#FFFFFF" fill-rule="nonzero">
            <g id="logo" transform="translate(740.000000, 107.000000)">
                <g transform="translate(0.000000, 0.482353)">
                    <path d="M68.1338177,15.0699335 C66.9808851,15.0730615 65.8280419,15.109108 64.6643843,15.1808967 C45.3918059,15.079115 24.2042098,23.8908707 20.2366258,41.2164613 C19.6962261,44.5223531 21.9427703,47.0956212 25.1128432,48.2977655 C31.2372962,50.1687484 38.620214,49.9922059 45.0549564,48.9809683 C57.2246278,45.7836001 64.9147319,39.4714595 76.526995,33.9412752 C81.3598025,31.4229558 91.1253851,31.0165647 96.5166348,34.3475038 C103.579131,39.6113853 100.850114,50.8634083 93.6270244,53.1448121 C105.943702,53.127913 108.418463,53.6472003 113.882813,62.7096507 C112.394657,29.3218496 91.576783,15.0124404 68.1338177,15.0699335 Z M37.1845705,40.1085649 C39.2004295,40.1085649 40.8346045,41.6958347 40.8346045,43.6538333 C40.8346045,45.6118318 39.2004295,47.1991016 37.1845705,47.1991016 C35.1687114,47.1991016 33.5345364,45.6118318 33.5345364,43.6538333 C33.5345364,41.6958347 35.1687114,40.1085649 37.1845705,40.1085649 Z" id="path281"></path>
                    <g id="path279-Clipped" transform="translate(20.156250, 51.042739)">
                        <path d="M69.2020926,4.3491408 C60.5693007,6.55910301 53.4509327,7.09433337 45.7228127,5.03124718 C38.2525786,3.04221544 30.9937263,0.201845241 23.0542245,0.547049097 C11.0509491,0.978389534 3.31217546,7.14159342 0.0568951599,11.2100674 C0.0568951599,11.2100674 7.51875858,5.13152069 17.9292295,4.272785 C29.2729936,2.6033134 40.2248134,8.27649219 45.5219577,8.77835285 C52.2371359,10.9722055 65.3428944,7.43357835 69.2020926,4.34905861 L69.2020926,4.3491408 Z" id="path279"></path>
                    </g>
                    <g id="path285-Clipped" transform="translate(18.140625, 57.848438)">
                        <path d="M58.6415334,5.21259683 C36.3243999,6.68799629 37.5874717,2.36156915 25.8202474,1.03851601 C21.0964264,0.509294755 13.6921333,-1.07958362 0.401095717,8.30324896 C0.401095717,8.30324896 6.89317497,5.44840394 16.6879077,4.65890994 C23.1133202,4.15137808 27.9461785,7.73411922 34.2107439,8.76653446 C41.169491,10.1508384 48.117656,9.41218439 54.7166138,8.35790624 C60.7483745,7.39055919 65.9896571,4.53883745 72.0679787,3.95322376 C78.5420685,2.49413473 82.4638981,3.54719827 90.6426693,7.26771046 C86.8529035,4.42600921 83.5206203,1.86917649 77.5960344,0.831599175 C69.2341517,0.338902862 67.7260846,3.66380047 58.6415334,5.21242332 L58.6415334,5.21259683 Z" id="path285"></path>
                    </g>
                    <g id="g4051" transform="translate(0.000000, 0.486121)">
                        <path d="M3.06618396,61.4561261 C3.06618396,61.2926987 3.14154248,61.2103288 3.2908904,61.2103288 C3.4731242,61.2103288 3.67042726,61.2770057 3.88553781,61.4090589 C4.45278488,61.7254616 5.02550837,62.1033122 5.60371741,62.5426106 C5.74347248,62.4510921 5.93529304,62.4053314 6.1819234,62.4053314 C8.02341361,62.4053314 9.3072496,62.3648026 10.0361757,62.2824327 C11.2131364,62.2824327 11.8023043,62.52823 11.8023043,63.0185213 C11.8023043,63.5088184 11.3528945,63.7546187 10.4540718,63.7546187 C9.4264529,63.6121045 8.74685717,63.5401956 8.41527849,63.5401956 C7.99737934,63.5401956 7.44657672,63.5807184 6.76150153,63.6630972 C6.89029465,63.7546187 6.99168743,63.8474467 7.06704594,63.9389623 C7.33422502,64.2958967 7.46850064,64.5822288 7.46850064,64.7966519 C7.46850064,65.2568754 7.26982542,65.6961709 6.87385323,66.1145562 C6.68066052,66.3603536 6.50390922,66.4819517 6.34360238,66.4819517 C6.1298579,66.4819517 6.0120237,66.4100368 5.99009979,66.2675285 C5.91474127,65.3680036 5.68455538,64.6279925 5.29953906,64.0461798 C4.85012922,63.3519235 4.13216816,62.5857584 3.14839712,61.7476872 C3.09221823,61.6666268 3.06618396,61.5685697 3.06618396,61.4561261 L3.06618396,61.4561261 Z M0.239553608,61.793448 C0.239553608,61.6300176 0.314912123,61.5476476 0.464257005,61.5476476 C0.59305316,61.5476476 0.7588425,61.5986404 0.961625024,61.70062 C1.44392073,61.9464203 1.91936483,62.252359 2.39069858,62.6197545 C2.77571186,62.9466123 3.13469392,63.3087758 3.46626955,63.7075485 C3.71289991,63.9834165 3.83621356,64.2030658 3.83621356,64.3664991 C3.83621356,64.8267226 3.62795158,65.266024 3.21005243,65.6844093 C3.02782167,65.9498193 2.84010842,66.083179 2.64828785,66.083179 C2.4660571,66.083179 2.37014682,65.9916516 2.35918486,65.8073021 C2.28382634,65.0516038 2.10707505,64.433182 1.82893401,63.9533518 C1.50831729,63.3715361 0.999990354,62.7178116 0.303950165,61.9921811 C0.261477524,61.9215787 0.239553608,61.8548988 0.239553608,61.793448 L0.239553608,61.793448 Z M3.93212384,59.6492372 L3.93212384,55.4510307 C3.93212384,54.4403746 3.76085505,53.4898599 3.41831441,52.600799 C3.41831441,52.3353891 3.55807252,52.2020264 3.83621356,52.2020264 C4.27466448,52.2020264 4.68708113,52.3249251 5.07209441,52.5694189 C5.48999356,52.8047612 5.69825858,53.1826117 5.69825858,53.7029736 C5.56946243,54.2337965 5.46806965,54.7136296 5.39271113,55.1437795 C5.80102047,55.2261494 6.35182309,55.2666812 7.04786024,55.2666812 C7.56167271,55.2666812 8.46049238,55.1947693 9.74570052,55.052258 C10.4417407,55.052258 10.9500707,55.3124419 11.2706874,55.8341103 C11.5173147,56.3544722 11.6406284,56.9219043 11.6406284,57.5350971 C11.6406284,57.9234088 11.5543079,58.1678996 11.3830391,58.2711887 C11.0939361,58.3627102 10.7993537,58.5065309 10.4992887,58.700032 C10.445845,58.782402 10.375975,58.8229307 10.2910237,58.8229307 C10.1622275,58.8229307 10.097831,58.7405637 10.097831,58.5771333 C10.097831,57.607009 9.99643818,56.9781261 9.79228656,56.6931035 C9.6100558,56.4996024 9.26203571,56.4015424 8.74822627,56.4015424 C8.1275446,56.4839123 7.56030057,56.5244441 7.04649113,56.5244441 C6.33949203,56.5244441 5.75169318,56.4839123 5.28035943,56.4015424 C5.23788679,56.4015424 5.21048038,56.4015424 5.19951842,56.4015424 C5.14608382,56.8513019 5.11868045,57.2030073 5.11868045,57.4592657 C5.11868045,58.0515365 5.21459073,58.782402 5.40778344,59.6505467 C5.40778344,60.1813696 5.17211505,60.4467796 4.7007813,60.4467796 C4.18971616,60.4455945 3.93212384,60.1800601 3.93212384,59.6492372 L3.93212384,59.6492372 Z M0.59305316,59.0974952 C0.679373632,58.6882645 0.721846274,58.331333 0.721846274,58.0253913 L0.657449717,56.6617263 L0.657449717,55.0535675 L0.59305316,53.8271818 C0.59305316,53.5617688 0.764321958,53.4284121 1.10686259,53.4284121 C1.30005531,53.4284121 1.47680356,53.5251626 1.6371104,53.7199732 C1.7549446,53.8624815 1.81386474,54.0115313 1.81386474,54.1645036 C1.79192866,54.7057846 1.78235101,55.3137455 1.78235101,55.9883891 C1.78235101,56.6421107 1.8042871,57.2749162 1.84674757,57.8881061 C1.86868366,58.3274075 1.9426609,58.8020116 2.07145401,59.3132249 C2.07145401,59.8035161 1.88922325,60.0493164 1.52613085,60.0493164 C1.31238637,60.0493164 1.09315939,59.9473339 0.868455991,59.7433747 C0.683487028,59.5564092 0.59305316,59.341989 0.59305316,59.0974952 L0.59305316,59.0974952 Z" id="path78"></path>
                        <path d="M3.11684384,46.5281675 C3.3495854,46.1495466 3.51284646,45.8132202 3.60702863,45.5179322 L3.87321892,44.3682607 L4.32408913,42.9546399 L4.67625608,41.6389369 C4.74519198,41.4228102 4.94197783,41.3684756 5.26661363,41.4759331 C5.50035311,41.5533021 5.66608465,41.6998456 5.76471184,41.917258 C5.85615884,42.1211757 5.87267328,42.3169639 5.81335762,42.502934 C5.6261129,42.8424363 5.45280262,43.246284 5.29212156,43.7140533 L7.64547708,44.5096877 C7.64426009,44.4773477 7.64876292,44.4454757 7.65795113,44.4165753 L7.90694851,43.8474515 C7.9979209,43.5622186 8.10953024,43.3338207 8.24347118,43.1614402 C8.34945198,42.9686917 8.50957323,42.9077741 8.7225358,42.9782669 C8.98614,43.0655222 9.07771479,43.2375294 8.99635656,43.4926087 C8.80839382,44.0819316 8.74792811,44.555084 8.8132587,44.9128984 L10.9959935,45.6673404 C11.0795575,44.9462191 11.1490015,44.3774004 11.2039208,43.9621496 C11.2728506,43.746023 11.4293817,43.6783625 11.6722121,43.7587386 C11.9565932,43.8528702 12.0884196,44.0382033 12.0667969,44.3130581 C11.9714282,46.3000066 11.9847511,48.1937361 12.1062727,49.9913017 C11.968404,50.423555 11.7475402,50.589391 11.4423821,50.4883832 C11.147608,50.390812 10.9443935,50.2582581 10.8288381,50.0894209 C10.7049646,49.9511729 10.6433854,49.7571415 10.6441034,49.5073208 C9.99021028,49.2033612 9.41309653,48.9692691 8.91704894,48.8050744 C8.31841592,48.6069309 7.55940913,48.4209845 6.63872335,48.2468234 C6.19202434,48.0989617 6.03760465,47.8089085 6.1754734,47.3766552 C6.32576144,46.9054493 6.71535361,46.7732331 7.34515351,46.9816984 C8.76576601,47.4519267 9.90064656,47.8817566 10.7523995,48.2720443 C10.7734533,47.7469452 10.8076383,47.2706524 10.8557759,46.8406507 L4.93243974,44.9453036 C4.85623238,45.256264 4.78832483,45.5546954 4.73211856,45.8389388 C4.62091083,46.2911277 4.56681297,46.7983414 4.56601281,47.3634834 C4.41572781,47.8346893 4.13780278,48.0038672 3.73135847,47.8693313 C3.5183959,47.7988415 3.33951792,47.6034888 3.19431686,47.2845353 C3.04992205,47.07559 3.02306936,46.8221994 3.11684689,46.5281675 L3.11684384,46.5281675 Z M4.33444259,39.0196717 C4.44706507,38.6665828 4.72692205,38.5633382 5.17362106,38.711194 C5.22426573,38.7279625 5.28568373,38.7649598 5.35697448,38.8205061 C5.71021238,39.0138354 6.01840373,39.1908672 6.28074226,39.354108 L6.57363007,38.7508932 C7.06818382,37.2003131 7.35579601,36.1230246 7.436062,35.5202809 C7.49256644,35.3431069 7.66216797,35.3020034 7.94654908,35.396132 C8.15951165,35.4666218 8.32774408,35.6098293 8.44905884,35.8236363 C8.62425241,36.1205686 8.67287689,36.3867192 8.59793215,36.6216941 C8.37182618,36.8399746 8.17536283,37.2083774 8.0090441,37.7298443 C7.82428507,38.3091151 7.67625757,39.1603225 7.56456608,40.2847257 L7.55050995,40.3287059 C7.80159446,40.5632393 8.01671108,40.8025367 8.19584462,41.046595 C8.33806408,41.2353707 8.39168731,41.3823141 8.35722241,41.4903789 C8.24140231,41.85352 8.00549965,42.1880303 7.64952658,42.4939098 C7.35778578,42.8099392 7.12057182,42.9370212 6.93877613,42.8768472 C6.81671292,42.8364459 6.74503274,42.7640955 6.72244557,42.6593755 C6.56661113,41.7075899 6.23844,40.9585398 5.73923434,40.4126579 C5.37826861,40.0320046 4.94383068,39.688162 4.43672073,39.3786059 C4.31928814,39.2966745 4.28432427,39.1767414 4.33441825,39.0196717 L4.33444259,39.0196717 Z M8.76858028,37.8826211 C8.88761017,37.5094278 9.13002368,37.3840612 9.49491417,37.5048416 C10.9913416,38.2279924 12.0482014,38.8709389 12.6654969,39.4336812 C12.8012481,39.3591415 12.9179079,39.2949561 13.0132796,39.239004 C13.720227,38.7464523 14.2424002,38.288593 14.5772951,37.8687679 C14.8418425,37.5659666 15.0657487,37.2330413 15.249017,36.8699979 C15.3582045,36.6671942 15.4848679,36.5896503 15.6264089,36.6365013 C15.91079,36.7306299 16.133455,37.2433216 16.2966035,38.1766915 C16.3202737,38.6290759 16.2482102,39.1206144 16.0790833,39.6508774 C16.0069437,39.8770562 15.8415316,40.044578 15.5828501,40.1534427 C15.2099306,40.3008986 14.629531,40.5047097 13.8403552,40.7644432 C14.000014,41.0020519 14.1520606,41.2635423 14.2960842,41.5501588 C14.6931578,42.3442408 14.8332323,42.9268416 14.7141994,43.300032 C14.5827502,43.7121809 14.2295428,44.0453728 13.6541967,44.3008669 C13.1962893,44.5077146 12.829047,44.5653614 12.5550497,44.4746694 C12.3109264,44.3938638 12.2182137,44.2659286 12.2747212,44.0887575 L12.6096922,43.3536051 C12.7692019,42.8535017 12.7571751,42.3285656 12.5736117,41.7788085 C12.5108581,41.5524341 12.4480801,41.3621682 12.3840669,41.2117852 C11.205296,41.603729 10.4575949,41.8549658 10.1405592,41.9667398 C10.0574789,42.0156498 9.98043184,42.0276574 9.91031547,42.0044452 C9.58567663,41.8969877 9.49229158,41.6271368 9.63015729,41.1948834 C9.65540965,41.115722 9.74609908,41.0429362 9.90262719,40.9752786 C10.539872,40.6652574 11.0984694,40.3722654 11.5793138,40.0979942 C11.5586556,40.0592045 11.5339113,40.0287813 11.5072503,40.0088487 C10.9749701,39.4631327 10.2087132,38.9983408 9.21017406,38.6136436 C8.80243061,38.4786811 8.65596998,38.23571 8.76858333,37.8826211 L8.76858028,37.8826211 Z" id="path80"></path>
                        <path d="M10.2272995,27.6093092 C10.7028714,26.9706467 11.192898,26.4031168 11.6958215,25.9088231 C11.7809402,25.794513 11.8711246,25.5828511 11.9663747,25.2738371 C12.2225127,24.9298642 12.5452074,24.8958414 12.9344619,25.1717805 C13.0668512,25.2656277 13.1609664,25.4573216 13.2156636,25.7460533 C13.3337808,26.1678664 13.5079794,26.7047419 13.7390446,27.3556313 C13.774121,27.3805173 13.8183005,27.3861789 13.8685314,27.3721331 C14.3148683,27.2254741 14.7444688,27.1662927 15.155425,27.1948406 C15.6201993,27.223104 16.0119181,27.3517561 16.3298849,27.5771588 C16.9669441,28.028761 17.3168048,28.5828109 17.379811,29.2411513 C17.4670259,29.8669768 17.3279037,30.4252899 16.9624412,30.9160848 C16.7547178,31.1950399 16.5534656,31.3840466 16.3586847,31.4831051 C17.0369266,31.9142356 17.7759992,32.382073 18.5759087,32.8866263 C19.4245675,33.4882323 19.7145832,33.9694105 19.4459498,34.3301667 C19.1531077,34.7234318 18.6792821,34.688772 18.0252491,34.2251356 C16.8987657,33.3256433 15.552672,32.321745 13.9877438,31.2123861 C12.9263537,30.4599793 11.9527293,29.8451007 11.0668704,29.3677414 C10.8812991,29.2361889 10.7599995,29.1181578 10.702196,29.014691 C10.5515398,29.1450348 10.4001869,29.1579133 10.249692,29.0512291 C10.0018811,28.8755601 9.89423915,28.6486405 9.9259841,28.3715163 C9.98045314,28.0592287 10.0812679,27.8054322 10.2272995,27.609324 L10.2272995,27.6093092 Z M13.8098333,29.7355309 L14.4865022,30.21521 C14.7784378,30.4221614 15.1040563,30.6465745 15.4633426,30.8884583 C15.4982273,30.7882118 15.5611757,30.6758127 15.6525436,30.5531125 C15.9945822,30.0937808 16.1429505,29.6669994 16.0987832,29.2735743 C16.0062013,28.94517 15.843926,28.6987475 15.6142208,28.5359125 C15.4195951,28.3979459 15.1657785,28.3301788 14.8531239,28.3344657 C14.4965332,28.4325791 14.2694293,28.5471824 14.1718153,28.6782698 C14.1475973,28.7107757 14.1213592,28.7738916 14.0927206,28.8657478 L13.9992078,29.344233 C13.9789755,29.4805109 13.9440998,29.5807632 13.8956822,29.6457811 C13.8663834,29.687483 13.8376292,29.7167834 13.8098333,29.7355339 L13.8098333,29.7355309 Z M11.3221992,27.9336251 C11.5064501,27.9392541 11.7145569,28.0242964 11.9442591,28.1871313 C12.1723396,28.4241207 12.4810786,28.6990615 12.870473,29.0119505 L12.1882121,27.0445909 C12.0999536,26.9820291 12.0191186,27.000033 11.9457134,27.0986114 L11.323331,27.934431 L11.3221992,27.9336251 Z M17.3946795,26.4188395 L17.9421749,25.7927088 C19.4797789,23.7278046 20.4987207,22.3222896 21.000126,21.5769605 C21.0977401,21.4458702 21.2442494,21.4487884 21.4388781,21.5867372 C21.5984244,21.6998415 21.6951957,21.8693838 21.7299739,22.0943242 C21.7756229,22.376639 21.7378843,22.6014461 21.6160645,22.7650424 C21.3677973,23.0264736 21.0688824,23.3721708 20.7223714,23.8026969 C20.7908509,23.8384262 20.8641314,23.8839588 20.9444704,23.9409094 C21.0417863,24.0098942 21.3095161,24.2493545 21.7457521,24.6595422 C22.186564,25.0473353 22.5397501,25.3345532 22.8045318,25.5222564 C22.8577138,25.5599588 22.9007615,25.5648324 22.9340216,25.5387583 C22.9888253,25.5022972 23.0528142,25.4419129 23.1290246,25.3581417 C23.2572335,25.2231051 23.3471532,25.1186073 23.401817,25.0451963 C24.0490471,24.1388663 24.5700337,23.295261 24.9640861,22.5106831 C25.0492078,22.396376 25.2075736,22.4205155 25.4372788,22.5833474 C25.6409558,22.7277341 25.845147,22.9782331 26.0513279,23.3374962 C26.2577066,23.821874 26.2816325,24.1705071 26.1231085,24.3833927 C25.8786809,24.71164 25.1307942,25.4072146 23.8790075,26.473023 C23.5803664,26.7115589 23.3271887,26.833314 23.1213941,26.8380424 C22.9325704,26.8547812 22.7283974,26.7853787 22.5077466,26.6289609 C22.0002229,26.1682397 21.5197587,25.7779757 21.0694027,25.4587258 L20.1308577,24.8687037 C20.0686243,24.8245872 20.0185668,24.7826868 19.9806792,24.7430201 C19.8338717,24.9401801 19.6972108,25.123703 19.5691418,25.2956895 L19.6223239,25.3333948 C20.2484059,26.0528098 20.7104663,26.6303118 21.0065821,27.066144 C21.415649,27.7310614 21.6854872,28.3229174 21.8127074,28.8393064 C21.9444973,29.3333009 21.9562929,29.654109 21.8461865,29.8019767 C21.5533443,30.1952419 21.1540407,30.4505493 20.6482785,30.567896 C20.1425164,30.6852487 19.7576339,30.649546 19.4917205,30.4610429 C19.2789892,30.3102392 19.2409129,30.1454549 19.375228,29.9650753 C19.6743163,29.563423 19.8356272,29.1842688 19.8595926,28.8247214 C19.8843886,28.3920681 19.8228154,27.9222042 19.6729199,27.4153726 C19.5763494,26.9831993 19.3619568,26.5444134 19.0324349,26.0977143 C18.8176225,26.4581654 18.606385,26.8788319 18.3991392,27.3568104 C18.1547176,27.6850577 17.8914512,27.7483868 17.6085669,27.5478525 C17.4320438,27.42272 17.3302829,27.2320126 17.3051948,26.9754906 C17.2547631,26.7506715 17.285358,26.5656554 17.3946764,26.4188365 L17.3946795,26.4188395 Z M14.514435,21.0347137 C14.8564736,20.575382 15.2213367,20.4847345 15.6105882,20.7606677 C15.7912399,21.026525 15.9708054,21.2659765 16.148506,21.4800708 C16.7906674,20.6710897 17.3911107,19.9831497 17.9494738,19.4143963 L18.3293575,18.6325944 C18.5487944,18.3379077 18.7822418,18.2774701 19.0300496,18.4531421 C19.0922829,18.4972586 19.1291818,18.5730811 19.1422187,18.6832701 C19.297037,19.0557939 19.6362461,19.4709025 20.1590704,19.9296536 C20.4770371,20.1550532 20.5210097,20.4233636 20.2890804,20.7348277 C20.0696466,21.0295143 19.8180905,21.0771149 19.5352063,20.8765805 C19.1900856,20.6319267 18.905379,20.3804352 18.6807425,20.1202483 C18.1002882,20.5724016 17.4838172,21.2377604 16.8309768,22.114479 C16.0680301,23.1390653 15.5538312,24.1012439 15.2895059,25.0018205 C15.8842568,25.4731005 16.1943497,25.7810449 16.2228301,25.9262137 C16.3331798,26.1053845 16.2968164,26.3167443 16.1140837,26.5621388 C15.9430644,26.7918076 15.7787384,26.849967 15.6191861,26.7368627 C14.8859459,26.2170786 14.1906359,25.8251259 13.5363016,25.5615616 C13.2353118,25.3481932 13.2077684,25.0787125 13.45219,24.7504652 C13.5622994,24.6025975 13.7098279,24.4764518 13.8974682,24.3707304 C14.0680433,24.3041809 14.2129127,24.2001779 14.3320734,24.0587302 C14.5537678,23.6518843 14.887744,23.1499826 15.3328579,22.5522161 L15.4335965,22.4169366 C15.164382,22.2885867 14.8949972,22.216189 14.6223934,22.1991953 C14.1969307,21.897588 14.160686,21.50978 14.514435,21.0347137 L14.514435,21.0347137 Z M16.5579167,24.0599596 L18.0041558,22.1177557 C18.1689289,21.896477 18.3476913,21.7283804 18.5408019,21.6153177 C18.7186119,21.5042251 18.8914628,21.5065892 19.0600664,21.6261016 C19.2546921,21.7640683 19.2723536,21.9400217 19.1138266,22.1529072 C18.1806424,23.4061136 17.5882707,24.3641504 17.3394042,25.0257259 C17.1441791,25.2879007 16.9141758,25.325141 16.6482623,25.1366378 C16.5249213,25.0492048 16.4465234,24.8990943 16.4145502,24.6889611 C16.3500654,24.4830229 16.3993988,24.2728363 16.5579167,24.0599537 L16.5579167,24.0599596 Z" id="path82"></path>
                        <path d="M28.0962183,14.6363502 L28.8605037,14.2806274 L34.8598313,10.9220237 C35.2791725,10.7348508 35.5689875,10.7644919 35.729273,11.010944 C35.9466502,11.3451669 35.802447,11.6530876 35.2985682,11.9351713 L31.7904071,13.682704 C30.5197419,14.3940576 29.4904983,15.0485494 28.6996279,15.6463426 L29.4336592,16.7459308 C29.4966045,16.842708 29.5578582,16.9465747 29.6174355,17.0575192 C29.609586,16.9897817 29.6099207,16.9419827 29.6168271,16.913654 C29.6627255,16.7206329 29.7758317,16.5728866 29.9557107,16.4721869 C30.3350498,16.3565259 30.6367759,16.2351974 30.8627754,16.1086754 L33.1252559,14.7699232 L35.6908012,13.3336531 L36.5753791,12.7662891 C36.7379648,12.6752713 36.9043109,12.761697 37.0763099,13.0262034 C37.1509625,13.1409934 37.1573,13.2740657 37.0986415,13.4281639 C37.055682,13.6087923 36.9712114,13.7328376 36.8455246,13.8032 C36.5005835,13.9717498 36.1396056,14.1446636 35.7622897,14.3190586 L35.7879071,14.3584409 C35.7938704,14.6313641 35.7337545,14.9644167 35.6091448,15.3580759 C36.5308194,15.1306883 37.2863517,14.9042102 37.8791036,14.6813614 C38.3269831,14.5380798 38.9395932,14.2611304 39.7169338,13.8505131 C39.8484712,13.7891601 39.9521428,13.8155482 40.0260652,13.9292035 C40.2245336,14.3093234 40.1692522,14.8023284 39.8618063,15.4058038 C39.6670436,15.8633017 39.2862259,16.2499632 38.718918,16.5675509 C38.5563384,16.6585718 38.3673413,16.6799501 38.1526597,16.6328117 C37.1076471,16.4625821 36.118926,16.3498719 35.1872235,16.2958128 C35.1073743,16.4003787 35.022855,16.4783995 34.9329201,16.5287494 C34.8245327,16.5894299 34.7136536,16.6269398 34.6010341,16.6424017 C34.6770285,16.6842814 34.7408561,16.7437236 34.7928212,16.8236257 C35.0219058,17.1758555 34.952836,17.4662759 34.5856119,17.6948842 C34.1543625,18.0330237 33.7689233,18.4222656 33.4288896,18.8643815 C33.2094253,19.1315453 33.0614556,19.3586841 32.9853882,19.5440231 C32.9608661,19.7143238 32.9167566,19.815779 32.8533427,19.8512832 C32.5108873,20.0429978 32.2084949,19.9359728 31.9457334,19.5319771 C31.9340504,19.5139643 31.9383098,19.445572 31.9597287,19.3261337 C31.9828513,19.2287343 31.9724462,19.1087035 31.9284279,18.9660263 C31.8205821,18.6671979 31.6885032,18.3988164 31.5340683,18.1613706 C31.3569488,17.88904 31.1076259,17.6387068 30.7872556,17.4097283 C30.6905786,17.4884097 30.6023962,17.5608015 30.5241686,17.6291612 C30.2900975,17.7602012 30.0977293,17.7957468 29.9482171,17.7351492 C30.0408476,17.9718839 30.1038325,18.2114094 30.1397791,18.4553196 C30.1642404,19.0418577 30.041666,19.6369904 29.7724516,20.2436269 C29.579913,20.5908854 29.3810278,20.8219674 29.1734778,20.9381558 C28.8944331,21.0943751 28.5125597,21.1408321 28.0282681,21.0757758 C27.5003508,20.9629915 27.1618871,20.7932566 27.013315,20.5648113 C26.9276791,20.4331522 26.9933261,20.2874116 27.2105602,20.1304842 C27.5177384,19.9232158 27.765747,19.6999432 27.9553192,19.4617983 C28.3344575,19.0822205 28.5460571,18.6506042 28.5911523,18.1709725 C28.6132709,17.7502764 28.4774832,17.3166336 28.1861836,16.8687465 C27.991497,16.5694055 27.6565443,16.1874102 27.1824784,15.7221058 C26.9533908,15.3698761 27.0190865,15.0936258 27.3799944,14.8915805 C27.5333523,14.8057265 27.6505233,14.7585467 27.7296179,14.7495729 C27.8363897,14.7251312 27.9156852,14.7236795 27.9649029,14.7437365 C27.9984673,14.7034537 28.0421934,14.6666934 28.0963825,14.6363531 L28.0962183,14.6363502 Z M25.7035299,11.2984581 C25.8834028,11.1977614 26.0842138,11.1098987 26.3052297,11.0337562 C26.4985715,10.9731023 26.7720241,10.8445776 27.1237043,10.6476992 L27.6644881,10.3449541 L27.5268871,10.1333899 C27.2977995,9.78115719 27.346205,9.51458882 27.670214,9.33319897 C28.0668647,9.11114409 28.3793672,9.17567013 28.6084487,9.52789695 L28.7322096,9.74720843 L29.7999371,9.14946569 L29.6623391,8.93789851 C29.4332546,8.58566873 29.481657,8.3190974 29.805663,8.13770755 C30.2023106,7.91565267 30.5148192,7.98017574 30.7439067,8.33240552 L30.8757119,8.56409783 C31.1698319,8.411721 31.4622664,8.2664278 31.7522791,8.12709542 C31.9506105,8.01606798 32.1821898,7.86185728 32.4477655,7.66559207 C32.8444131,7.44353719 33.1459354,7.49118217 33.3516022,7.80740121 C33.3167296,7.88679371 33.337972,8.07906826 33.4134431,8.3837449 C33.5287551,8.65536751 33.6711115,8.92260542 33.8431104,9.18706143 C34.2850602,9.7916123 34.5208838,10.1155105 34.549425,10.1593988 C34.7550918,10.4756179 34.6901293,10.7529939 34.351909,10.9899241 C33.1152462,11.5625112 32.0316584,12.1092642 31.1046108,12.6282603 C29.8973595,13.3041127 29.1509849,13.7526575 28.8647449,13.9727719 C28.5731136,14.1483165 28.2516633,14.3820056 27.9015439,14.6731845 C27.8473517,14.7035366 27.7902266,14.7293619 27.7301777,14.7506987 C27.4432592,14.8391746 27.2063251,14.738463 27.0174983,14.4481492 C26.8228757,13.9215806 26.6055289,13.473738 26.3654642,13.1046271 C26.1707776,12.8052862 25.8853073,12.4800193 25.5083079,12.1277006 C25.2769446,11.7767448 25.343772,11.4998635 25.7035238,11.2984611 L25.7035299,11.2984581 Z M29.1971937,12.6169253 L28.9659125,12.2613181 C28.5146072,12.5492796 28.1043903,12.8157739 27.7338013,13.0585494 C27.7665746,13.1476504 27.8041823,13.2417316 27.8428184,13.339842 C27.899907,13.4276128 27.9826435,13.4411639 28.0910309,13.3804833 C28.4365896,13.1379093 28.8059373,12.8835499 29.1971937,12.6169223 L29.1971937,12.6169253 Z M27.2706396,12.1481102 L28.455535,11.5031876 L28.2104167,11.1553277 L27.2510766,11.6923928 C27.1611356,11.7427427 27.1204093,11.8131347 27.130775,11.90404 C27.1801388,11.9823274 27.2286233,12.064173 27.2706365,12.1481102 L27.2706396,12.1481102 Z M30.0250025,14.9949259 C30.3685958,14.8992834 30.6518847,14.7882796 30.8778781,14.6617606 L32.2617287,13.8148875 L33.8967641,12.8995481 L34.7536709,12.3476757 C34.9162535,12.2566608 35.0716225,12.3262559 35.2201976,12.5547042 C35.2948533,12.6694882 35.3104094,12.7973997 35.2690716,12.941813 C35.2445494,13.1121137 35.1681595,13.2316409 35.0424758,13.3020004 C34.5122614,13.5266801 33.8969984,13.8358215 33.193632,14.2295843 C32.6620789,14.5271655 32.1427383,14.8532115 31.6363616,15.2088484 C31.260643,15.4437492 30.881097,15.7283748 30.4965645,16.0633858 C30.1725554,16.2447756 29.9243399,16.2041284 29.752347,15.9396723 C29.6776883,15.8248853 29.6698479,15.643534 29.729985,15.3949725 C29.7648667,15.2188591 29.8624473,15.0859437 30.0250299,14.9949259 L30.0250025,14.9949259 Z M34.1280209,16.6553751 C34.026832,16.6521162 33.9301672,16.6340442 33.8357173,16.6025662 C33.4517232,16.5780949 33.1897833,16.4606741 33.0521822,16.2491099 C33.0404992,16.2310972 33.0987652,16.1877272 33.224452,16.1173708 C33.7202623,15.8397962 34.1498323,15.5087404 34.5138922,15.1253289 C34.582892,15.0621301 34.6357789,14.9910804 34.6706454,14.9116909 L34.0629885,15.2518776 C33.3331071,15.6604861 32.655273,16.0814045 32.0290601,16.5164071 C31.974871,16.5467592 31.9189811,16.5841594 31.8625801,16.62803 C31.9212904,16.6795946 31.9688804,16.735843 32.0091351,16.7977382 C32.2206586,17.1229637 32.3968957,17.4326323 32.5382633,17.7249726 C32.6297559,17.8656441 32.7565775,17.8913479 32.9191601,17.8003359 C33.6077037,17.1032474 34.0104119,16.7212195 34.128024,16.655381 L34.1280209,16.6553751 Z M30.5713601,11.8107824 C30.7962126,11.6849063 31.0378168,11.555792 31.296191,11.4234218 L31.0385622,11.0273007 C30.6212472,11.2732106 30.2258409,11.5068494 29.8527601,11.7264571 L30.0575233,12.096913 L30.570633,11.8096566 L30.5713601,11.8107824 Z M29.2181592,10.6080444 L29.4531735,10.9984091 L30.6103978,10.3689811 L30.3615465,9.98636656 C29.9959441,10.1787626 29.6136599,10.3866354 29.2181592,10.6080473 L29.2181592,10.6080444 Z M31.9494848,10.5004536 L32.2179995,10.9979351 C32.527204,10.8493978 32.8437377,10.6952197 33.1713855,10.5363547 C33.2348024,10.5008476 33.2420039,10.4369526 33.1941431,10.344012 L32.9364991,9.94789092 L31.9494848,10.5004506 L31.9494848,10.5004536 Z M31.3741782,9.47319203 L31.5789414,9.8436479 L32.4979234,9.32917276 C32.3913584,9.18466763 32.3133347,9.08405086 32.2657386,9.02780241 L32.1573512,9.08848295 C31.901195,9.20732581 31.6406241,9.3363127 31.3741782,9.47319499 L31.3741782,9.47319203 Z" id="path84"></path>
                        <path d="M45.7452498,2.60187751 C46.2341842,2.48578397 46.541624,2.63995024 46.6662611,3.06469034 L46.8872679,4.37389038 L48.3084342,4.036453 L47.8892481,2.77430541 C47.764614,2.34956827 47.9161129,2.08642767 48.3437723,1.98488657 C48.8118445,1.87374655 49.1088533,2.03039253 49.2334917,2.45512967 L49.4258915,3.83319895 C49.7247586,3.77280282 50.0431827,3.70776129 50.3821052,3.63653379 C51.2290882,3.47636821 51.942861,3.32802351 52.5230625,3.19026132 C53.2437862,3.00856928 53.8144901,2.80042097 54.2355375,2.56705478 C54.5002136,2.50421152 54.6726969,2.6072132 54.7520453,2.8776152 C54.8654525,3.26407815 54.7429393,3.72108423 54.3861785,4.24956074 C54.1479043,4.62575226 53.8918654,4.84635249 53.6167595,4.91167843 C53.4029314,4.96244898 53.0629114,4.9348758 52.5953944,4.82928775 C51.8991175,4.68555882 51.1745303,4.6449649 50.4201106,4.71183141 C50.3455018,4.71900097 50.2617665,4.72830362 50.1666582,4.74163248 C50.2995166,4.82367061 50.3898583,4.94617823 50.4380471,5.11039669 L50.3960056,5.52320036 L50.8849396,5.40710979 L51.9983255,5.08067264 C52.2225823,5.0274283 52.3742045,5.13538645 52.4535534,5.40578549 C52.5046472,5.57987839 52.4692373,5.75865817 52.3486536,5.94181671 C52.2676836,6.07462539 52.1411468,6.16146001 51.9677385,6.20263757 C51.1679124,6.37141255 50.2122819,6.58907089 49.1027282,6.85251961 L48.978863,6.8819385 C49.0092267,6.94737406 49.0340111,7.01280666 49.0539343,7.08071305 L49.1260365,7.32642155 L51.1773866,6.85519782 C51.4733546,6.78492725 51.7321684,6.75913165 51.9554911,6.77875017 C52.1834487,6.77608381 52.3229714,6.86186966 52.3740587,7.03596256 C52.4534077,7.3063616 52.3599083,7.47252354 52.0952343,7.5353668 C51.0873789,7.7746701 50.1828166,8.0000135 49.3837919,8.20954239 L49.5366922,8.73058567 C51.468667,8.26129357 52.8791856,7.90657518 53.7675192,7.66395078 C53.9917765,7.61070643 54.1433996,7.71865866 54.2227471,7.98906363 C54.2680349,8.14340172 54.2177483,8.30459238 54.0708304,8.47418208 C53.9326519,8.74472332 53.7410036,8.90909584 53.495885,8.9672937 C52.6055836,9.12717784 51.3936764,9.37927376 49.8597979,9.7223431 C50.0597211,10.3656155 50.228196,10.8684357 50.3667344,11.2264781 C50.6497081,12.1907809 50.577549,12.7243205 50.1498949,12.8258616 C49.7013795,12.9323592 49.3666127,12.609021 49.1459597,11.8570853 C48.9875182,11.0177403 48.8572075,10.3883122 48.7550237,9.96881003 L46.9218485,10.4040763 C46.3612035,10.5371961 45.619989,10.7963934 44.6978428,11.1804389 C44.2493275,11.2869335 43.9768789,11.1759653 43.8808651,10.8487697 C43.8297854,10.6746768 43.8607545,10.4665671 43.9747431,10.2229057 C44.1161897,10.0347937 44.2825632,9.91736696 44.476833,9.87123885 L45.3491681,9.72618563 L48.4666113,8.98598492 C48.4108979,8.83412358 48.3537211,8.67732354 48.2964074,8.51527373 C47.2609572,8.81264157 46.4399909,9.0947341 45.8325713,9.36310966 C45.466196,9.45010427 45.23127,9.3196568 45.1294574,8.97270939 C45.0870699,8.82824869 45.1239201,8.65440465 45.2387027,8.45149427 C45.3459613,8.26093213 45.5369635,8.13237778 45.8120682,8.06705777 L47.9286904,7.59486822 C47.8750733,7.41213037 47.8494132,7.26765783 47.8511322,7.16423249 C47.4772269,7.26357829 47.1151994,7.36538603 46.7633884,7.46872842 C46.1981098,7.62408269 45.6218266,7.83223396 45.0352661,8.09565601 C44.5867538,8.20214767 44.3143051,8.09115282 44.2182884,7.7639839 C44.1646712,7.58124902 44.1967174,7.37684548 44.316517,7.15293303 C44.4133431,6.96485357 44.5900031,6.83970032 44.8442457,6.77933381 C45.2059963,6.78591085 45.4952302,6.7687276 45.7119593,6.72783149 L45.3282025,6.19952977 C45.2800162,6.03531132 45.2709466,5.90935519 45.2989646,5.81949277 C44.9967669,5.90181234 44.7155803,5.98442522 44.456336,6.06579083 C43.8081262,6.27121055 42.8769318,6.71947688 41.6640579,7.41028466 C41.2155456,7.51677928 40.9459965,7.41567664 40.8554166,7.1070123 C40.7931011,6.89464225 40.8330546,6.67911996 40.9762415,6.45890191 C41.1165168,6.15748416 41.3807447,5.96003391 41.7666768,5.86839686 C42.268137,5.71895599 42.7431612,5.57446863 43.1924706,5.43740858 C43.1274838,5.4013297 43.0767053,5.35659402 43.0388176,5.30351855 C42.7410071,5.10612162 42.5397489,4.8290063 42.4350368,4.47217556 C42.3727182,4.25980551 42.4132833,4.13659574 42.5553841,4.10285141 C42.8983689,4.08350545 43.1518204,4.05368364 43.3147985,4.01498876 C43.5390577,3.96174145 43.8083574,3.80534729 44.124949,3.54395464 C44.267065,3.51021031 44.3641375,3.57960986 44.4152263,3.75370276 C44.4576138,3.89816642 44.4029653,4.21094881 44.2495952,4.69113153 C44.1960846,4.87949244 44.1405476,5.04192444 44.0820352,5.17996512 C44.7151818,4.99925667 45.2894387,4.83648693 45.8025666,4.69352237 L45.3207151,3.38418012 C45.1960749,2.95944298 45.3384526,2.69847103 45.7452468,2.60188343 L45.7452498,2.60187751 Z M44.9884975,12.1614064 C45.3881297,12.1497041 45.6744671,12.122676 45.8478748,12.0815044 C46.2038205,11.9969895 46.5874859,11.7408022 46.9949708,11.3138668 C47.1788049,11.2702124 47.2954343,11.3349607 47.3465262,11.5090684 C47.4088448,11.7214355 47.3288496,12.137972 47.1074776,12.7571257 C46.913932,13.4330729 46.6689933,13.8055671 46.3730265,13.8758377 C46.0770597,13.9461142 45.7937496,13.8694088 45.5201326,13.6451497 C45.1732017,13.3563972 44.9356379,12.9888476 44.805567,12.5455882 C44.7445323,12.3329159 44.8046542,12.2050548 44.9884975,12.1614064 L44.9884975,12.1614064 Z M46.5655286,6.50930806 L48.2091346,6.04112992 L49.5077423,5.7327885 L49.2239493,5.21244737 C49.2115452,5.06086451 49.2273477,4.94353557 49.2673706,4.86138782 C48.783069,4.95524683 48.2863855,5.0639338 47.7765921,5.18497788 C47.2472388,5.31066737 46.7232463,5.44036529 46.2072219,5.57345542 C46.3476129,5.64313938 46.4420841,5.76070534 46.4899114,5.92368839 L46.5655286,6.50930806 L46.5655286,6.50930806 Z M52.1553417,9.96444608 L52.2322679,9.94619629 C52.7411279,9.89801212 53.151476,9.84680309 53.4620052,9.79288623 C53.7191502,9.74240009 53.9904908,9.68325419 54.2760286,9.61545445 C54.459867,9.57180309 54.582295,9.65631798 54.6446139,9.86868803 C54.7011335,10.0613033 54.5741875,10.3701187 54.2624702,10.7954484 C53.7990052,11.2977501 53.4054183,11.5866715 53.079463,11.6640671 C53.028609,11.676125 52.9679805,11.654883 52.8972042,11.5990404 C52.7860004,11.4814834 52.498384,11.0954441 52.0347169,10.442152 C51.9968216,10.3890706 51.9721178,10.338152 51.9579884,10.2899944 C51.9160269,10.1137359 51.9819447,10.0056385 52.1553423,9.96446386 L52.1553417,9.96444608 Z M50.4483352,1.91838446 C50.9446697,1.90357132 51.4310751,1.8501344 51.9049441,1.75874919 C52.0416342,1.77779888 52.1340746,1.86943889 52.1822631,2.03365142 C52.2217584,2.16823768 52.1023342,2.39337961 51.8245744,2.70631014 C51.5843271,2.92844501 51.2916285,3.08114773 50.9448117,3.16349694 C50.8731011,3.18053205 50.7985586,3.13086359 50.7215456,3.01575661 C50.6112728,2.82533964 50.4660797,2.53491323 50.2859588,2.14448036 C50.2515362,2.027184 50.3049164,1.95243394 50.4483352,1.91838446 L50.4483352,1.91838446 Z" id="path86"></path>
                        <path d="M65.1402839,6.04547905 C65.2448682,5.88287819 65.3440771,5.72028029 65.4392764,5.55767942 C65.576031,5.27280202 65.7007168,5.13101362 65.8160242,5.13101362 C65.8897635,5.13101362 66.005071,5.17134091 66.1619405,5.25329015 C66.434111,5.43670348 66.5708656,5.63962867 66.5708656,5.86336632 C66.5708656,5.91409836 66.549392,5.98044049 66.5078366,6.0610921 C67.1996624,6.10141347 67.9746187,6.15214254 68.8326987,6.21328229 C69.7645174,6.28482679 70.5609205,6.31994874 71.220569,6.31994874 C71.9646866,6.30954992 72.5827734,6.26921967 73.074829,6.19767221 C73.3469992,6.19767221 73.4837541,6.33035646 73.4837541,6.59441844 C73.4837541,6.97034924 73.2276687,7.37229784 72.7141663,7.79896069 C72.3481419,8.1137547 72.0277022,8.27115319 71.755532,8.27115319 C71.5141931,8.27115319 71.1736452,8.15407903 70.7338754,7.91993367 C70.0849567,7.60513965 69.3770394,7.38140496 68.6128136,7.24872071 C68.2467892,8.04090665 67.8847875,8.64057807 67.5281478,9.04772905 C68.0000885,9.28187737 68.4237668,9.49520435 68.8005214,9.68772479 C69.1249771,9.8295132 69.3770394,9.95178974 69.5553627,10.0532509 C69.6813869,10.0935752 69.7444025,10.1495066 69.7444025,10.2210541 C69.7444025,10.4044674 69.655917,10.5969819 69.477594,10.7999101 C69.2684391,10.962511 69.0633068,11.0444632 68.8648753,11.0444632 C68.7602983,11.0444632 68.5511367,10.9482044 68.2360654,10.7543834 C67.8485875,10.4903184 67.3458085,10.205441 66.7277217,9.90105473 C66.3509671,10.2262535 65.9728806,10.5059285 65.5961258,10.7400739 C64.9364773,11.1264124 64.444422,11.3189329 64.1186218,11.3189329 C63.6681304,11.3189329 63.2645652,11.1823468 62.9092669,10.9078771 C62.5633534,10.6334104 62.3903967,10.3641401 62.3903967,10.1000811 C62.3903967,9.87634049 62.484249,9.76447167 62.6732946,9.76447167 C63.5528263,9.76447167 64.2553819,9.66821293 64.7782691,9.47439189 C64.9351389,9.41325807 65.0973701,9.33781179 65.264963,9.2454489 C64.5315755,8.97098514 63.9979545,8.83439911 63.6627675,8.83439911 C63.4214325,8.83439911 63.3007652,8.71732791 63.3007652,8.48318254 C63.3007652,8.41163508 63.3423272,8.32578405 63.4267958,8.22431997 C63.772709,7.91993367 64.0971704,7.53359811 64.4015213,7.06530739 C63.7525974,7.07567658 63.1130605,7.10563171 62.484249,7.15636375 C61.8554379,7.20709283 60.9021651,7.44644353 59.6244313,7.87310637 C59.1632134,7.87310637 58.9326049,7.72091322 58.9326049,7.41522336 C58.9326049,7.17067324 59.0318199,6.96254568 59.2315916,6.7908377 C59.4514746,6.51637097 59.7504616,6.37978494 60.1272122,6.37978494 C62.2228029,6.20807696 63.8933766,6.09621109 65.1402708,6.04547905 L65.1402839,6.04547905 Z M68.7066806,0.130731877 C68.8528199,0.130731877 68.9895745,0.212684088 69.1156057,0.37528199 C69.2617517,0.497558527 69.3354908,0.639346932 69.3354908,0.801944834 C69.3354908,1.0360902 69.1786213,1.1986881 68.8635434,1.28974446 C68.1194324,1.37169668 67.3914066,1.43153287 66.679466,1.47316075 C66.6902028,1.58502958 66.6955697,1.67608594 66.6955697,1.74763044 C66.6848328,1.83868385 66.679466,1.93104081 66.679466,2.02210013 L69.6800616,2.02210013 C70.1412786,2.0624215 70.3718874,2.22502236 70.3718874,2.50989977 C70.3718874,2.89623828 70.078263,3.08875576 69.4923602,3.08875576 L67.3404534,2.98209227 C69.0271202,3.53102869 70.0635166,3.83021559 70.4509945,3.88094466 C70.7338885,3.92126899 71.074443,3.95248916 71.4726444,3.97200103 C71.7247068,3.97200103 71.8493926,4.08386985 71.8493926,4.30760751 C71.8493926,4.53134516 71.6455993,4.7693923 71.2366742,5.02435013 C70.8277424,5.25849253 70.4040644,5.37556373 69.964301,5.37556373 C69.5982765,5.37556373 69.3153759,5.28451329 69.1156057,5.101097 C68.5189728,4.66402941 67.8432391,4.22175648 67.0883978,3.77427821 C66.9623666,3.70273667 66.8470592,3.64159692 66.7424815,3.59086785 L66.7585852,3.81980491 C66.7585852,4.63280627 66.5279767,5.03995725 66.0667528,5.03995725 C65.6685511,5.03995725 65.4701199,4.63280627 65.4701199,3.81980491 C65.4808567,3.73785863 65.4862236,3.6728171 65.4862236,3.62208506 C65.4231946,3.69362956 65.349469,3.75867109 65.2663385,3.81980491 C64.6482517,4.32841997 64.0248069,4.72906798 63.3959955,5.02435013 C62.7148943,5.31963228 62.1490985,5.46662009 61.6986071,5.46662009 C61.3741456,5.46662009 61.0590692,5.35995661 60.7560604,5.14662666 C60.5039996,4.94369851 60.3793101,4.73557094 60.3793101,4.522241 C60.3793101,4.37004785 60.4731619,4.25817902 60.662208,4.18663453 C61.6262068,4.10467935 62.343507,4.00842357 62.8141103,3.89655771 C63.5153217,3.79509363 64.2755269,3.46468657 65.0920449,2.9053454 C63.9604502,2.93526202 62.9763408,3.01721423 62.1383724,3.14989255 C61.7187177,3.14989255 61.5095609,2.99770236 61.5095609,2.6920125 C61.5095609,2.51900392 61.6087765,2.34079593 61.8085483,2.15868024 C61.9654156,2.02600191 62.1169206,1.96096038 62.2644026,1.96096038 L63.0809191,2.02210013 L65.50097,2.02210013 C65.4902332,1.92063606 65.4794964,1.82957673 65.4701506,1.74763044 C65.4701506,1.67608594 65.4754536,1.62015153 65.4862543,1.57982424 C64.9311834,1.60065152 64.3707505,1.61494619 63.8049547,1.62535094 C63.4174779,1.62535094 63.13458,1.55901474 62.9562603,1.42763109 C62.8101189,1.28584565 62.7363777,1.12845012 62.7363777,0.955441543 C62.7363777,0.731703891 62.8825189,0.619835065 63.1761433,0.619835065 C63.8156809,0.660159392 64.2232661,0.680971852 64.4015888,0.680971852 C65.2502841,0.670573029 65.9514946,0.630239814 66.5065658,0.558695315 C67.2399533,0.487150816 67.8741252,0.366177835 68.4077492,0.193172221 C68.5337737,0.151544338 68.6329893,0.130731877 68.706735,0.130731877 L68.7066806,0.130731877 Z M66.4287493,8.56123297 C66.5132117,8.51049797 66.5802503,8.46496831 66.6325422,8.42464694 C67.0937595,8.06952563 67.4651456,7.6415622 67.7480463,7.14465545 C67.182245,7.09392637 66.5802503,7.0627062 65.9407164,7.05360204 C65.75167,7.35798835 65.5787083,7.62725567 65.4218459,7.86139807 C65.3910264,7.91213307 65.3749221,7.95765681 65.3749221,7.9979841 C65.3749221,8.08904046 65.4486678,8.16578734 65.5948072,8.22692709 C65.8991547,8.33748939 66.1766936,8.44936118 66.428756,8.56123297 L66.4287493,8.56123297 Z" id="path88"></path>
                        <path d="M78.0478073,10.6645298 C78.401216,10.853504 78.6771187,10.9715144 78.878082,11.0191564 C79.3081581,11.1211123 79.8971069,11.0287553 80.6449029,10.7420707 C80.8253864,10.784857 80.8909742,10.8948119 80.8425906,11.0735147 C80.7780875,11.3117811 80.4351387,11.6728573 79.8150373,12.1570543 C79.1976719,12.7066307 78.7203637,12.9401006 78.3798827,12.8593808 C78.080349,12.7883755 77.877102,12.5931828 77.7717723,12.2728457 C77.6083348,11.8551092 77.5879228,11.4173336 77.7110722,10.962345 C77.774888,10.7266176 77.8877846,10.6265993 78.0477759,10.6645328 L78.0478073,10.6645298 Z M81.1659254,4.92315269 C81.3464088,4.96593599 81.592869,5.0769664 81.9053119,5.25623501 C82.5221616,5.2972674 83.2254745,5.41139967 84.0152374,5.59862886 C85.0750972,5.84987748 86.2343949,6.16652018 87.4927918,6.54980719 C87.8843408,6.55765815 88.1548149,6.57997562 88.3045878,6.61547679 C88.7845926,6.72926837 88.9717077,6.98402769 88.8643088,7.38071467 C88.8536663,7.42000208 88.8078241,7.48870245 88.7284009,7.58586479 C88.6383327,7.72231454 88.4906244,8.07168539 88.2852756,8.63397141 C88.062185,9.18126357 87.8828391,9.70790029 87.7459387,10.2135853 C87.6424461,10.8323864 87.5675646,11.2246443 87.5219251,11.3932089 C87.3826245,11.9077611 87.0633724,12.1058661 86.5628816,11.9872158 C86.4924859,11.9705362 86.415887,11.9213506 86.3321745,11.8381156 C86.2177454,11.7475955 86.0542954,11.6670357 85.8396269,11.5945669 C85.2000136,11.401128 84.3658162,11.1817869 83.3353983,10.9375153 C82.2755382,10.6862607 81.3880019,10.5230614 80.6740512,10.4482165 C80.3587992,10.3950611 80.1252546,10.3922969 79.9734235,10.4399212 C79.8393348,10.5025452 79.7325986,10.524445 79.6519597,10.5053271 C79.1719489,10.3915385 79.0091912,10.0467953 79.1646239,9.47267653 C79.5288976,8.60009376 79.7942416,7.85646826 79.9603061,7.24305913 C80.1318644,6.60937378 80.1990579,6.00894096 80.1606313,5.4414585 C80.2911418,4.96933117 80.6257616,4.79510199 81.1659253,4.92315269 L81.1659254,4.92315269 Z M82.7794725,1.32291405 C82.9866419,1.38281838 83.2480942,1.51898075 83.5628798,1.72982505 C85.2525053,2.13037529 86.6371156,2.4801935 87.7170546,2.77802054 C88.0590765,2.73232201 88.2953653,2.72495099 88.4259242,2.75583046 C88.7856112,2.84109785 88.8964408,3.14116169 88.7571341,3.65571385 C88.5262068,4.19170654 88.3098251,4.83499673 88.1060155,5.58781824 C87.9879841,6.02379558 87.7292798,6.19444591 87.3286396,6.09946702 C86.5899208,5.83937496 85.6763936,5.5809953 84.5858169,5.32246455 C83.956045,5.17316588 83.0322097,5.02833486 81.8146359,4.88669755 C81.4549431,4.80143016 81.3362251,4.53051859 81.4594061,4.07553006 C81.5785933,3.87180792 81.6772814,3.66322114 81.7567703,3.45008674 C81.9283224,2.81640139 82.0468322,2.22273521 82.1109752,1.66878603 C82.20666,1.35563923 82.4287341,1.23969679 82.7794701,1.32284294 L82.7794725,1.32291405 Z M81.1385925,7.85686821 C81.7188368,7.95261442 82.6600194,8.15415606 83.9592295,8.46215677 C84.8795596,8.68033357 85.8251905,8.94092039 86.7957728,9.24519412 C86.8650376,9.02963332 86.9329397,8.81914454 86.99813,8.61341077 C84.3956603,8.00724824 82.4694463,7.65041749 81.2216973,7.54478796 L81.1372869,7.8565601 L81.1385925,7.85686821 Z M83.0338331,9.69668971 C83.7544801,9.86752964 84.7435371,10.1438125 86.0019342,10.5271024 C86.3424215,10.6078163 86.5096824,10.5786847 86.5046554,10.4412751 C86.5317941,10.3007014 86.5644189,10.1600714 86.6018204,10.0219299 C86.0490654,9.85987125 85.4784501,9.70841282 84.8883703,9.56852643 C83.6685125,9.2793384 82.3206714,9.07041093 80.8435851,8.94143292 L80.7873074,9.149282 C80.7632437,9.23800382 80.8409008,9.3035964 81.0213657,9.34638563 C81.6740312,9.41613774 82.3438771,9.53312599 83.0338076,9.69668378 L83.0338331,9.69668971 Z M81.5461346,6.46720023 L86.9465294,7.74744355 C87.0770911,7.77839709 87.1857973,7.80956393 87.2726609,7.84094112 L87.2650152,7.80815372 C87.2678142,7.68204651 87.2200635,7.60193112 87.1226129,7.56938666 C86.4444535,7.28184585 85.5607356,7.00895524 84.4714389,6.75072075 C83.711112,6.57047151 82.8091197,6.42542718 81.76453,6.3140146 C81.6798608,6.30474158 81.6086086,6.35661719 81.5459717,6.4672032 L81.5461346,6.46720023 Z M87.2474979,5.10115033 C87.3033023,5.05096934 87.3523001,4.93041409 87.3928219,4.74041484 C87.4518434,4.52242469 87.5279306,4.26127793 87.6212782,3.95701902 C87.6291429,3.92786676 87.6282028,3.91146269 87.617752,3.90902149 C87.5768514,3.78334089 87.4292395,3.67955707 87.1745478,3.59894693 C86.6005876,3.39949098 85.6241385,3.13699327 84.2430095,2.80957549 C83.6077438,2.68055601 83.2118245,2.62850561 83.0561745,2.65499742 L82.7024324,3.96166146 L82.8227505,3.99019156 C83.4631603,4.10020282 84.1137718,4.23286041 84.7742597,4.38943825 C85.7243697,4.61332996 86.5495946,4.8507668 87.2473419,5.10115033 L87.2474979,5.10115033 Z M85.7001128,11.8784429 C85.7206098,11.883272 85.7486786,11.8953299 85.7855957,11.914898 C86.30335,12.206228 86.7207526,12.4103797 87.0403592,12.5279605 C87.3175416,12.6462701 87.6255647,12.7462647 87.9647714,12.8266793 C88.1042956,12.8597571 88.1451898,12.9854377 88.0861741,13.2034248 C88.0353971,13.3909977 87.7633102,13.6110765 87.268647,13.8633561 C86.647058,14.116569 86.1559553,14.1997536 85.7962622,14.1144862 C85.7463724,14.1026653 85.7070621,14.0515274 85.6787597,13.9598489 C85.6218232,13.7777569 85.5115784,13.2188809 85.3502727,12.2850991 C85.3397884,12.2084174 85.3390187,12.1502818 85.3492383,12.1110032 C85.4130154,11.9157216 85.5293622,11.8381067 85.6996087,11.8784636 L85.7001128,11.8784429 Z" id="path90"></path>
                        <path d="M104.632711,10.3489981 C104.734061,10.4194405 104.727012,10.5306694 104.610687,10.6837751 C104.591684,10.7087204 104.574285,10.7231573 104.559004,10.7258118 C104.655783,10.8196175 104.72948,10.9156274 104.782492,11.0171774 C105.428282,12.1146769 106.02271,13.0520553 106.564954,13.8303939 C107.044602,14.4872618 107.497567,15.0426272 107.925731,15.4961462 C108.242658,15.8076606 108.582416,16.115134 108.943938,16.4178168 C109.097227,16.5890507 109.144601,16.7132204 109.086871,16.7892325 C108.906251,17.0270308 108.381868,17.0906147 107.514529,16.9788881 C107.1044,16.8746836 106.68812,16.6766201 106.267615,16.3843717 C106.006679,16.2030233 105.809308,15.9878743 105.676571,15.7396772 C105.517471,15.3570183 105.271629,14.713334 104.9412,13.8101236 C104.926754,13.7619246 104.89889,13.722658 104.856845,13.6934316 C104.852345,13.7168068 104.844258,13.7360935 104.831032,13.7534663 C104.689184,13.9402304 104.525526,13.9691664 104.340066,13.8402743 C102.890928,12.833129 101.797008,12.1889885 101.057502,11.9089609 C100.787949,11.7216191 100.756259,11.492214 100.962444,11.2207573 C101.007771,11.1610366 101.077116,11.119625 101.173169,11.0951271 C100.925413,11.0656489 100.689579,11.0377558 100.464589,11.0107959 C99.107517,10.8324397 98.1512074,10.5493844 97.594832,10.1627111 C97.3080217,9.96337954 97.1330004,9.62771973 97.0675846,9.15423255 C96.9502299,8.74916134 96.9628777,8.45269118 97.1047582,8.26592119 C97.1624757,8.18991498 97.3164901,8.23224797 97.5678475,8.39366378 C98.6085961,9.09044125 99.7488962,9.59759277 100.987663,9.91436582 C102.096016,10.2184796 103.17318,10.3250631 104.218339,10.2352006 C104.401398,10.2479992 104.541063,10.2852957 104.632712,10.3489952 L104.632711,10.3489981 Z M99.3384964,11.2202566 C99.5325793,11.3551391 99.7048399,11.501407 99.8561067,11.6579671 C100.024624,11.826511 100.289612,12.037222 100.650813,12.2882602 L102.862274,13.8252182 C103.350717,14.164685 103.910637,14.6052514 104.541198,15.1480138 C104.726658,15.2768999 104.97973,15.4013569 105.301241,15.5202887 C105.705586,15.8013058 105.779631,16.1115759 105.521487,16.4514485 C105.460495,16.447212 105.305184,16.5084939 105.05538,16.6335079 C104.852514,16.8160206 104.666007,17.0182051 104.498587,17.2386276 C104.203764,17.694025 104.043715,17.9394846 104.017328,17.9742333 C103.778984,18.2880408 103.468926,18.3579084 103.086076,18.1830778 C102.076736,17.325643 101.147249,16.6016745 100.29652,16.0104199 C99.1848607,15.2378199 98.4599677,14.7672005 98.1248196,14.5989796 C97.8506834,14.435007 97.5036131,14.265127 97.0835961,14.0893483 C96.7461051,13.8547941 96.7131565,13.5598142 96.9836719,13.2036589 C97.3972681,12.8955189 97.724616,12.5838327 97.9629535,12.2700282 C98.1237797,12.0582833 98.2549828,11.7662334 98.3560114,11.3968085 C98.6411266,11.0192749 98.9675946,10.9624813 99.3385091,11.2202655 L99.3384964,11.2202566 Z M98.1768492,14.8839962 C98.3709258,15.0188787 98.5431925,15.1651407 98.6944529,15.3217037 C98.8629768,15.4902506 99.127958,15.7009616 99.4891723,15.9519998 L100.677386,16.7778057 C100.964197,16.9771372 101.278787,17.2223184 101.62413,17.5137639 C101.783711,17.6246699 102.008239,17.7541723 102.294734,17.9018593 C102.699072,18.1828704 102.785495,18.4768579 102.553751,18.7819819 C102.479533,18.7951064 102.29589,18.9262767 102.003063,19.1773416 C101.761426,19.4108885 101.527082,19.6760497 101.301931,19.9724902 C100.787737,20.7167142 100.508933,21.1185383 100.463574,21.178259 C100.250789,21.458411 99.9453023,21.5049035 99.5462804,21.3188327 C98.8609286,20.6616804 98.1989606,20.1103709 97.5584926,19.6652479 C96.8252919,19.1556759 96.3419207,18.8529131 96.10705,18.754385 C95.9342822,18.660846 95.6860193,18.571265 95.3627805,18.4892921 C95.0252956,18.2547379 94.9857476,17.9684502 95.2438845,17.6285746 C95.773777,17.167332 96.1877136,16.741635 96.4837945,16.3518153 C96.728732,16.0293185 96.9655027,15.5982799 97.1960075,15.0583735 C97.4797168,14.6848424 97.8070257,14.6269705 98.1768617,14.8840021 L98.1768492,14.8839962 Z M99.0738039,13.9329542 C99.0886997,13.8786077 99.1189377,13.8150031 99.1614271,13.741681 L99.1735635,13.1661224 C99.3220181,12.9706749 99.4930329,12.8821516 99.6855429,12.8998148 L99.5335118,12.7941526 C99.4741891,12.7529366 99.3999968,12.7660669 99.3108651,12.833523 C99.130252,13.0713242 98.8865795,13.2901824 98.5790575,13.4912086 C98.5403435,13.5422428 98.571996,13.6024493 98.6733511,13.6728799 C98.7966513,13.7469604 98.9304164,13.8332914 99.0738246,13.9329542 L99.0738039,13.9329542 Z M100.544019,14.8950261 L101.189398,13.9433411 L100.228691,13.2756567 C100.323935,13.4712553 100.30172,13.6631891 100.159866,13.8499562 L99.7421736,14.2979321 C99.7290119,14.3153228 99.7156616,14.3242995 99.700314,14.3269363 C99.9604221,14.509366 100.241903,14.6983639 100.543942,14.8950024 L100.544019,14.8950261 Z M98.1182132,18.9261108 C98.547353,19.2243645 99.0092807,19.5835535 99.5010111,20.0032808 C99.5602696,20.0444939 99.6126968,20.0427489 99.6600909,19.9977407 C99.8275107,19.7773152 99.9651026,19.5875886 100.072699,19.4284421 C98.819666,18.5708591 97.842773,17.9765353 97.1417763,17.6436307 C97.0148233,17.7760513 96.8945591,17.8932113 96.7787837,17.9935852 C96.74007,18.0446194 96.7717222,18.104823 96.8730843,18.1752565 C97.2571413,18.3658512 97.6718221,18.615897 98.1182066,18.9261345 L98.1182132,18.9261108 Z M102.055433,11.1243178 L104.393051,12.7489548 C104.460977,12.7961613 104.524531,12.8469674 104.585857,12.9028603 C104.21794,11.9470514 103.967597,11.3201475 103.834557,11.0203059 C103.344413,11.1060266 102.750826,11.141424 102.055433,11.1243178 L102.055433,11.1243178 Z M97.8847169,16.8194543 L100.474643,18.6194344 C100.525298,18.654663 100.564076,18.6882147 100.590893,18.7201459 C100.730713,18.5186961 100.828467,18.3726149 100.885273,18.2826962 L100.783923,18.2122567 C100.271969,17.7519295 99.480229,17.1502435 98.4106152,16.4068699 C98.3513567,16.3656508 98.2837005,16.3700888 98.2069409,16.4212682 C98.1104513,16.5483146 98.0030987,16.6810818 97.8847169,16.8194632 L97.8847169,16.8194543 Z M102.152083,14.6323121 L101.452961,15.5267354 C101.629786,15.649634 101.811947,15.7828693 101.99943,15.9264383 C102.009765,15.895464 102.02858,15.8620574 102.05413,15.828399 L102.238236,15.1782711 C102.381343,15.0570789 102.513862,14.9932313 102.633875,14.9870542 C102.473344,14.862212 102.312755,14.7439646 102.152103,14.6323121 L102.152083,14.6323121 Z M103.219148,15.4137378 C103.259146,15.5974859 103.212023,15.778775 103.076805,15.9568526 L102.647216,16.3185806 C102.619609,16.337571 102.590141,16.3502689 102.56082,16.3564193 C102.754909,16.4913107 102.932742,16.6215448 103.094358,16.7471306 C103.153681,16.7883497 103.206057,16.7866047 103.253445,16.7415905 C103.543747,16.359373 103.719462,16.0932816 103.782534,15.9430112 C103.821248,15.891974 103.806871,15.843775 103.738941,15.7965626 C103.586775,15.6758563 103.413237,15.5486203 103.219161,15.4137378 L103.219148,15.4137378 Z" id="path92"></path>
                        <path d="M112.658262,25.024215 C112.756423,25.1783398 112.724885,25.3063431 112.563216,25.4100588 C112.302931,25.5770325 112.10285,25.5976138 111.95997,25.4721791 L109.608713,23.6240119 C109.347647,23.2141057 109.432336,22.8703194 109.862324,22.594481 C110.310647,22.306872 110.650739,22.3057936 110.881904,22.5901259 L112.658262,25.0241972 L112.658262,25.024215 Z M109.980167,26.3450019 C110.143072,26.6007863 110.126615,26.7930282 109.929373,26.9195473 C109.786048,27.0114924 109.603159,27.021038 109.378869,26.9478107 C107.584809,26.6668114 106.593104,26.377656 106.402348,26.0781461 C106.184448,25.736016 106.273054,25.438974 106.667493,25.185936 C106.927769,25.0189623 107.155379,24.9807325 107.352145,25.0715993 C107.449106,25.0462984 108.325349,25.4711689 109.980143,26.34499 L109.980167,26.3450019 Z M115.268215,20.860212 C115.312075,20.9290783 115.352415,21.0710237 115.388781,21.2878851 C115.280594,21.9700835 115.182691,22.7673266 115.094372,23.6785154 C115.073257,23.7644731 115.026154,23.8300568 114.955055,23.8756605 C114.793382,23.9793762 114.63724,23.9117246 114.484777,23.6723353 C114.452092,23.6209486 114.423514,23.5253623 114.397185,23.3851797 C114.147743,22.4381639 113.982295,21.7929302 113.901292,21.4476537 C113.84902,21.0485522 114.001925,20.7333375 114.35969,20.5038405 C114.682564,20.2982252 114.985577,20.4164163 115.268215,20.860212 L115.268215,20.860212 Z M108.58675,27.9610117 C108.752403,28.299717 108.875378,28.5333795 108.956824,28.6612732 C109.103726,28.8919167 109.50693,29.0304936 110.166891,29.0751878 C110.24277,29.1943329 110.218008,29.2949052 110.092996,29.3750828 C109.869413,29.5185184 109.399091,29.6524085 108.682497,29.774925 C107.902822,29.9378932 107.448483,29.9168082 107.31829,29.7123987 C107.182542,29.4992465 107.184996,29.2266877 107.327536,28.8950778 C107.481663,28.5436894 107.747924,28.2466268 108.124022,28.0053592 C108.355633,27.8567746 108.510876,27.8418637 108.586761,27.9610087 L108.58675,27.9610117 Z M119.630204,26.7581166 C119.706089,26.8772617 119.664109,26.9888727 119.502439,27.0925884 C119.439378,27.1330401 119.33295,27.1535949 119.181302,27.1538733 C119.396872,27.5329208 119.63812,27.9801769 119.903209,28.495286 C120.160628,28.7397058 120.337486,28.9387973 120.434954,29.091826 C120.728745,29.553113 120.67842,29.9102697 120.283981,30.1633047 C120.22092,30.2037535 120.05838,30.1463289 119.795677,29.9900118 C119.03322,29.624619 118.273644,29.3728312 117.516304,29.233567 C117.848382,29.7549658 118.142456,30.2268472 118.399915,30.6513799 C118.611843,30.8649409 118.757254,31.0349365 118.839406,31.1639204 C119.035024,31.4710798 118.917631,31.7634941 118.487647,32.0393325 C117.528666,32.534435 116.390445,33.2045696 115.074124,34.0490044 C114.715237,34.2792362 114.427758,34.2234647 114.209858,33.8813286 C113.717702,33.0299671 113.091391,32.006 112.330468,30.8112611 C111.987949,30.2734641 111.460217,29.5234542 110.746092,28.5619689 C110.550472,28.2548125 110.631179,27.9859392 110.990067,27.7557075 C111.246387,27.6636557 111.465179,27.5710113 111.647169,27.4789032 C112.784609,26.7492169 113.811041,26.0430301 114.725748,25.359223 C114.999633,25.1958519 115.232393,25.2620785 115.423142,25.5615824 C115.537326,25.740851 115.635886,26.0148081 115.718166,26.3823636 L116.811161,28.0985072 C117.42117,28.2245167 118.133305,28.4297349 118.944581,28.7145472 C118.476755,27.9799962 118.02866,27.3651917 117.600313,26.8701425 C117.165984,26.7638404 116.734808,26.6016336 116.306796,26.383516 C115.984633,26.2529945 115.771242,26.1081279 115.6675,25.9452545 C115.439152,25.5867232 115.380143,25.1365016 115.4907,24.5975077 C115.538156,24.3145264 115.632475,24.1278009 115.775796,24.0358557 C115.892748,23.9608242 115.992963,23.9812219 116.078012,24.0944772 C116.541831,24.7238282 116.989342,25.1881135 117.420114,25.489152 C117.945105,25.897574 118.61393,26.2630023 119.42471,26.5850814 C119.517466,26.6318139 119.587043,26.6903436 119.630204,26.7581137 L119.630204,26.7581166 Z M113.85474,27.2883026 C113.891152,27.325054 113.917287,27.3559927 113.933953,27.3822268 L115.035294,29.111486 L116.013409,28.4486217 L115.629819,27.8463283 C115.18434,27.2052068 114.892161,26.8275873 114.754846,26.7108923 L113.85474,27.2883144 L113.85474,27.2883026 Z M113.196082,30.3267796 L114.249486,29.6325115 C113.730103,28.89562 113.270498,28.3236077 112.872539,27.9168448 L112.012574,28.4685217 C111.976999,28.4913339 111.980275,28.5369732 112.024135,28.6058424 C112.402197,29.120839 112.771417,29.6599809 113.130639,30.2240119 L113.196082,30.3267796 L113.196082,30.3267796 Z M111.351203,30.6988738 C111.590692,31.0748935 111.548764,31.3666175 111.226556,31.5733141 L109.853032,32.0033188 C109.656182,32.0695513 109.518675,32.0438387 109.442097,31.9235945 C109.279185,31.6678101 109.2816,31.4737995 109.449353,31.3415655 L110.506983,30.4459868 C110.831482,30.2378208 111.111743,30.3228511 111.351221,30.6988708 L111.351203,30.6988738 Z M112.50965,32.5177673 C112.749134,32.8937899 112.7072,33.185514 112.385007,33.3922076 L111.03584,33.8604717 C110.838984,33.9267012 110.69312,33.887876 110.600532,33.7424909 C110.45363,33.5118474 110.467188,33.3353281 110.64054,33.211831 L111.665452,32.2648833 C111.989938,32.0567172 112.270212,32.1417476 112.509702,32.5177702 L112.50965,32.5177673 Z M114.864977,33.0638122 C115.001112,33.0011437 115.261658,32.8447318 115.646918,32.5975775 L116.063147,32.3305677 C115.633607,31.6561344 115.240839,31.0597278 114.886691,30.5417123 L113.776433,31.235462 C114.180781,31.8906382 114.543247,32.5003263 114.864959,33.0637855 L114.864977,33.0638122 Z M116.635247,29.4554145 L115.646535,30.0712055 L116.560606,31.5064269 C116.658774,31.6605546 116.725483,31.7855834 116.762576,31.8818748 L117.48839,31.4162623 C117.613383,31.3360847 117.584376,31.1206513 117.398415,30.7703413 C117.223593,30.4375256 116.968596,29.9990952 116.63524,29.4554145 L116.635247,29.4554145 Z M113.565457,34.2947159 C113.581369,34.319839 113.596408,34.3534026 113.608803,34.3931729 C113.688664,34.954739 113.768806,35.397563 113.847858,35.7194673 C113.924832,35.9595409 114.048438,36.2220653 114.218876,36.5099675 C114.294755,36.6291125 114.269992,36.7296878 114.144975,36.8098625 C113.956921,36.9304947 113.635178,36.9198056 113.179264,36.7796229 C112.607638,36.5566319 112.243947,36.3203386 112.086618,36.0733028 C112.042758,36.0044365 112.034346,35.9328654 112.061062,35.8556652 C112.146476,35.6930881 112.469493,35.2087221 113.029654,34.4044042 C113.085909,34.3329397 113.139447,34.2800864 113.193338,34.2455155 C113.359903,34.1494731 113.483314,34.1657379 113.565454,34.2947218 L113.565457,34.2947159 Z" id="path94"></path>
                        <path d="M125.889147,42.06043 C126.009886,42.5300331 125.850809,42.8256056 125.410815,42.9458498 L124.055208,43.1597545 L124.406161,44.5247408 L125.712827,44.1204902 C126.152565,44.0002313 126.425242,44.1454652 126.530852,44.5562217 C126.646435,45.0057916 126.484552,45.2913296 126.044783,45.4115886 L124.617824,45.5980979 C124.680694,45.8851588 124.748382,46.1910086 124.822502,46.5165451 C124.989259,47.3300916 125.143642,48.0156703 125.286918,48.5729347 C125.475848,49.2651527 125.692002,49.8132062 125.934126,50.217445 C125.99949,50.4716621 125.893026,50.6374982 125.613041,50.7140584 C125.212928,50.8234801 124.739513,50.7063259 124.191835,50.3641987 C123.801997,50.1357298 123.573268,49.8900094 123.505333,49.6257756 C123.452547,49.4204062 123.48075,49.0936965 123.589579,48.6443992 C123.737704,47.9752779 123.778981,47.2790781 123.708965,46.5543571 C123.70145,46.4826793 123.691744,46.402244 123.677883,46.3108854 C123.593068,46.438628 123.466289,46.5255752 123.296271,46.5720677 L122.868715,46.5321789 L122.989455,47.0017821 L123.328679,48.0710744 C123.384101,48.2864723 123.272427,48.4322691 122.992473,48.5088294 C122.812229,48.5581245 122.627041,48.5243239 122.437238,48.4086896 C122.299615,48.3310628 122.209543,48.2095921 122.166724,48.0430421 C121.991098,47.274809 121.764682,46.3569454 121.490676,45.2912615 L121.460373,45.1735444 C121.392651,45.2027856 121.324908,45.226697 121.254597,45.2459214 L121.00022,45.3154899 L121.490381,47.2857618 C121.563472,47.5700319 121.590456,47.8186526 121.570376,48.0332387 C121.57357,48.2522391 121.484679,48.3863958 121.304435,48.435688 C121.02449,48.5122482 120.852305,48.4226228 120.78695,48.1684056 C120.538065,47.2003966 120.303739,46.3316031 120.085905,45.5641906 L119.546463,45.7117176 C120.0345,47.5672974 120.403334,48.922033 120.655538,49.7752105 C120.710956,49.9906025 120.599286,50.1364052 120.319325,50.2129655 C120.15953,50.2566613 119.992545,50.2084919 119.816758,50.0675923 C119.536435,49.9351628 119.366009,49.751237 119.30548,49.5158058 C119.138966,48.6606374 118.876612,47.4966031 118.519724,46.0233387 C117.853731,46.2161998 117.333179,46.3786378 116.962538,46.5122019 C115.964182,46.7852288 115.411551,46.7165403 115.305947,46.3057956 C115.195181,45.8750118 115.529698,45.5529978 116.308183,45.3401004 C117.17726,45.1868615 117.828971,45.0609083 118.263312,44.9622291 L117.810616,43.2015275 C117.672172,42.6630522 117.402958,41.9512423 117.00426,41.0657514 C116.893505,40.6349616 117.008123,40.3730742 117.346888,40.2804358 C117.527132,40.2311465 117.742681,40.2606454 117.995156,40.3698775 C118.190104,40.5055481 118.311894,40.6652515 118.359876,40.8518408 L118.511004,41.6897667 L119.280845,44.6839613 C119.438055,44.630237 119.600382,44.5751084 119.768148,44.5198851 C119.459099,43.5254346 119.166096,42.737029 118.887517,42.1537676 C118.797043,41.8018814 118.931891,41.5760166 119.291101,41.4777818 C119.440656,41.4368768 119.620732,41.4721232 119.830996,41.5821167 C120.028455,41.6849376 120.16179,41.8682828 120.229731,42.1325166 L120.720969,44.1654896 C120.910151,44.1137503 121.059737,44.0889412 121.166852,44.0904581 C121.06357,43.7313432 120.957769,43.3836521 120.85037,43.0457733 C120.688886,42.5028688 120.472714,41.9494529 120.199291,41.3862307 C120.088537,40.9554498 120.203155,40.6935624 120.54192,40.600921 C120.731115,40.5491817 120.94283,40.5797382 121.174839,40.6945549 C121.369723,40.7873532 121.499526,40.9569311 121.562304,41.2011198 C121.555885,41.5486834 121.573987,41.8265483 121.616566,42.0347144 L122.163289,41.6653902 C122.333301,41.6188947 122.463746,41.6100572 122.556827,41.6368305 C122.471264,41.3465966 122.385406,41.0765442 122.300872,40.8275709 C122.08745,40.2050517 121.622244,39.3109454 120.905548,38.1465024 C120.794791,37.7157215 120.899129,37.4566278 121.218778,37.3692333 C121.438647,37.3091038 121.661884,37.3472209 121.890104,37.4845328 C122.202403,37.6189443 122.407172,37.872563 122.502474,38.2432322 C122.65777,38.7248399 122.807897,39.1810431 122.950317,39.6125498 C122.987563,39.5500769 123.033887,39.5012321 123.088812,39.4647651 C123.292924,39.1784064 123.579703,38.9847127 123.949136,38.8836842 C124.169002,38.8235547 124.296651,38.8623532 124.331739,38.9988652 C124.352154,39.3283657 124.383303,39.5718345 124.42353,39.7283679 C124.478949,39.9437598 124.64116,40.2023054 124.9122,40.5061495 C124.947261,40.6426496 124.875532,40.7359961 124.695282,40.7852883 C124.545715,40.8261933 124.221737,40.7740599 123.724286,40.6272884 C123.529153,40.5761031 123.360878,40.5229417 123.217855,40.4668888 C123.405669,41.0749711 123.574841,41.6264998 123.723441,42.1193092 L125.07892,41.6547959 C125.518342,41.5332985 125.788752,41.6697571 125.889211,42.0604744 L125.889147,42.06043 Z M115.988275,41.3448813 C116.00081,41.7288171 116.029117,42.0038793 116.071936,42.1704353 C116.15983,42.5123077 116.425545,42.8806038 116.868122,43.2715818 C116.913588,43.4481574 116.84649,43.5602751 116.666334,43.6095732 C116.446462,43.6697027 116.015009,43.593338 115.373554,43.3814094 C114.67333,43.1962748 114.287316,42.9614006 114.214218,42.6771306 C114.141141,42.3928664 114.220637,42.1205832 114.452244,41.8574337 C114.750909,41.5237677 115.131304,41.2950943 115.590222,41.1695915 C115.810401,41.1106974 115.942888,41.1684064 115.988275,41.3448813 L115.988275,41.3448813 Z M121.843381,42.8532114 L122.329964,44.4317439 L122.650647,45.6790162 L123.189235,45.4057345 C123.346192,45.3936173 123.467729,45.4086971 123.552841,45.4470305 C123.45513,44.9818476 123.342057,44.5047934 123.21616,44.0151511 C123.085435,43.5067226 122.950566,43.0034581 122.812199,42.5078431 C122.740172,42.6428085 122.618522,42.7337138 122.449785,42.7798597 L121.843381,42.8532114 Z M118.271024,48.2277945 L118.29004,48.3016765 C118.34045,48.790513 118.393936,49.1846877 118.450106,49.482968 C118.502634,49.7299594 118.564192,49.9905788 118.634704,50.2648263 C118.680167,50.4414018 118.592706,50.5591248 118.372846,50.6192514 C118.173429,50.6737904 117.853481,50.5521952 117.412666,50.2532187 C116.891984,49.808549 116.592363,49.4307606 116.511866,49.1176879 C116.499331,49.0688401 116.521298,49.0105741 116.579043,48.9425107 C116.700668,48.8355272 117.100161,48.5587348 117.776236,48.1124772 C117.831204,48.0759865 117.883881,48.0522351 117.933738,48.0385951 C118.116243,47.998096 118.228251,48.0612889 118.271076,48.2278093 L118.271024,48.2277945 Z M126.601927,46.5780996 C126.617778,47.0549375 126.673637,47.5221913 126.768781,47.9773487 C126.749187,48.1086968 126.654394,48.1976201 126.484372,48.2441126 C126.345034,48.282218 126.111748,48.1677479 125.787371,47.9012744 C125.557078,47.6707227 125.398627,47.3896937 125.312976,47.0565877 C125.29533,46.9877155 125.346562,46.9160377 125.465741,46.8419098 C125.662828,46.7357351 125.963453,46.5958872 126.3676,46.4223661 C126.489039,46.3891521 126.566512,46.4403493 126.601927,46.5780996 L126.601927,46.5780996 Z" id="path96"></path>
                        <path d="M125.49019,59.1541999 C125.404028,59.4865416 125.361634,59.7776642 125.361634,60.0301393 L125.409474,61.2835027 C125.655651,61.3646521 125.778739,61.5398441 125.778739,61.8116385 C125.778739,62.1336791 125.661121,62.3346282 125.425888,62.4157835 L125.425888,63.8945673 L125.490163,64.9508508 C125.490163,65.1324688 125.350666,65.2226423 125.073036,65.2226423 C124.902081,65.2226423 124.758477,65.156946 124.640865,65.0268481 C124.545131,64.9160666 124.497258,64.7808049 124.497258,64.6197949 C124.519164,63.9963336 124.528723,63.260799 124.528723,62.4157835 L123.82302,62.3397803 C123.812098,62.682423 123.806591,63.0495489 123.806591,63.441146 C124.244239,64.568263 124.618971,65.37336 124.928057,65.8564106 C124.981422,65.9465811 125.008746,66.0882806 125.008746,66.2789257 C125.008746,66.5004829 124.815909,66.6112615 124.431605,66.6112615 C124.345446,66.6112615 124.26612,66.5262518 124.190901,66.3549201 C124.062339,66.0934297 123.902325,65.755936 123.709488,65.3437278 C123.678023,65.9774961 123.661645,66.5314009 123.661645,67.0041504 C123.661645,67.5979795 123.70403,68.09134 123.790207,68.4829371 C123.790207,68.7044973 123.672589,68.8152818 123.437356,68.8152818 C123.117326,68.8152818 122.769948,68.6091718 122.395215,68.1969695 C122.106645,67.8852388 121.963044,67.6288975 121.963044,67.4266596 C121.963044,67.1844914 122.064251,66.8534326 122.268029,66.4309293 C122.534715,65.807462 122.727551,65.1131554 122.84517,64.3479975 C122.876635,64.1161245 122.903992,63.8997164 122.925859,63.6987673 C122.594891,62.9645274 122.231099,62.1439831 121.835851,61.2384145 L121.835851,63.260799 C121.835851,63.663989 121.813945,64.1367385 121.771576,64.6803333 C121.771576,64.8915923 121.813958,65.1337605 121.900132,65.4055579 C121.900132,65.8087478 121.686777,66.0097058 121.25871,66.0097058 C121.205345,65.9698052 121.001592,65.9092194 120.65011,65.828076 C120.330083,65.8074561 119.977232,65.7984468 119.592928,65.7984468 C118.662929,65.8190667 118.161012,65.828076 118.085788,65.828076 C117.712427,65.828076 117.497706,65.6464432 117.444366,65.2844753 C117.572921,64.3479975 117.637202,63.5029701 117.637202,62.7481192 C117.637202,61.7717082 117.609851,61.1482499 117.556513,60.8764495 C117.534608,60.6548894 117.475818,60.372785 117.380085,60.0314251 C117.380085,59.6694572 117.561987,59.4878303 117.924407,59.4878303 C118.630107,59.6282352 119.227766,59.6990864 119.720117,59.6990864 C120.148184,59.6990864 120.622758,59.6385273 121.146562,59.5174566 C120.900388,58.8527762 120.665155,58.1893816 120.440865,57.5246983 C120.323247,57.1124931 120.264436,56.8097777 120.264436,56.6191296 C120.264436,56.2159397 120.392992,55.8398074 120.648741,55.4868518 C120.926374,55.0540385 121.204004,54.8376304 121.481631,54.8376304 C121.674473,54.8376304 121.770207,54.938105 121.770207,55.1390541 C121.792113,56.4168947 121.887822,57.3933028 122.058778,58.0670073 C122.22973,58.8218612 122.443082,59.6166454 122.7002,60.4526456 C122.817815,60.7540782 122.924489,61.0464836 123.020223,61.328588 C123.009301,60.5234998 122.977842,59.7480349 122.924489,59.0034851 C122.882108,58.5101276 122.7002,57.7552767 122.38017,56.7389294 C122.38017,56.3563534 122.497788,56.1657054 122.733022,56.1657054 C122.957317,56.1657054 123.139211,56.2365537 123.277341,56.3769585 C123.534459,56.5676036 123.661645,56.7994737 123.661645,57.0712681 C123.757382,58.8927065 123.810719,60.3122407 123.821663,61.328588 L124.494544,61.2835027 C124.494544,60.9910913 124.483622,60.7192969 124.463076,60.4681075 C124.44117,59.9953581 124.367342,59.4865416 124.238786,58.9429408 C124.238786,58.5397568 124.398795,58.3388018 124.720194,58.3388018 C124.913031,58.3388018 125.099028,58.4341243 125.280927,58.6260582 C125.421796,58.7458579 125.490172,58.9223358 125.490172,59.1541999 L125.49019,59.1541999 Z M128.695937,57.8853775 C128.695937,58.0863266 128.674032,58.3027347 128.631656,58.5345989 C128.609751,58.7458579 128.600191,59.0627406 128.600191,59.4852498 L128.600191,62.6850005 C128.600191,63.4192463 128.578286,64.2655594 128.53591,65.2213565 C128.53591,65.4429196 128.557816,65.704413 128.600191,66.0058366 C128.600191,66.4888901 128.39778,66.7310613 127.991588,66.7310613 C127.960123,66.680821 127.847987,66.6048267 127.655151,66.5043462 C127.452739,66.4541089 127.243492,66.4283459 127.030137,66.4283459 C126.656776,66.4682465 126.452995,66.4889227 126.421543,66.4889227 C126.048173,66.4889227 125.833458,66.2879706 125.78012,65.8847807 C125.886792,64.3351486 125.940129,62.9362165 125.940129,61.688011 C125.940129,60.2594615 125.912777,59.3577561 125.85944,58.9854812 C125.85944,58.6737505 125.811601,58.2860196 125.71584,57.8235801 C125.71584,57.4203901 125.929195,57.2194351 126.357262,57.2194351 C126.75251,57.3405206 127.094417,57.4010649 127.382988,57.4010649 C127.564887,57.4010649 127.767292,57.3405058 127.991588,57.2194351 C128.460686,57.2221014 128.695937,57.4435756 128.695937,57.8854101 L128.695937,57.8853775 Z M126.868774,60.1808571 L127.638752,60.1357688 L127.638752,58.9429468 C127.638752,58.8617974 127.585387,58.8025419 127.478737,58.7613229 C127.307785,58.7613229 127.125886,58.7110856 126.934415,58.6106081 C126.827737,58.6106081 126.774406,58.6608483 126.774406,58.7613229 C126.815443,59.2044431 126.848256,59.6771955 126.868774,60.1808571 L126.868774,60.1808571 Z M118.438651,62.7468335 C118.438651,63.3110393 118.416746,63.9138955 118.37437,64.5579619 C118.37437,64.6288072 118.416752,64.6687464 118.502932,64.6790475 C118.876293,64.6790475 119.208626,64.6790475 119.497197,64.6790475 C119.486274,62.9284633 119.406936,61.6300176 119.256493,60.7849902 C119.010319,60.7643703 118.760041,60.7347529 118.502932,60.6948197 C118.416764,60.6948197 118.37437,60.734747 118.37437,60.8159052 C118.416752,61.3878435 118.438651,62.0319129 118.438651,62.7468335 L118.438651,62.7468335 Z M120.330096,60.8596721 L120.330096,64.4677884 C120.330096,64.5283653 120.324954,64.594026 120.313666,64.6635855 C120.5489,64.6532459 120.745841,64.6378107 120.907222,64.6185151 L120.907222,64.5579352 C120.949606,63.75285 120.971496,62.575484 120.971496,61.0258459 C120.971496,60.9550006 120.929115,60.9047604 120.842941,60.8751371 C120.650104,60.8751371 120.479148,60.8700413 120.330074,60.8596721 L120.330096,60.8596721 Z M126.933049,61.690553 C126.933049,62.0022836 126.927268,62.3294762 126.91662,62.6721219 L127.605909,62.6424956 C127.616831,62.1800472 127.622338,61.6969937 127.622338,61.1933292 L126.933049,61.1637326 L126.933049,61.6905826 L126.933049,61.690553 Z M127.541649,63.6974815 L126.85236,63.652411 C126.830454,64.1148594 126.804517,64.5888947 126.771671,65.0719482 C126.771671,65.1221885 126.824972,65.1531005 126.93168,65.1621217 C127.198372,65.1621217 127.380265,65.1517821 127.475999,65.1324954 L127.475999,65.0114158 C127.499243,64.6185328 127.521143,64.1805616 127.541649,63.6975052 L127.541649,63.6974815 Z" id="path98"></path>
                    </g>
                    <g id="g4043" transform="translate(2.015625, 70.487592)">
                        <polygon id="path102" points="0.0490697476 0.226699069 15.9069647 0.226699069 15.9069647 2.21225329 6.47963224 2.21225329 6.47963224 3.83204817 14.5209599 3.83204817 14.5209599 5.68697625 6.47963224 5.68697625 6.47963224 9.47520502 0.0490697476 9.47520502"></polygon>
                        <path d="M29.5906151,7.94684997 L25.9195763,7.94684997 L24.908167,9.47520502 L18.3652243,9.47520502 L26.1568196,0.226699069 L33.1492769,0.226699069 L40.9533612,9.47520502 L34.2480913,9.47520502 L33.224196,7.94684997 L29.5906151,7.94684997 L29.5906151,7.94684997 Z M29.5906151,2.61720201 L27.3055811,5.9482316 L31.8756522,5.9482316 L29.5906151,2.61720201 L29.5906151,2.61720201 Z" id="path104"></path>
                        <path d="M48.2812939,6.61510193 C48.1481052,6.41480442 48.0815101,6.20144276 48.0815101,5.97502002 C48.0815101,5.8052045 48.1189681,5.64191951 48.1938872,5.48516507 C48.2688078,5.32841063 48.3770245,5.19560457 48.5185387,5.08674689 C48.7099984,4.94741029 48.9139457,4.87774199 49.130379,4.87774199 C49.2927032,4.87774199 49.4487844,4.9169283 49.5986226,4.99530706 C49.7484623,5.07368274 49.875408,5.18689411 49.9794626,5.33494117 C50.1126528,5.53523868 50.1792464,5.74859727 50.1792464,5.97502002 C50.1792464,6.14483861 50.1417868,6.30812359 50.0668677,6.46487803 C49.9919486,6.62163247 49.883732,6.75443853 49.7422178,6.86329621 C49.550758,7.00263281 49.3468123,7.07230111 49.130379,7.07230111 C48.9680533,7.07230111 48.8119721,7.03311173 48.6621339,6.95473605 C48.5122957,6.87635729 48.3853485,6.76260248 48.2812939,6.61510193 Z" id="path106"></path>
                        <path d="M68.8865591,5.66193791 L74.5795675,6.39345966 C74.2052565,7.05531004 73.6089704,7.61919005 72.7907093,8.08509968 C71.9724485,8.55100625 70.9517981,8.89935082 69.7287586,9.13012725 C68.5057197,9.3598168 66.9497178,9.4762919 65.0607536,9.4762919 C62.7713636,9.4762919 60.9085133,9.3369553 59.4722041,9.0582821 C58.0358949,8.77960891 56.7889171,8.28321728 55.7312709,7.56911644 C54.6736248,6.85501253 54.1448033,5.9406111 54.1448033,4.82591524 C54.1448033,3.34545696 55.069697,2.20898956 56.9194908,1.41650996 C58.7692833,0.624027291 61.382931,0.227789028 64.7604342,0.227789028 C67.4067255,0.227789028 69.4893742,0.456388616 71.0083801,0.913587793 C72.5273862,1.37079004 73.6481424,2.06965296 74.3706495,3.01017654 L68.6515267,3.54575447 C68.4426094,3.27578866 68.24022,3.07984484 68.04436,2.95792608 C67.8484996,2.83600732 67.6395816,2.73585703 67.4176066,2.65748135 C67.1956315,2.57910259 66.9540702,2.50943429 66.6929234,2.44847338 C66.1096947,2.33526201 65.517761,2.27865785 64.9171225,2.27865785 C63.4634033,2.27865785 62.3361182,2.53120583 61.535267,3.03630484 C60.9433333,3.41948202 60.6473666,4.0116641 60.6473666,4.81285109 C60.6473666,5.78821343 61.0020916,6.46312796 61.7115411,6.83759469 C62.4209909,7.21206448 63.4155263,7.39929785 64.6951475,7.39929785 C65.2870809,7.39929785 65.8289613,7.36010847 66.3207887,7.28173278 C66.8126155,7.2033571 67.2065125,7.09449942 67.5024796,6.95516282 C68.1368493,6.65906871 68.5992977,6.22799476 68.8865591,5.66193791 L68.8865591,5.66193791 Z" id="path108"></path>
                        <path d="M88.640559,0.226699069 C92.0842346,0.226699069 94.7403527,0.627294096 96.6089138,1.42848415 C98.4774745,2.22967113 99.4117547,3.34437007 99.4117547,4.77257482 C99.4117547,5.81760546 99.0017934,6.67648655 98.1818709,7.34595743 C97.361948,8.01651827 96.1795328,8.53903206 94.634626,8.91350185 C93.8578568,9.09638152 92.9429959,9.23571812 91.8900424,9.33151472 C90.8370889,9.42730825 89.7366662,9.47520502 88.5887744,9.47520502 C87.7256975,9.47520502 86.743948,9.43166194 85.6435255,9.3445758 C84.5431027,9.25748966 83.6692377,9.1355709 83.0219302,8.97881646 C82.2106379,8.78722633 81.4964421,8.56951405 80.8793423,8.32567346 C80.2622429,8.08183288 79.7249778,7.79009553 79.2675471,7.45046142 C78.3181628,6.76248273 77.8434707,5.89598115 77.8434707,4.85095358 C77.8434707,3.39662053 78.7906973,2.26232997 80.6851504,1.44807884 C82.5796033,0.633824636 85.2141448,0.226699069 88.5887744,0.226699069 L88.640559,0.226699069 L88.640559,0.226699069 Z M88.640559,7.39821096 C90.0214814,7.39821096 91.0895389,7.20662083 91.8447309,6.82344365 C92.5999227,6.44026646 92.9775187,5.7435804 92.9775187,4.73338544 C92.9775187,4.2979578 92.8847382,3.93002161 92.6991766,3.62957381 C92.5136153,3.32912907 92.213696,3.08311164 91.7994194,2.89152459 C91.4714499,2.73477014 91.0701195,2.59978724 90.5954274,2.48657587 C89.9222278,2.32111097 89.2706046,2.23838159 88.640559,2.23838159 C88.0364052,2.23838159 87.3761517,2.32546466 86.6597981,2.49963695 C86.1074289,2.63026616 85.7017829,2.76524907 85.4428598,2.90458567 C84.666091,3.29647331 84.2777065,3.9496163 84.2777065,4.86401466 C84.2777065,5.75229085 84.6617757,6.40107709 85.4299136,6.81038257 C86.2239443,7.2033571 87.2941594,7.39821096 88.640559,7.39821096 L88.640559,7.39821096 Z" id="path110"></path>
                        <path d="M113.088386,7.94684997 L109.417347,7.94684997 L108.405937,9.47520502 L101.862994,9.47520502 L109.65459,0.226699069 L116.647047,0.226699069 L124.451129,9.47520502 L117.745862,9.47520502 L116.721966,7.94684997 L113.088386,7.94684997 L113.088386,7.94684997 Z M113.088386,2.61720201 L110.803352,5.9482316 L115.373423,5.9482316 L113.088386,2.61720201 Z" id="path112"></path>
                    </g>
                    <path d="M95.7421875,39.8619485 C95.7421875,41.7412893 94.1629388,43.2647978 92.2148438,43.2647978 C90.2667445,43.2647978 88.6875,41.7412893 88.6875,39.8619485 C88.6875,37.9826077 90.2667445,36.4590993 92.2148438,36.4590993 C94.1629388,36.4590993 95.7421875,37.9826077 95.7421875,39.8619485 Z" id="path4040"></path>
                </g>
            </g>
        </g>
    </g>
</svg>