<?xml version="1.0" encoding="UTF-8"?>
<svg width="39px" height="23px" viewBox="0 0 39 23" version="1.1" xmlns="http://www.w3.org/2000/svg" xmlns:xlink="http://www.w3.org/1999/xlink">
    <title>logo</title>
    <defs>
        <polygon id="path-1" points="0 0.398045455 38.96074 0.398045455 38.96074 8.94863186 0 8.94863186"></polygon>
    </defs>
    <g id="Symbols" stroke="none" stroke-width="1" fill="none" fill-rule="evenodd">
        <g id="header" transform="translate(-11.000000, -9.000000)">
            <g id="logo" transform="translate(11.000000, 9.000000)">
                <path d="M8,15.6838151 L16.663503,23 L32,12 C32,12 29.3045729,13.3046845 27.106126,13.63697 C27.106126,13.63697 24.6194996,14.0029901 21.4788611,13.4067316 C18.11044,12.7674615 12.3183779,12.4604769 8,15.6838151" id="Fill-1" fill="#FFFFFF"></path>
                <path d="M36,9.11671777 C36,9.11671777 33.0646989,11.5781956 28.7011358,12.4334331 C24.3375727,13.289525 20.0776186,11.344949 16.0257385,11.4226978 C11.9738585,11.5004467 8.49311205,13.0297925 6.23340973,15 L2,11.3714348 C2,11.3714348 6.23340973,8.07949665 12.6751454,8.00174778 C19.1168812,7.92399892 20.8568263,10.46408 27.1170323,10.8528243 C27.1170323,10.8528243 33.1683079,11.059585 36,9.11671777" id="Fill-3" fill="#FFFFFF"></path>
                <g id="Group-7">
                    <mask id="mask-2" fill="white">
                        <use xlink:href="#path-1"></use>
                    </mask>
                    <g id="Clip-6"></g>
                    <path d="M38.96074,5.93304545 C38.96074,5.93304545 34.8856733,8.46531818 31.17894,8.88668182 C27.4722067,9.30886364 22.0832733,7.4475 20.4790733,7.09977273 C18.87574,6.75204545 14.40634,4.44477273 5.99360667,7.02531818 L-0.00026,1.96159091 C-0.00026,1.96159091 3.83820667,0.398045455 9.28000667,0.398045455 C14.7218067,0.398045455 19.58554,2.93031818 22.0564067,3.99722727 C24.52814,5.06413636 28.81294,7.89340909 38.96074,5.93304545" id="Fill-5" fill="#FFFFFF" mask="url(#mask-2)"></path>
                </g>
            </g>
        </g>
    </g>
</svg>