<?xml version="1.0" encoding="UTF-8"?>
<svg width="23px" height="22px" viewBox="0 0 23 22" version="1.1" xmlns="http://www.w3.org/2000/svg" xmlns:xlink="http://www.w3.org/1999/xlink">
    <title>icon_selected_ship</title>
    <g id="Page-1" stroke="none" stroke-width="1" fill="none" fill-rule="evenodd">
        <g id="Apple-TV" transform="translate(-494.000000, -91.000000)" fill="#FFFFFF" fill-rule="nonzero">
            <g id="icon_selected_ship" transform="translate(494.222222, 91.000000)">
                <path d="M11,1.71875 C5.87425781,1.71875 1.71875,5.87425781 1.71875,11 C1.71875,16.1257422 5.87425781,20.28125 11,20.28125 C16.1257422,20.28125 20.28125,16.1257422 20.28125,11 C20.28125,5.87425781 16.1257422,1.71875 11,1.71875 Z M15.6182813,15.6182813 C13.4150081,17.8215449 9.96218449,18.1616105 7.37141905,16.4305075 C4.78065361,14.6994045 3.77351056,11.3792692 4.96591828,8.50056337 C6.158326,5.62185758 9.21818236,3.98634091 12.2742017,4.59422989 C15.330221,5.20211887 17.5312986,7.88410796 17.5312986,11 C17.5360017,12.733136 16.8471598,14.3961353 15.6182813,15.6182812 L15.6182813,15.6182813 Z" id="Shape" opacity="0.4"></path>
                <path d="M11,9.625 C10.2406085,9.625 9.625,10.2406085 9.625,11 C9.625,11.7593915 10.2406085,12.375 11,12.375 C11.7593915,12.375 12.375,11.7593915 12.375,11 C12.375,10.2406085 11.7593915,9.625 11,9.625 Z M11.6875,15.125 L10.3125,15.125 C9.93280423,15.125 9.625,15.4328042 9.625,15.8125 L9.625,21.3125 C9.625,21.6921958 9.93280423,22 10.3125,22 L11.6875,22 C12.0671958,22 12.375,21.6921958 12.375,21.3125 L12.375,15.8125 C12.375,15.4328042 12.0671958,15.125 11.6875,15.125 Z M6.1875,9.625 L0.6875,9.625 C0.307804234,9.625 0,9.93280423 0,10.3125 L0,11.6875 C0,12.0671958 0.307804234,12.375 0.6875,12.375 L6.1875,12.375 C6.56719577,12.375 6.875,12.0671958 6.875,11.6875 L6.875,10.3125 C6.875,9.93280423 6.56719577,9.625 6.1875,9.625 Z M21.3125,9.625 L15.8125,9.625 C15.4328042,9.625 15.125,9.93280423 15.125,10.3125 L15.125,11.6875 C15.125,12.0671958 15.4328042,12.375 15.8125,12.375 L21.3125,12.375 C21.6921958,12.375 22,12.0671958 22,11.6875 L22,10.3125 C22,9.93280423 21.6921958,9.625 21.3125,9.625 Z M11.6875,0 L10.3125,0 C9.93280423,0 9.625,0.307804234 9.625,0.6875 L9.625,6.1875 C9.625,6.56719577 9.93280423,6.875 10.3125,6.875 L11.6875,6.875 C12.0671958,6.875 12.375,6.56719577 12.375,6.1875 L12.375,0.6875 C12.375,0.307804234 12.0671958,0 11.6875,0 Z" id="Shape"></path>
            </g>
        </g>
    </g>
</svg>