<?xml version="1.0" encoding="UTF-8"?>
<svg width="17px" height="16px" viewBox="0 0 17 16" version="1.1" xmlns="http://www.w3.org/2000/svg" xmlns:xlink="http://www.w3.org/1999/xlink">
    <title>icon_water_deep</title>
    <g id="Page-1" stroke="none" stroke-width="1" fill="none" fill-rule="evenodd">
        <g id="Apple-TV" transform="translate(-136.000000, -622.000000)" fill="#FFFFFF">
            <g id="icon_water_deep" transform="translate(136.000000, 622.000000)">
                <path d="M16.5921,8.9708 C15.9581,8.8998 15.3501,8.6608 14.8831,8.2948 C14.4671,7.9668 13.8741,7.9618 13.4601,8.2948 C12.3421,9.1928 10.2961,9.1928 9.1601,8.2508 C8.7611,7.9198 8.1861,7.9818 7.7811,8.3038 C6.6591,9.1928 4.6261,9.1898 3.4951,8.2538 C3.0961,7.9228 2.5121,7.9908 2.1051,8.3128 C1.6471,8.6728 1.0421,8.9058 0.4011,8.9738 C0.1681,8.9978 0.0001,9.2038 0.0001,9.4368 L0.0001,10.3878 C0.0001,10.6558 0.2241,10.8838 0.4931,10.8598 C1.3431,10.7858 2.1491,10.5238 2.8361,10.0958 C4.5041,11.1168 6.8811,11.1018 8.5041,10.0958 C10.1721,11.1168 12.5481,11.1018 14.1721,10.0958 C14.8601,10.5148 15.6741,10.7828 16.5071,10.8568 C16.7751,10.8808 17.0001389,10.6528 17.0001389,10.3848 L17.0001389,9.4518 C17.0031,9.2158 16.8321,8.9978 16.5921,8.9708 L16.5921,8.9708 Z M16.5921,13.2218 C15.9581,13.1508 15.3501,12.9118 14.8831,12.5458 C14.4671,12.2178 13.8741,12.2118 13.4601,12.5458 C12.3421,13.4428 10.2961,13.4428 9.1601,12.5018 C8.7611,12.1708 8.1861,12.2328 7.7811,12.5538 C6.6591,13.4428 4.6261,13.4398 3.4951,12.5048 C3.0961,12.1738 2.5121,12.2418 2.1051,12.5638 C1.6471,12.9228 1.0421,13.1568 0.4011,13.2248 C0.1681,13.2478 0.0001,13.4548 0.0001,13.6878 L0.0001,14.6388 C0.0001,14.9068 0.2241,15.1338 0.4931,15.1108 C1.3431,15.0368 2.1491,14.7748 2.8361,14.3458 C4.5041,15.3678 6.8811,15.3528 8.5041,14.3458 C10.1721,15.3678 12.5481,15.3528 14.1721,14.3458 C14.8601,14.7648 15.6741,15.0338 16.5071,15.1078 C16.7751,15.1318 17.0001389,14.9038 17.0001389,14.6348 L17.0001389,13.7028 C17.0031,13.4658 16.8321,13.2478 16.5921,13.2218 L16.5921,13.2218 Z" id="Fill-1" opacity="0.4"></path>
                <path d="M8.1471,6.4648 C8.3421,6.6598 8.6611,6.6598 8.8551,6.4648 L11.7011,3.6398 C12.0001,3.3408 11.7901,2.8308 11.3681,2.8308 L9.4461,2.8308 L9.4461,0.4718 C9.4461,0.2128 9.2331,-0.0002 8.9741,-0.0002 L8.0291,-0.0002 C7.7691,-0.0002 7.5571,0.2128 7.5571,0.4718 L7.5571,2.8338 L5.6321,2.8338 C5.2101,2.8338 5.0011,3.3438 5.3011,3.6428 L8.1471,6.4648 Z" id="Path"></path>
            </g>
        </g>
    </g>
</svg>