<?xml version="1.0" encoding="UTF-8"?>
<svg width="20px" height="20px" viewBox="0 0 20 20" version="1.1" xmlns="http://www.w3.org/2000/svg" xmlns:xlink="http://www.w3.org/1999/xlink">
    <title>icon_taiwan_sea</title>
    <g id="Page-1" stroke="none" stroke-width="1" fill="none" fill-rule="evenodd">
        <g id="Apple-TV" transform="translate(-221.000000, -364.000000)" fill="#FFFFFF">
            <g id="icon_taiwan_sea" transform="translate(221.000000, 364.000000)">
                <path d="M13.436,7.1055 C13.18,7.1055 12.924,7.0075 12.729,6.8125 C12.338,6.4215 12.338,5.7895 12.729,5.3985 L14.195,3.9325 C14.585,3.5425 15.218,3.5425 15.609,3.9325 C15.999,4.3235 15.999,4.9565 15.609,5.3465 L14.143,6.8125 C13.948,7.0075 13.692,7.1055 13.436,7.1055 M9.038,11.5035 C8.782,11.5035 8.526,11.4065 8.331,11.2105 C7.94,10.8205 7.94,10.1875 8.331,9.7965 L9.796,8.3315 C10.187,7.9405 10.82,7.9405 11.21,8.3315 C11.601,8.7215 11.601,9.3545 11.21,9.7455 L9.745,11.2105 C9.549,11.4065 9.293,11.5035 9.038,11.5035 M4.639,15.9025 C4.383,15.9025 4.127,15.8045 3.932,15.6095 C3.541,15.2185 3.541,14.5855 3.932,14.1955 L5.398,12.7295 C5.789,12.3385 6.422,12.3385 6.812,12.7295 C7.203,13.1195 7.203,13.7525 6.812,14.1435 L5.346,15.6095 C5.151,15.8045 4.895,15.9025 4.639,15.9025" id="Fill-4"></path>
                <path d="M1,19.5415 C0.744,19.5415 0.488,19.4435 0.293,19.2485 C-0.098,18.8575 -0.098,18.2255 0.293,17.8345 L1,17.1275 C1.391,16.7365 2.023,16.7365 2.414,17.1275 C2.805,17.5185 2.805,18.1505 2.414,18.5415 L1.707,19.2485 C1.512,19.4435 1.256,19.5415 1,19.5415" id="Fill-1"></path>
                <path d="M17.8345,2.707 C17.5785,2.707 17.3225,2.609 17.1275,2.414 C16.7365,2.023 16.7365,1.391 17.1275,1 L17.8345,0.293 C18.2255,-0.098 18.8575,-0.098 19.2485,0.293 C19.6395,0.684 19.6395,1.316 19.2485,1.707 L18.5415,2.414 C18.3465,2.609 18.0905,2.707 17.8345,2.707" id="Fill-6"></path>
            </g>
        </g>
    </g>
</svg>