<?xml version="1.0" encoding="UTF-8"?>
<svg width="18px" height="24px" viewBox="0 0 18 24" version="1.1" xmlns="http://www.w3.org/2000/svg" xmlns:xlink="http://www.w3.org/1999/xlink">
    <title>icon_ship_latitude_longitude</title>
    <g id="Page-1" stroke="none" stroke-width="1" fill="none" fill-rule="evenodd">
        <g id="Apple-TV" transform="translate(-994.000000, -632.000000)" fill="#FFFFFF" fill-rule="nonzero">
            <g id="icon_ship_latitude_longitude" transform="translate(994.000000, 632.000000)">
                <path d="M8.98245614,0 C4.02339181,0 0,4.02339181 0,8.98245614 C0,12.6039766 1.26315789,13.6140351 8.0594152,23.4699415 C8.26915158,23.7727703 8.61408862,23.9534591 8.98245614,23.9534591 C9.35082366,23.9534591 9.6957607,23.7727703 9.90549708,23.4699415 C16.7017544,13.6140351 17.9649123,12.6039766 17.9649123,8.98245614 C17.9649123,4.02339181 13.9415205,0 8.98245614,0 Z M8.98245614,13.4736842 C6.50201937,13.4736842 4.49122807,11.4628929 4.49122807,8.98245614 C4.49122807,6.50201937 6.50201937,4.49122807 8.98245614,4.49122807 C11.4628929,4.49122807 13.4736842,6.50201937 13.4736842,8.98245614 C13.4736842,10.1736039 13.0005026,11.3159653 12.158234,12.158234 C11.3159653,13.0005026 10.1736039,13.4736842 8.98245614,13.4736842 Z" id="Shape" opacity="0.4"></path>
                <path d="M8.98245614,11.9766082 C7.32883163,11.9766082 5.98830409,10.6360807 5.98830409,8.98245614 C5.98830409,7.32883163 7.32883163,5.98830409 8.98245614,5.98830409 C10.6360807,5.98830409 11.9766082,7.32883163 11.9766082,8.98245614 C11.9766082,10.6360807 10.6360807,11.9766082 8.98245614,11.9766082 L8.98245614,11.9766082 Z" id="Path"></path>
            </g>
        </g>
    </g>
</svg>