<?xml version="1.0" encoding="UTF-8"?>
<svg width="25px" height="22px" viewBox="0 0 25 22" version="1.1" xmlns="http://www.w3.org/2000/svg" xmlns:xlink="http://www.w3.org/1999/xlink">
    <title>icon_epic</title>
    <g id="Page-1" stroke="none" stroke-width="1" fill="none" fill-rule="evenodd">
        <g id="Apple-TV" transform="translate(-657.000000, -648.000000)" fill="#FFFFFF" fill-rule="nonzero">
            <g id="icon_epic" transform="translate(657.000000, 648.000000)">
                <path d="M24.3205768,18.7896014 L14.0742655,1.02488735 C13.2868104,-0.341629116 11.3117671,-0.341629116 10.5230308,1.02488735 L0.276719584,18.7896014 C-0.509881456,20.1535556 0.474864471,21.8642634 2.05190988,21.8642634 L22.5449594,21.8642634 C24.1194426,21.8642634 25.10974,20.1561179 24.3205768,18.7896014 Z M12.2986482,19.1312305 C11.543942,19.1312305 10.9321317,18.5194202 10.9321317,17.764714 C10.9321317,17.0100078 11.543942,16.3981976 12.2986482,16.3981976 C13.0533544,16.3981976 13.6651646,17.0100078 13.6651646,17.764714 C13.6651646,18.5194202 13.0533544,19.1312305 12.2986482,19.1312305 Z M13.9316354,8.95025581 L13.3850288,14.4163217 C13.3501436,14.7656297 13.0562325,15.0316811 12.7051868,15.0316811 L11.8938177,15.0316811 C11.542772,15.0316811 11.2488609,14.7656297 11.2139757,14.4163217 L10.6673692,8.95025581 C10.6482168,8.75848795 10.7109422,8.56754987 10.8400863,8.42449914 C10.9692305,8.28144841 11.1527817,8.19959018 11.3455029,8.19909879 L13.2517934,8.19909879 C13.4448123,8.19909879 13.6288222,8.2807578 13.7583446,8.42386702 C13.887867,8.56697624 13.9508166,8.75819233 13.9316354,8.95025581 L13.9316354,8.95025581 Z" id="Shape" opacity="0.4"></path>
                <path d="M13.2517934,8.19909879 L11.3455029,8.19909879 C11.152484,8.19909879 10.9684742,8.2807578 10.8389518,8.42386702 C10.7094294,8.56697624 10.6464798,8.75819233 10.665661,8.95025581 L11.2122676,14.4163217 C11.2471528,14.7656297 11.5410639,15.0316811 11.8921095,15.0316811 L12.7034787,15.0316811 C13.0545243,15.0316811 13.3484355,14.7656297 13.3833206,14.4163217 L13.9299272,8.95025581 C13.9490796,8.75848795 13.8863542,8.56754987 13.75721,8.42449914 C13.6280659,8.28144841 13.4445147,8.19959018 13.2517934,8.19909879 Z M12.2986482,16.3981976 C11.543942,16.3981976 10.9321317,17.0100078 10.9321317,17.764714 C10.9321317,18.5194202 11.543942,19.1312305 12.2986482,19.1312305 C13.0533544,19.1312305 13.6651646,18.5194202 13.6651646,17.764714 C13.6651646,17.0100078 13.0533544,16.3981976 12.2986482,16.3981976 Z" id="Shape"></path>
            </g>
        </g>
    </g>
</svg>