<?xml version="1.0" encoding="UTF-8"?>
<svg width="31px" height="19px" viewBox="0 0 31 19" version="1.1" xmlns="http://www.w3.org/2000/svg" xmlns:xlink="http://www.w3.org/1999/xlink">
    <title>icon_full_big</title>
    <defs>
        <polygon id="path-1" points="0 0.0006 20.5718 0.0006 20.5718 18.0012 0 18.0012"></polygon>
        <polygon id="path-3" points="0 0.0006 20.5715 0.0006 20.5715 11.0012 0 11.0012"></polygon>
        <polygon id="path-5" points="0.78144 0.867297801 12.7812 0.867297801 12.7812 9.42953015 0.78144 9.42953015"></polygon>
    </defs>
    <g id="Page-1" stroke="none" stroke-width="1" fill="none" fill-rule="evenodd">
        <g id="Apple-TV" transform="translate(-776.000000, -402.000000)">
            <g id="icon_full_big" transform="translate(776.000000, 402.000000)">
                <g id="Group-3">
                    <mask id="mask-2" fill="white">
                        <use xlink:href="#path-1"></use>
                    </mask>
                    <g id="Clip-2"></g>
                    <path d="M18.6428,3.3756 C18.6428,3.6406 18.4258,3.8576 18.1608,3.8576 L6.9108,3.8576 C6.6458,3.8576 6.4278,3.6406 6.4278,3.3756 L6.4278,2.4106 C6.4278,2.1466 6.6458,1.9286 6.9108,1.9286 L18.1608,1.9286 C18.4258,1.9286 18.6428,2.1466 18.6428,2.4106 L18.6428,3.3756 Z M18.6428,15.8306 C18.6428,15.9636 18.5348,16.0716 18.4018,16.0716 L2.1688,16.0716 C2.0378,16.0716 1.9278,15.9636 1.9278,15.8306 L1.9278,5.4646 L18.6428,5.4646 L18.6428,15.8306 Z M1.9278,2.4106 C1.9278,2.1466 2.1458,1.9286 2.4108,1.9286 L4.0178,1.9286 C4.2828,1.9286 4.4998,2.1466 4.4998,2.4106 L4.4998,3.3756 C4.4998,3.6406 4.2828,3.8576 4.0178,3.8576 L2.4108,3.8576 C2.1458,3.8576 1.9278,3.6406 1.9278,3.3756 L1.9278,2.4106 Z M18.6428,0.0006 L1.9278,0.0006 C0.8648,0.0006 -0.0002,0.8636 -0.0002,1.9286 L-0.0002,16.0716 C-0.0002,17.1376 0.8648,18.0016 1.9278,18.0016 L18.6428,18.0016 C19.7068,18.0016 20.5718,17.1376 20.5718,16.0716 L20.5718,1.9286 C20.5718,0.8636 19.7068,0.0006 18.6428,0.0006 L18.6428,0.0006 Z" id="Fill-1" fill="#FEFEFE" mask="url(#mask-2)"></path>
                </g>
                <g id="Group-3" opacity="0.40297154" transform="translate(0.000000, 7.000000)">
                    <mask id="mask-4" fill="white">
                        <use xlink:href="#path-3"></use>
                    </mask>
                    <g id="Clip-2"></g>
                    <path d="M18.6435,3.3756 C18.6435,3.6416 18.4255,3.8576 18.1615,3.8576 L6.9115,3.8576 C6.6455,3.8576 6.4285,3.6416 6.4285,3.3756 L6.4285,2.4106 C6.4285,2.1466 6.6455,1.9286 6.9115,1.9286 L18.1615,1.9286 C18.4255,1.9286 18.6435,2.1466 18.6435,2.4106 L18.6435,3.3756 Z M18.6435,8.8306 C18.6435,8.9636 18.5345,9.0716 18.4025,9.0716 L2.1695,9.0716 C2.0385,9.0716 1.9285,8.9636 1.9285,8.8306 L1.9285,5.4646 L18.6435,5.4646 L18.6435,8.8306 Z M1.9285,2.4106 C1.9285,2.1466 2.1455,1.9286 2.4115,1.9286 L4.0175,1.9286 C4.2835,1.9286 4.4995,2.1466 4.4995,2.4106 L4.4995,3.3756 C4.4995,3.6416 4.2835,3.8576 4.0175,3.8576 L2.4115,3.8576 C2.1455,3.8576 1.9285,3.6416 1.9285,3.3756 L1.9285,2.4106 Z M18.6435,0.0006 L1.9285,0.0006 C0.8645,0.0006 -0.0005,0.8636 -0.0005,1.9286 L-0.0005,9.0716 C-0.0005,10.1376 0.8645,11.0016 1.9285,11.0016 L18.6435,11.0016 C19.7075,11.0016 20.5715,10.1376 20.5715,9.0716 L20.5715,1.9286 C20.5715,0.8636 19.7075,0.0006 18.6435,0.0006 L18.6435,0.0006 Z" id="Fill-1" fill="#FEFEFE" mask="url(#mask-4)"></path>
                </g>
                <g id="Group-6" transform="translate(26.000000, 11.800000) scale(1, -1) rotate(-270.000000) translate(-26.000000, -11.800000) translate(19.400000, 7.000000)">
                    <mask id="mask-6" fill="white">
                        <use xlink:href="#path-5"></use>
                    </mask>
                    <g id="Clip-5"></g>
                    <path d="M0.78144,6.1782 L0.78144,4.1214 C0.78144,3.8358 1.01064,3.6066 1.29624,3.6066 L7.98144,3.6066 L7.98144,1.383 C7.98144,0.9246 8.53344,0.6954 8.85864,1.0182 L12.63024,4.785 C12.83184,4.9866 12.83184,5.313 12.63024,5.5134 L8.85864,9.2778 C8.53584,9.6018 7.98144,9.3726 7.98144,8.9142 L7.98144,6.6918 L1.29624,6.6918 C1.01064,6.6918 0.78144,6.4626 0.78144,6.1782" id="Fill-4" fill="#FFFFFF" mask="url(#mask-6)"></path>
                </g>
            </g>
        </g>
    </g>
</svg>