<?xml version="1.0" encoding="UTF-8"?>
<svg width="18px" height="16px" viewBox="0 0 18 16" version="1.1" xmlns="http://www.w3.org/2000/svg" xmlns:xlink="http://www.w3.org/1999/xlink">
    <title>icon_wind</title>
    <g id="Page-1" stroke="none" stroke-width="1" fill="none" fill-rule="evenodd">
        <g id="Apple-TV" transform="translate(-223.000000, -624.000000)" fill="#FFFFFF" fill-rule="nonzero">
            <g id="icon_wind" transform="translate(223.000000, 624.000000)">
                <path d="M17.8919005,12.9106275 C17.5601242,14.3117815 16.3885394,15.4333865 14.9650119,15.7299811 C12.9294263,16.1561228 11.1081129,14.9901991 10.4932901,13.2651774 C10.365418,12.9140367 10.6453542,12.5458502 11.0217129,12.5458502 L12.1898418,12.5458502 C12.3902899,12.5458502 12.5907381,12.6344877 12.6909621,12.8049444 C13.0889567,13.4958316 13.9331194,13.804107 14.6912392,13.5354151 C15.4493589,13.2667233 15.9016015,12.4989775 15.762846,11.7162112 C15.6240904,10.9334448 14.934572,10.3626388 14.1290048,10.3636637 L10.1027618,10.3636637 C9.87982791,9.51533856 9.40000072,8.75422104 8.72727273,8.18181818 L14.1290048,8.18181818 C16.5647955,8.18181818 18.4835681,10.4148008 17.8919005,12.9106275 L17.8919005,12.9106275 Z" id="Path" opacity="0.4"></path>
                <path d="M5.53439695,7.89449465 L0.564878485,7.89449465 C0.252904712,7.89449465 0,8.14690833 0,8.45827639 L0,9.58583985 C0,9.8972079 0.252904712,10.1496216 0.564878485,10.1496216 L5.58735431,10.1496216 C6.14870231,10.1496216 6.67509844,10.5336979 6.7668912,11.0869087 C6.86293648,11.6673722 6.49653128,12.2242312 5.92466148,12.366921 C5.35279167,12.5096109 4.76693192,12.190356 4.57798707,11.6330723 C4.50349372,11.4110832 4.27401184,11.277185 4.04099946,11.277185 L2.88193942,11.277185 C2.53595135,11.277185 2.25668955,11.587265 2.32023838,11.925534 C2.63958748,13.7521947 4.37283271,14.9817878 6.20632035,14.6823855 C8.03980799,14.3829832 9.29004573,12.6661973 9.00945878,10.8332069 C8.79409886,9.12776719 7.25409889,7.89449465 5.53439695,7.89449465 L5.53439695,7.89449465 Z M15.7399859,2.65414346 C15.4716686,1.37823493 14.4368819,0.345457272 13.1588443,0.0776609497 C12.2664474,-0.116304372 11.3333862,0.0565429263 10.5701688,0.557206724 C9.80695136,1.05787052 9.27787714,1.844171 9.10231068,2.73871072 C9.03523136,3.07697976 9.31767061,3.38353608 9.66012819,3.38353608 L10.8181291,3.38353608 C11.0546719,3.38353608 11.2806233,3.24963792 11.3547636,3.02764886 C11.5313804,2.45489156 12.1260389,2.12007822 12.7085463,2.26542232 C13.2910537,2.41076641 13.6578866,2.98548591 13.5436678,3.57381241 C13.4511689,4.1273756 12.9293624,4.51180427 12.3644839,4.51180427 L0.564878485,4.51180427 C0.252904712,4.51180427 0,4.76421795 0,5.075586 L0,6.20314946 C0,6.51451751 0.252904712,6.76693119 0.564878485,6.76693119 L12.4273267,6.76693119 C13.4543267,6.76526923 14.4254202,6.29988862 15.0688795,5.50101033 C15.7123388,4.70213203 15.9590524,3.65556058 15.7399859,2.65414346 Z" id="Shape"></path>
            </g>
        </g>
    </g>
</svg>