<?xml version="1.0" encoding="UTF-8"?>
<svg width="28px" height="18px" viewBox="0 0 28 18" version="1.1" xmlns="http://www.w3.org/2000/svg" xmlns:xlink="http://www.w3.org/1999/xlink">
    <title>icon_unfold_big</title>
    <defs>
        <polygon id="path-1" points="0 0 20.57148 0 20.57148 18 0 18"></polygon>
        <polygon id="path-3" points="0.78144 0.867297801 12.7812 0.867297801 12.7812 9.42953015 0.78144 9.42953015"></polygon>
        <polygon id="path-5" points="0 0 14.57148 0 14.57148 18 0 18"></polygon>
    </defs>
    <g id="Page-1" stroke="none" stroke-width="1" fill="none" fill-rule="evenodd">
        <g id="Apple-TV" transform="translate(-739.000000, -326.000000)">
            <g id="icon_unfold_big" transform="translate(739.000000, 326.000000)">
                <g id="Group-3">
                    <mask id="mask-2" fill="white">
                        <use xlink:href="#path-1"></use>
                    </mask>
                    <g id="Clip-2"></g>
                    <path d="M18.64308,3.37512 C18.64308,3.64032 18.42588,3.85752 18.16068,3.85752 L6.91068,3.85752 C6.64548,3.85752 6.42828,3.64032 6.42828,3.37512 L6.42828,2.41032 C6.42828,2.14632 6.64548,1.92792 6.91068,1.92792 L18.16068,1.92792 C18.42588,1.92792 18.64308,2.14632 18.64308,2.41032 L18.64308,3.37512 Z M18.64308,15.82992 C18.64308,15.96312 18.53388,16.07112 18.40188,16.07112 L2.16948,16.07112 C2.03748,16.07112 1.92828,15.96312 1.92828,15.82992 L1.92828,5.46432 L18.64308,5.46432 L18.64308,15.82992 Z M1.92828,2.41032 C1.92828,2.14632 2.14548,1.92792 2.41068,1.92792 L4.01748,1.92792 C4.28268,1.92792 4.49988,2.14632 4.49988,2.41032 L4.49988,3.37512 C4.49988,3.64032 4.28268,3.85752 4.01748,3.85752 L2.41068,3.85752 C2.14548,3.85752 1.92828,3.64032 1.92828,3.37512 L1.92828,2.41032 Z M18.64308,-0.00048 L1.92828,-0.00048 C0.86388,-0.00048 -0.00012,0.86352 -0.00012,1.92792 L-0.00012,16.07112 C-0.00012,17.13672 0.86388,18.00072 1.92828,18.00072 L18.64308,18.00072 C19.70748,18.00072 20.57148,17.13672 20.57148,16.07112 L20.57148,1.92792 C20.57148,0.86352 19.70748,-0.00048 18.64308,-0.00048 L18.64308,-0.00048 Z" id="Fill-1" fill="#FFFFFF" mask="url(#mask-2)"></path>
                </g>
                <g id="Group-6" transform="translate(14.400000, 7.200000)">
                    <mask id="mask-4" fill="white">
                        <use xlink:href="#path-3"></use>
                    </mask>
                    <g id="Clip-5"></g>
                    <path d="M0.78144,6.1782 L0.78144,4.1214 C0.78144,3.8358 1.01064,3.6066 1.29624,3.6066 L7.98144,3.6066 L7.98144,1.383 C7.98144,0.9246 8.53344,0.6954 8.85864,1.0182 L12.63024,4.785 C12.83184,4.9866 12.83184,5.313 12.63024,5.5134 L8.85864,9.2778 C8.53584,9.6018 7.98144,9.3726 7.98144,8.9142 L7.98144,6.6918 L1.29624,6.6918 C1.01064,6.6918 0.78144,6.4626 0.78144,6.1782" id="Fill-4" fill="#FFFFFF" mask="url(#mask-4)"></path>
                </g>
                <g id="Group-9">
                    <mask id="mask-6" fill="white">
                        <use xlink:href="#path-5"></use>
                    </mask>
                    <g id="Clip-8"></g>
                    <path d="M12.64308,3.37512 C12.64308,3.64032 12.42588,3.85752 12.16068,3.85752 L6.91068,3.85752 C6.64548,3.85752 6.42828,3.64032 6.42828,3.37512 L6.42828,2.41032 C6.42828,2.14632 6.64548,1.92792 6.91068,1.92792 L12.16068,1.92792 C12.42588,1.92792 12.64308,2.14632 12.64308,2.41032 L12.64308,3.37512 Z M12.64308,15.82992 C12.64308,15.96312 12.53388,16.07112 12.40188,16.07112 L2.16948,16.07112 C2.03748,16.07112 1.92828,15.96312 1.92828,15.82992 L1.92828,5.46432 L12.64308,5.46432 L12.64308,15.82992 Z M1.92828,2.41032 C1.92828,2.14632 2.14548,1.92792 2.41068,1.92792 L4.01868,1.92792 C4.28268,1.92792 4.49988,2.14632 4.49988,2.41032 L4.49988,3.37512 C4.49988,3.64032 4.28268,3.85752 4.01868,3.85752 L2.41068,3.85752 C2.14548,3.85752 1.92828,3.64032 1.92828,3.37512 L1.92828,2.41032 Z M12.64308,-0.00048 L1.92828,-0.00048 C0.86388,-0.00048 -0.00012,0.86352 -0.00012,1.92792 L-0.00012,16.07112 C-0.00012,17.13672 0.86388,18.00072 1.92828,18.00072 L12.64308,18.00072 C13.70748,18.00072 14.57148,17.13672 14.57148,16.07112 L14.57148,1.92792 C14.57148,0.86352 13.70748,-0.00048 12.64308,-0.00048 L12.64308,-0.00048 Z" id="Fill-7" fill="#FFFFFF" opacity="0.4" mask="url(#mask-6)"></path>
                </g>
            </g>
        </g>
    </g>
</svg>