<?xml version="1.0" encoding="UTF-8"?>
<svg width="14px" height="10px" viewBox="0 0 14 10" version="1.1" xmlns="http://www.w3.org/2000/svg" xmlns:xlink="http://www.w3.org/1999/xlink">
    <title>Path</title>
    <g id="Symbols" stroke="none" stroke-width="1" fill="none" fill-rule="evenodd">
        <g id="checkbox_text_on" transform="translate(-1.000000, -3.000000)" fill="#FFFFFF" fill-rule="nonzero">
            <path d="M14.0729197,3.15420185 C13.9709457,3.05523789 13.8325046,2.99974558 13.6882222,3 C13.5488882,3 13.4095543,3.0514012 13.3035246,3.15420185 L5.99834935,10.236903 L2.69715506,7.03624435 C2.59518109,6.93728039 2.45673995,6.88178807 2.31245752,6.88204337 C2.1731236,6.88204337 2.03378969,6.9334437 1.92775998,7.03624435 L1.15904457,7.78154906 C0.946985144,7.98715036 0.946985144,8.32125247 1.15904457,8.52685377 L5.61365181,12.845799 C5.71968152,12.9485997 5.85901544,13 5.99834935,13 C6.13768327,13 6.27633751,12.9485997 6.38236722,12.845799 L14.8409554,4.64481128 C15.0530149,4.43920998 15.0530149,4.10510786 14.8409554,3.89950656 L14.0729197,3.15420185 Z" id="Path"></path>
        </g>
    </g>
</svg>