<?xml version="1.0" encoding="UTF-8"?>
<svg width="23px" height="22px" viewBox="0 0 23 22" version="1.1" xmlns="http://www.w3.org/2000/svg" xmlns:xlink="http://www.w3.org/1999/xlink">
    <title>icon_info</title>
    <g id="Page-1" stroke="none" stroke-width="1" fill="none" fill-rule="evenodd">
        <g id="Apple-TV" transform="translate(-505.000000, -166.000000)" fill="#FFFFFF" fill-rule="nonzero">
            <g id="icon_info" transform="translate(505.250000, 166.000000)">
                <path d="M11,0 C4.9233871,0 0,4.92693548 0,11 C0,17.0730645 4.9233871,22 11,22 C17.0766129,22 22,17.0766129 22,11 C22,4.9233871 17.0766129,0 11,0 Z M11,4.87903226 C12.028853,4.87903226 12.8629032,5.71308244 12.8629032,6.74193548 C12.8629032,7.77078853 12.028853,8.60483871 11,8.60483871 C9.97114696,8.60483871 9.13709677,7.77078853 9.13709677,6.74193548 C9.13709677,5.71308244 9.97114696,4.87903226 11,4.87903226 Z M13.483871,16.1451613 C13.483871,16.4391193 13.2455709,16.6774194 12.9516129,16.6774194 L9.0483871,16.6774194 C8.75442908,16.6774194 8.51612903,16.4391193 8.51612903,16.1451613 L8.51612903,15.0806452 C8.51612903,14.7866871 8.75442908,14.5483871 9.0483871,14.5483871 L9.58064516,14.5483871 L9.58064516,11.7096774 L9.0483871,11.7096774 C8.75442908,11.7096774 8.51612903,11.4713774 8.51612903,11.1774194 L8.51612903,10.1129032 C8.51612903,9.81894521 8.75442908,9.58064516 9.0483871,9.58064516 L11.8870968,9.58064516 C12.1810548,9.58064516 12.4193548,9.81894521 12.4193548,10.1129032 L12.4193548,14.5483871 L12.9516129,14.5483871 C13.2455709,14.5483871 13.483871,14.7866871 13.483871,15.0806452 L13.483871,16.1451613 Z" id="Shape" opacity="0.4"></path>
                <path d="M11,8.60483871 C12.028853,8.60483871 12.8629032,7.77078853 12.8629032,6.74193548 C12.8629032,5.71308244 12.028853,4.87903226 11,4.87903226 C9.97114696,4.87903226 9.13709677,5.71308244 9.13709677,6.74193548 C9.13709677,7.77078853 9.97114696,8.60483871 11,8.60483871 Z M12.9516129,14.5483871 L12.4193548,14.5483871 L12.4193548,10.1129032 C12.4193548,9.81894521 12.1810548,9.58064516 11.8870968,9.58064516 L9.0483871,9.58064516 C8.75442908,9.58064516 8.51612903,9.81894521 8.51612903,10.1129032 L8.51612903,11.1774194 C8.51612903,11.4713774 8.75442908,11.7096774 9.0483871,11.7096774 L9.58064516,11.7096774 L9.58064516,14.5483871 L9.0483871,14.5483871 C8.75442908,14.5483871 8.51612903,14.7866871 8.51612903,15.0806452 L8.51612903,16.1451613 C8.51612903,16.4391193 8.75442908,16.6774194 9.0483871,16.6774194 L12.9516129,16.6774194 C13.2455709,16.6774194 13.483871,16.4391193 13.483871,16.1451613 L13.483871,15.0806452 C13.483871,14.7866871 13.2455709,14.5483871 12.9516129,14.5483871 Z" id="Shape"></path>
            </g>
        </g>
    </g>
</svg>