<?xml version="1.0" encoding="UTF-8"?>
<svg width="18px" height="15px" viewBox="0 0 18 15" version="1.1" xmlns="http://www.w3.org/2000/svg" xmlns:xlink="http://www.w3.org/1999/xlink">
    <title>icon_events</title>
    <g id="Page-1" stroke="none" stroke-width="1" fill="none" fill-rule="evenodd">
        <g id="Apple-TV" transform="translate(-1010.000000, -166.000000)" fill="#FFFFFF" fill-rule="nonzero">
            <g id="icon_events" transform="translate(1010.416667, 166.000000)">
                <path d="M16.2702546,13.1217773 C15.6472801,13.0514648 15.0512153,12.8138672 14.5940394,12.450293 C14.185523,12.121836 13.6073011,12.121836 13.1987847,12.450293 C12.1018519,13.3417969 10.0957755,13.3417969 8.98148148,12.4063477 C8.59085648,12.0779297 8.02662037,12.1394531 7.62991898,12.459082 C6.53038194,13.3417969 4.53587963,13.3379883 3.42708333,12.4092773 C3.03645833,12.0808594 2.46325231,12.1482422 2.06365741,12.4678711 C1.61516204,12.8255859 1.02199074,13.0573242 0.393518519,13.124707 C0.164930556,13.1481445 1.77635684e-15,13.3535156 1.77635684e-15,13.5852539 L1.77635684e-15,14.5294922 C1.77635684e-15,14.7963867 0.219907407,15.0219727 0.483217593,14.9982422 C1.31684028,14.925 2.10706019,14.6639648 2.7818287,14.2388672 C4.41724537,15.253418 6.74594907,15.2387695 8.33738426,14.2388672 C9.97251157,15.253418 12.3015046,15.2387695 13.8929398,14.2388672 C14.5895336,14.663985 15.3726922,14.9226901 16.1828704,14.9953125 C16.4461806,15.01875 16.6662712,14.7931641 16.6662712,14.5265625 L16.6662712,13.5999023 C16.6707176,13.3655273 16.5028935,13.1481445 16.2685185,13.1217773 L16.2702546,13.1217773 Z M4.62962963,3.75 L12.037037,3.75 L12.037037,6.31435547 L13.8888889,6.91728516 L13.8888889,2.8125 C13.8888889,2.29473305 13.4743377,1.875 12.962963,1.875 L11.1111111,1.875 L11.1111111,0.703125 C11.1111111,0.314799785 10.8001977,0 10.4166667,0 L6.25,0 C5.86646892,0 5.55555556,0.314799785 5.55555556,0.703125 L5.55555556,1.875 L3.7037037,1.875 C3.19232894,1.875 2.77777778,2.29473305 2.77777778,2.8125 L2.77777778,6.91728516 L4.62962963,6.31435547 L4.62962963,3.75 Z" id="Shape"></path>
                <path d="M15.6990741,8.49082031 C15.6538832,8.63251628 15.5761373,8.76133626 15.4722222,8.86669922 L12.7957176,11.4814453 C12.352705,11.9201302 11.7596691,12.1689355 11.1400463,12.1760742 L11.1255787,12.1760742 C10.5112847,12.1760742 9.9453125,11.9967773 9.57349537,11.6847656 C9.23594016,11.4003915 8.8097665,11.2463508 8.37065972,11.25 C7.8915906,11.2535598 7.42772125,11.420679 7.0541088,11.7243164 C6.6958912,12.0114258 6.15364583,12.1760742 5.56568287,12.1760742 L5.55092593,12.1760742 C4.91769433,12.1689393 4.31158297,11.9147752 3.8587963,11.4665039 L1.19675926,8.86669922 C0.968637662,8.63561622 0.875791149,8.30095198 0.951703492,7.98339839 C1.02761584,7.6658448 1.26133609,7.41121141 1.56857639,7.31132813 L8.05005787,5.20195313 C8.23425111,5.14189935 8.43241556,5.14189935 8.6166088,5.20195312 L15.0980903,7.31132813 C15.3319779,7.38725121 15.5264894,7.55415294 15.6388205,7.77530484 C15.7511517,7.99645673 15.7720975,8.25373661 15.6970486,8.49052734 L15.6970486,8.49052734 L15.6990741,8.49082031 Z" id="Path"></path>
            </g>
        </g>
    </g>
</svg>