<?xml version="1.0" encoding="UTF-8"?>
<svg width="17px" height="16px" viewBox="0 0 17 16" version="1.1" xmlns="http://www.w3.org/2000/svg" xmlns:xlink="http://www.w3.org/1999/xlink">
    <title>icon_5_mile</title>
    <defs>
        <polygon id="path-1" points="0.0001 0.294 16.99 0.294 16.99 11.6181305 0.0001 11.6181305"></polygon>
    </defs>
    <g id="Page-1" stroke="none" stroke-width="1" fill="none" fill-rule="evenodd">
        <g id="Apple-TV" transform="translate(-136.000000, -536.000000)">
            <g id="icon_5_mile" transform="translate(136.000000, 536.000000)">
                <g id="Group-3" transform="translate(0.000000, 0.706400)">
                    <mask id="mask-2" fill="white">
                        <use xlink:href="#path-1"></use>
                    </mask>
                    <g id="Clip-2"></g>
                    <path d="M16.7601,1.2339 C15.8901,1.1899 15.0581,0.8919 14.4541,0.3999 C14.2801,0.2579 14.0321,0.2579 13.8581,0.4019 C12.5701,1.4609 10.1131,1.4729 8.7911,0.3999 C8.6171,0.2579 8.3701,0.2579 8.1961,0.4019 C6.9071,1.4609 4.4501,1.4729 3.1291,0.3999 C2.9551,0.2579 2.7071,0.2609 2.5331,0.4019 C1.9381,0.8919 1.1061,1.1899 0.2271,1.2339 C0.1001,1.2399 0.0001,1.3399 0.0001,1.4669 L0.0001,1.9389 C0.0001,2.0719 0.1121,2.1839 0.2451,2.1779 C1.1971,2.1339 2.1121,1.8419 2.8341,1.3549 C4.4211,2.4199 6.9391,2.4109 8.4961,1.3549 C10.0801,2.4199 12.6021,2.4109 14.1591,1.3549 C14.8851,1.8419 15.7991,2.1339 16.7421,2.1779 C16.8751,2.1839 16.9881,2.0719 16.9881,1.9389 L16.9881,1.4669 C16.9881,1.3399 16.8871,1.2399 16.7601,1.2339 M16.7601,4.3809 C15.8901,4.3369 15.0581,4.0389 14.4541,3.5469 C14.2801,3.4049 14.0321,3.4049 13.8581,3.5489 C12.5701,4.6079 10.1131,4.6199 8.7911,3.5469 C8.6171,3.4049 8.3701,3.4049 8.1961,3.5489 C6.9071,4.6079 4.4501,4.6199 3.1291,3.5469 C2.9551,3.4049 2.7071,3.4079 2.5331,3.5489 C1.9371,4.0389 1.1061,4.3369 0.2271,4.3809 C0.1001,4.3869 0.0001,4.4869 0.0001,4.6139 L0.0001,5.0859 C0.0001,5.2179 0.1121,5.3309 0.2451,5.3249 C1.1971,5.2799 2.1121,4.9879 2.8341,4.5019 C4.4211,5.5669 6.9391,5.5579 8.4961,4.5019 C10.0801,5.5669 12.6021,5.5579 14.1591,4.5019 C14.8851,4.9879 15.7991,5.2799 16.7421,5.3249 C16.8751,5.3309 16.9881,5.2179 16.9881,5.0859 L16.9881,4.6139 C16.9881,4.4869 16.8871,4.3869 16.7601,4.3809 M16.7601,7.5279 C15.8901,7.4839 15.0581,7.1859 14.4541,6.6929 C14.2801,6.5509 14.0321,6.5509 13.8581,6.6959 C12.5701,7.7549 10.1131,7.7669 8.7911,6.6929 C8.6171,6.5509 8.3701,6.5509 8.1961,6.6959 C6.9071,7.7549 4.4501,7.7669 3.1291,6.6929 C2.9551,6.5509 2.7071,6.5539 2.5331,6.6959 C1.9371,7.1859 1.1091,7.4839 0.2301,7.5279 C0.1031,7.5339 0.0031,7.6339 0.0031,7.7609 L0.0031,8.2329 C0.0031,8.3649 0.1151,8.4779 0.2481,8.4709 C1.2001,8.4269 2.1141,8.1349 2.8371,7.6489 C4.4241,8.7129 6.9421,8.7049 8.4991,7.6489 C10.0831,8.7129 12.6051,8.7049 14.1621,7.6489 C14.8871,8.1349 15.8021,8.4269 16.7451,8.4709 C16.8781,8.4779 16.9901,8.3649 16.9901,8.2329 L16.9901,7.7609 C16.9881,7.6339 16.8871,7.5339 16.7601,7.5279 M16.7601,10.6739 C15.8901,10.6299 15.0581,10.3329 14.4541,9.8399 C14.2801,9.6979 14.0321,9.6979 13.8581,9.8429 C12.5701,10.9009 10.1131,10.9139 8.7911,9.8399 C8.6171,9.6979 8.3701,9.6979 8.1961,9.8429 C6.9071,10.9009 4.4501,10.9139 3.1291,9.8399 C2.9551,9.6979 2.7071,9.7009 2.5331,9.8429 C1.9371,10.3329 1.1061,10.6299 0.2271,10.6739 C0.1001,10.6799 0.0001,10.7809 0.0001,10.9069 L0.0001,11.3799 C0.0001,11.5119 0.1121,11.6239 0.2451,11.6179 C1.1971,11.5739 2.1121,11.2819 2.8341,10.7959 C4.4211,11.8599 6.9391,11.8509 8.4961,10.7959 C10.0801,11.8599 12.6021,11.8509 14.1591,10.7959 C14.8851,11.2819 15.7991,11.5739 16.7421,11.6179 C16.8751,11.6239 16.9881,11.5119 16.9881,11.3799 L16.9881,10.9069 C16.9881,10.7809 16.8871,10.6799 16.7601,10.6739" id="Fill-1" fill="#FFFFFF" opacity="0.4" mask="url(#mask-2)"></path>
                </g>
                <path d="M13.059,15.7064 C12.412,15.7064 11.751,15.5544 11.358,15.3384 C10.99,15.1474 10.85,14.7794 11.015,14.4364 C11.167,14.1194 11.523,14.0684 11.84,14.1704 C12.094,14.2714 12.488,14.4754 12.932,14.4624 C14.443,14.4364 15.166,13.5994 15.166,12.3424 C15.166,11.2374 14.506,10.7804 13.783,10.7804 C13.364,10.7804 12.932,10.8694 12.665,11.0214 C12.373,11.1864 11.993,11.3134 11.599,11.1864 C11.205,11.0474 11.04,10.7934 11.053,10.3234 C11.079,9.2194 11.129,8.1144 11.18,7.0224 C11.205,6.4384 11.561,6.1344 12.17,6.1344 L16.042,6.1344 C16.423,6.1344 16.652,6.3754 16.652,6.7304 C16.652,7.0994 16.423,7.3144 16.042,7.3144 L13.059,7.3144 C12.97,7.3144 12.907,7.3784 12.907,7.4674 C12.856,8.2164 12.805,9.0664 12.78,9.8154 C13.148,9.6634 13.681,9.6004 14.227,9.6004 C15.725,9.6004 16.906,10.5774 16.944,12.0754 C17.007,14.4114 15.585,15.6684 13.059,15.7064" id="Fill-4" fill="#FFFFFF"></path>
            </g>
        </g>
    </g>
</svg>