<?xml version="1.0" encoding="UTF-8"?>
<svg width="22px" height="22px" viewBox="0 0 22 22" version="1.1" xmlns="http://www.w3.org/2000/svg" xmlns:xlink="http://www.w3.org/1999/xlink">
    <title>icon_link</title>
    <g id="Page-1" stroke="none" stroke-width="1" fill="none" fill-rule="evenodd">
        <g id="Apple-TV" transform="translate(-927.000000, -851.000000)" fill="#FFFFFF" fill-rule="nonzero">
            <g id="icon_link" transform="translate(927.000000, 851.000000)">
                <path d="M1.94533074,10.8540467 L3.5336965,9.26610895 C3.95486381,8.84494163 4.67992218,9.12486381 4.70175097,9.71980545 C4.72938569,10.4881542 4.8691098,11.2483457 5.11649805,11.9763035 C5.20283174,12.2247289 5.14004244,12.5006364 4.95470817,12.6872374 L4.3944358,13.2475097 C3.19599222,14.4459533 3.15747082,16.4002724 4.34521401,17.6132685 C4.92147224,18.1998833 5.70809785,18.5321333 6.53039565,18.536232 C7.35269345,18.5403306 8.142592,18.2159385 8.72466926,17.6350973 L11.5992218,14.7575486 C12.8017531,13.5542288 12.8017531,11.604098 11.5992218,10.4007782 C11.4628668,10.2656281 11.3147605,10.1428746 11.1566537,10.0339689 C10.9776934,9.91144846 10.8673482,9.71139802 10.8591829,9.49466926 C10.8406184,9.01751142 11.0228772,8.55441264 11.3616732,8.21789883 L12.2630739,7.31906615 C12.4996816,7.08370014 12.8711639,7.05229201 13.14393,7.24459144 C14.7186039,8.34407989 15.7272378,10.0829501 15.8998278,11.9957192 C16.0724177,13.9084882 15.3913387,15.799822 14.0389105,17.1634241 L14.0235019,17.1792607 L11.1472374,20.0555253 C8.61038911,22.5923735 4.48303502,22.5919455 1.94490272,20.0555253 C-0.593229572,17.5191051 -0.59151751,13.3904669 1.94533074,10.8540467 Z" id="Path" opacity="0.4"></path>
                <path d="M17.6055642,8.75249027 C18.8040078,7.55404669 18.8425292,5.59972763 17.654786,4.38673152 C17.0784133,3.80023066 16.2917236,3.46813519 15.4694261,3.46419729 C14.6471285,3.46025939 13.8572943,3.78480505 13.2753307,4.36575875 L10.4007782,7.24245136 C9.19824685,8.4457712 9.19824685,10.395902 10.4007782,11.5992218 C10.5371332,11.7343719 10.6852395,11.8571254 10.8433463,11.9660311 C11.0221441,12.0886446 11.1323222,12.2886798 11.1403891,12.5053307 C11.1593312,12.9824695 10.9771908,13.4456619 10.6383268,13.7821012 L9.73692607,14.6830739 C9.50024045,14.9182716 9.12888459,14.949669 8.85607004,14.7575486 C7.28066305,13.6580991 6.27151158,11.918769 6.09890653,10.0054201 C5.92630148,8.09207122 6.60788045,6.2002187 7.96108949,4.83657588 L7.97649805,4.8207393 L10.8527626,1.94447471 C13.3896109,-0.592373541 17.516965,-0.591945525 20.0550973,1.94447471 C22.5932296,4.48089494 22.5919455,8.60867704 20.0550973,11.1468093 L18.4667315,12.7347471 C18.0455642,13.1559144 17.3205058,12.8759922 17.298677,12.2810506 C17.2710423,11.5127018 17.1313182,10.7525104 16.88393,10.0245525 C16.7975963,9.77612708 16.8603856,9.50021963 17.0457198,9.31361868 L17.6055642,8.75249027 Z" id="Path"></path>
            </g>
        </g>
    </g>
</svg>