<?xml version="1.0" encoding="UTF-8"?>
<svg width="18px" height="16px" viewBox="0 0 18 16" version="1.1" xmlns="http://www.w3.org/2000/svg" xmlns:xlink="http://www.w3.org/1999/xlink">
    <title>icon_routes</title>
    <g id="Page-1" stroke="none" stroke-width="1" fill="none" fill-rule="evenodd">
        <g id="Apple-TV" transform="translate(-816.000000, -166.000000)" fill="#FFFFFF" fill-rule="nonzero">
            <g id="icon_routes" transform="translate(816.750000, 166.000000)">
                <path d="M2.28261845,14.2662539 C1.96744124,14.2662539 1.7119683,14.0107809 1.7119683,13.6956037 C1.7119683,13.3804265 1.96744124,13.1249536 2.28261845,13.1249536 C2.59776,13.1249536 2.85326861,13.3804265 2.85326861,13.6956037 C2.85326861,14.0107809 2.59776,14.2662539 2.28261845,14.2662539 M2.28261845,11.4130031 C1.02194526,11.4130031 1.78328173e-05,12.4349305 1.78328173e-05,13.6956037 C1.78328173e-05,14.9562412 1.02194526,15.9782043 2.28261845,15.9782043 C3.54325598,15.9782043 4.56521907,14.9562412 4.56521907,13.6956037 C4.56521907,12.4349305 3.54325598,11.4130031 2.28261845,11.4130031" id="Fill-1"></path>
                <path d="M4.7612053,8.14057768 L2.47564443,11.4217091 C3.3063684,11.4913641 4.01037236,12.0054129 4.34905323,12.725823 L6.63464976,9.44462028 C5.80389013,9.37500097 5.09988617,8.86095217 4.7612053,8.14057768" id="Fill-3" opacity="0.4"></path>
                <path d="M6.82765434,7.74139363 C6.51247713,7.74139363 6.25700419,7.48588503 6.25700419,7.17074348 C6.25700419,6.85560193 6.51247713,6.60009333 6.82765434,6.60009333 C7.14283155,6.60009333 7.3983045,6.85560193 7.3983045,7.17074348 C7.3983045,7.48588503 7.14283155,7.74139363 6.82765434,7.74139363 M6.82765434,4.88814286 C5.56698115,4.88814286 4.54505372,5.91010596 4.54505372,7.17074348 C4.54505372,8.431381 5.56698115,9.4533441 6.82765434,9.4533441 C8.08829186,9.4533441 9.11025496,8.431381 9.11025496,7.17074348 C9.11025496,5.91010596 8.08829186,4.88814286 6.82765434,4.88814286" id="Fill-5"></path>
                <path d="M11.7659146,9.33032619 L9.0985174,7.40334762 C9.01481015,8.23050502 8.48913437,8.92666254 7.76159108,9.25343108 L10.4289882,11.1804097 C10.5126598,10.3532523 11.0383713,9.6571304 11.7659146,9.33032619" id="Fill-7" opacity="0.4"></path>
                <path d="M12.6998406,11.9836533 C12.384699,11.9836533 12.1291904,11.7281803 12.1291904,11.4130031 C12.1291904,11.0978259 12.384699,10.8423529 12.6998406,10.8423529 C13.0150178,10.8423529 13.2704907,11.0978259 13.2704907,11.4130031 C13.2704907,11.7281803 13.0150178,11.9836533 12.6998406,11.9836533 M12.6998406,9.13040248 C11.4392031,9.13040248 10.41724,10.1523299 10.41724,11.4130031 C10.41724,12.6736406 11.4392031,13.6956037 12.6998406,13.6956037 C13.9605138,13.6956037 14.9824412,12.6736406 14.9824412,11.4130031 C14.9824412,10.1523299 13.9605138,9.13040248 12.6998406,9.13040248" id="Fill-9"></path>
                <path d="M14.6554587,4.56520124 C14.0667974,4.56520124 13.5302792,4.34229102 13.1254743,3.97636161 L11.9978696,9.24089461 C12.2190678,9.16942068 12.4548533,9.13040248 12.6998406,9.13040248 C13.2885019,9.13040248 13.8249844,9.35331269 14.2297893,9.71924211 L15.3573584,4.45474477 C15.1361958,4.52618303 14.9004103,4.56520124 14.6554587,4.56520124" id="Fill-11" opacity="0.4"></path>
                <path d="M14.655423,2.85325077 C14.3402815,2.85325077 14.0847729,2.59774217 14.0847729,2.28260062 C14.0847729,1.96745907 14.3402815,1.71195046 14.655423,1.71195046 C14.9706002,1.71195046 15.2260732,1.96745907 15.2260732,2.28260062 C15.2260732,2.59774217 14.9706002,2.85325077 14.655423,2.85325077 M14.655423,0 C13.3947855,0 12.3728224,1.0219631 12.3728224,2.28260062 C12.3728224,3.54323814 13.3947855,4.56520124 14.655423,4.56520124 C15.9160962,4.56520124 16.9380236,3.54323814 16.9380236,2.28260062 C16.9380236,1.0219631 15.9160962,0 14.655423,0" id="Fill-13"></path>
            </g>
        </g>
    </g>
</svg>