<?xml version="1.0" encoding="UTF-8"?>
<svg width="23px" height="23px" viewBox="0 0 23 23" version="1.1" xmlns="http://www.w3.org/2000/svg" xmlns:xlink="http://www.w3.org/1999/xlink">
    <title>icon_legend</title>
    <g id="Page-1" stroke="none" stroke-width="1" fill="none" fill-rule="evenodd">
        <g id="Apple-TV" transform="translate(-988.000000, -676.000000)" fill="#FFFFFF" fill-rule="nonzero">
            <g id="icon_legend" transform="translate(988.000000, 676.000000)">
                <path d="M5.5,11 C2.46243388,11 0,13.4624339 0,16.5 C0,19.5375661 2.46243388,22 5.5,22 C8.53756612,22 11,19.5375661 11,16.5 C11,13.4624339 8.53756612,11 5.5,11 L5.5,11 Z M21.8070703,7.5625 L17.7250391,0.6875 C17.180625,-0.229023437 15.819375,-0.229023437 15.2758203,0.6875 L11.1937891,7.5625 C10.649375,8.47902344 11.33,9.625 12.4188281,9.625 L20.5820312,9.625 C21.6708594,9.625 22.3514844,8.47902344 21.8070703,7.5625 Z" id="Shape" opacity="0.4"></path>
                <path d="M22,13.75 L22,20.625 C22,21.3843915 21.3843915,22 20.625,22 L13.75,22 C12.9906085,22 12.375,21.3843915 12.375,20.625 L12.375,13.75 C12.375,12.9906085 12.9906085,12.375 13.75,12.375 L20.625,12.375 C21.3843915,12.375 22,12.9906085 22,13.75 Z" id="Path"></path>
            </g>
        </g>
    </g>
</svg>