<?xml version="1.0" encoding="UTF-8"?>
<svg width="18px" height="18px" viewBox="0 0 18 18" version="1.1" xmlns="http://www.w3.org/2000/svg" xmlns:xlink="http://www.w3.org/1999/xlink">
    <title>icon_hybrid</title>
    <g id="Page-1" stroke="none" stroke-width="1" fill="none" fill-rule="evenodd">
        <g id="Apple-TV" transform="translate(-670.000000, -503.000000)" fill="#FFFFFF" fill-rule="nonzero">
            <g id="icon_hybrid" transform="translate(670.000000, 503.000000)">
                <path d="M9,0 C4.02822581,0 0,4.02822581 0,9 C0,13.9717742 4.02822581,18 9,18 C13.9717742,18 18,13.9717742 18,9 C18,4.02822581 13.9717742,0 9,0 Z M16.0112903,5.51612903 L13.0173387,5.51612903 C12.6907258,3.90483871 12.1427419,2.53306452 11.4495968,1.55685484 C13.4455645,2.21733871 15.0858871,3.65806452 16.0112903,5.51612903 Z M12.1935484,9 C12.1935484,9.83104839 12.1354839,10.6040323 12.0375,11.3225806 L5.9625,11.3225806 C5.86451613,10.6040323 5.80645161,9.83104839 5.80645161,9 C5.80645161,8.16895161 5.86451613,7.39596774 5.9625,6.67741935 L12.0375,6.67741935 C12.1354839,7.39596774 12.1935484,8.16895161 12.1935484,9 L12.1935484,9 Z M9,1.16129032 C9.97620968,1.16129032 11.2282258,2.76169355 11.8342742,5.51612903 L6.16572581,5.51612903 C6.77177419,2.76169355 8.02379032,1.16129032 9,1.16129032 Z M6.55040323,1.55685484 C5.8608871,2.52943548 5.30927419,3.90120968 4.98266129,5.51612903 L1.98870968,5.51612903 C2.9141129,3.65806452 4.55443548,2.21733871 6.55040323,1.55685484 Z M1.16129032,9 C1.16129032,8.19072581 1.28467742,7.41048387 1.51330645,6.67741935 L4.79758065,6.67741935 C4.70322581,7.42137097 4.64516129,8.19435484 4.64516129,9 C4.64516129,9.80564516 4.69959677,10.578629 4.79758065,11.3225806 L1.51330645,11.3225806 C1.28467742,10.5895161 1.16129032,9.80927419 1.16129032,9 Z M1.98870968,12.483871 L4.98266129,12.483871 C5.30927419,14.0951613 5.85725806,15.4669355 6.55040323,16.4431452 C4.55443548,15.7826613 2.9141129,14.3419355 1.98870968,12.483871 Z M9,16.8387097 C8.02379032,16.8387097 6.77177419,15.2383065 6.16572581,12.483871 L11.8342742,12.483871 C11.2282258,15.2383065 9.97620968,16.8387097 9,16.8387097 L9,16.8387097 Z M11.4495968,16.4431452 C12.1391129,15.4705645 12.6907258,14.0987903 13.0173387,12.483871 L16.0112903,12.483871 C15.0858871,14.3419355 13.4455645,15.7826613 11.4495968,16.4431452 Z M13.2024194,11.3225806 C13.2967742,10.578629 13.3548387,9.80564516 13.3548387,9 C13.3548387,8.19435484 13.3004032,7.42137097 13.2024194,6.67741935 L16.4866935,6.67741935 C16.7153226,7.41048387 16.8387097,8.19072581 16.8387097,9 C16.8387097,9.80927419 16.7153226,10.5895161 16.4866935,11.3225806 L13.2024194,11.3225806 Z" id="Shape"></path>
            </g>
        </g>
    </g>
</svg>