<?xml version="1.0" encoding="UTF-8"?>
<svg width="21px" height="18px" viewBox="0 0 21 18" version="1.1" xmlns="http://www.w3.org/2000/svg" xmlns:xlink="http://www.w3.org/1999/xlink">
    <title>icon_open_street_maps</title>
    <g id="Page-1" stroke="none" stroke-width="1" fill="none" fill-rule="evenodd">
        <g id="Apple-TV" transform="translate(-672.000000, -166.000000)" fill="#FFFFFF" fill-rule="nonzero">
            <g id="icon_open_street_maps" transform="translate(672.000000, 166.000000)">
                <path d="M10.125,12.6446484 C9.62998645,12.6442881 9.16033428,12.4256059 8.84144531,12.0469922 C8.15027344,11.2327734 7.41515625,10.3039453 6.75,9.3515625 L6.75,15.75 L13.5,18 L13.5,9.3515625 C12.8348437,10.3039453 12.1000781,11.233125 11.4085547,12.04875 C11.0892722,12.4266302 10.6197068,12.644629 10.125,12.6446484 Z M0.70734375,7.59375 C0.280775397,7.76430164 0.00076191453,8.17708494 -1.32963258e-08,8.63648438 L-1.32963258e-08,17.4375 C-1.32963258e-08,17.6241574 0.0925148441,17.7986778 0.247060455,17.9033518 C0.401606067,18.0080258 0.598010557,18.0292184 0.771328125,17.9599219 L5.625,15.75 L5.625,7.55578125 C5.33048633,7.03379412 5.08057511,6.48787041 4.87792969,5.92382812 L0.70734375,7.59375 Z M19.4786719,5.66753906 L14.625,7.875 L14.625,18 L19.5426562,16.0330078 C19.9698192,15.8622177 20.25,15.4485563 20.25,14.9885156 L20.25,6.1875 C20.2498074,6.00096704 20.1571566,5.8266618 20.0026486,5.7221541 C19.8481406,5.61764641 19.6518739,5.59653075 19.4786719,5.66578125 L19.4786719,5.66753906 Z" id="Shape" opacity="0.4"></path>
                <path d="M14.5546875,4.4296875 C14.5546875,6.40757812 11.6595703,10.0125 10.5503906,11.3203125 C10.4450525,11.4463412 10.2892539,11.5191738 10.125,11.5191738 C9.9607461,11.5191738 9.80494748,11.4463412 9.69960938,11.3203125 C8.59042969,10.0125 5.6953125,6.40757812 5.6953125,4.4296875 C5.6953125,1.98323865 7.67855115,0 10.125,0 C12.5714489,0 14.5546875,1.98323865 14.5546875,4.4296875 Z" id="Path"></path>
            </g>
        </g>
    </g>
</svg>