<?xml version="1.0" encoding="UTF-8"?>
<svg width="18px" height="18px" viewBox="0 0 18 18" version="1.1" xmlns="http://www.w3.org/2000/svg" xmlns:xlink="http://www.w3.org/1999/xlink">
    <title>icon_enc_wms</title>
    <g id="Page-1" stroke="none" stroke-width="1" fill="none" fill-rule="evenodd">
        <g id="Apple-TV" transform="translate(-797.000000, -540.000000)" fill="#FFFFFF" fill-rule="nonzero">
            <g id="icon_enc_wms" transform="translate(797.000000, 540.000000)">
                <path d="M18.0000786,6.50654016 L18.0000786,7.49435266 C18.0000786,7.77872766 17.7625,8.01935266 17.478125,7.99435266 C16.6034982,7.91715348 15.757945,7.64175022 15.005625,7.18904016 C13.286875,8.25497766 10.770625,8.27060266 9.005625,7.18904016 C7.286875,8.25497766 4.770625,8.27060266 3.005625,7.18904016 C2.2771875,7.64216516 1.4240625,7.92029016 0.52375,7.99841516 C0.239375,8.02341516 0.001875,7.78279016 0.001875,7.49841516 L0.001875,6.49091516 C0.001875,6.24404016 0.18,6.02529016 0.426875,6.00029016 C1.1053125,5.92841516 1.7459375,5.68154016 2.2303125,5.29997766 C2.6615625,4.95935266 3.280625,4.88747766 3.7025,5.23747766 C4.8996875,6.22841516 7.053125,6.23154016 8.2409375,5.29060266 C8.6690625,4.94997766 9.2784375,4.88435266 9.7003125,5.23435266 C10.90375,6.23154016 13.0696875,6.23154016 14.254375,5.28122766 C14.6955939,4.93126946 15.3197186,4.93126946 15.7609375,5.28122766 C16.2546875,5.66904016 16.8984375,5.91904016 17.570625,5.99716516 C17.821875,6.02529016 18.003125,6.25654016 18.0000786,6.50654016 Z" id="Path" opacity="0.49702381"></path>
                <path d="M18.0000398,1.50505127 L18.0000398,2.49286377 C18.0000398,2.77723877 17.7624617,3.01786377 17.4780873,2.99286377 C16.6034624,2.91566459 15.757911,2.64026134 15.0055927,2.18755127 C13.2868464,3.25348877 10.7706018,3.26911377 9.00560559,2.18755127 C7.2868593,3.25348877 4.77061472,3.26911377 3.00561853,2.18755127 C2.2771826,2.64067627 1.42405943,2.91880127 0.523748875,2.99692627 C0.239374488,3.02192627 0.001875,2.78130127 0.001875,2.49692627 L0.001875,1.48942627 C0.001875,1.24255127 0.179999616,1.02380127 0.426874084,0.998801274 C1.10531012,0.926926274 1.74593374,0.680051274 2.2303077,0.298488774 C2.66155677,-0.0421362262 3.28061793,-0.114011226 3.70249202,0.235988774 C4.89967694,1.22692627 7.0531098,1.23005127 8.24091974,0.289113774 C8.66904382,-0.0515112262 9.2784175,-0.117136226 9.7002916,0.232863774 C10.9037265,1.23005127 13.0696593,1.23005127 14.2543443,0.279738774 C14.6955622,-0.0702194265 15.3196856,-0.0702194265 15.7609035,0.279738774 C16.2546525,0.667551274 16.8984011,0.917551274 17.5705871,0.995676274 C17.8218366,1.02380127 18.0030862,1.25505127 18.0000398,1.50505127 Z" id="Path-Copy" fill-opacity="0.3"></path>
                <path d="M17.56875,10.998468 C16.8965625,10.923468 16.2528125,10.670343 15.7590625,10.282843 C15.3178436,9.93288482 14.6937189,9.93288482 14.2525,10.282843 C13.0678125,11.2331555 10.901875,11.2331555 9.6984375,10.235968 C9.2765625,9.88565552 8.6671875,9.95159302 8.2390625,10.292218 C7.0515625,11.2331555 4.8978125,11.229718 3.700625,10.239093 C3.27875,9.88878052 2.6596875,9.96096802 2.2284375,10.301593 C1.7440625,10.682843 1.1034375,10.929718 0.425,11.001593 C0.178125,11.025343 0,11.2444055 0,11.4912805 L0,12.4975305 C0,12.782218 0.2375,13.022843 0.521875,12.9975305 C1.4221875,12.9194055 2.2753125,12.6412805 3.00375,12.187843 C4.7696875,13.2694055 7.285,13.2537805 9.00375,12.187843 C10.7696875,13.2694055 13.285,13.2537805 15.00375,12.187843 C15.7558844,12.6411627 16.6014845,12.9170087 17.47625,12.9944055 C17.760625,13.0194055 17.9982259,12.7787805 17.9982259,12.4944055 L17.9982259,11.5069055 C18.003125,11.2569055 17.821875,11.025343 17.56875,10.997218 L17.56875,10.998468 Z" id="Path" opacity="0.7"></path>
                <path d="M15.7590625,15.281875 C15.3178436,14.9319168 14.6937189,14.9319168 14.2525,15.281875 C13.0678125,16.2321875 10.901875,16.2321875 9.6984375,15.235 C9.2765625,14.885 8.6671875,14.950625 8.2390625,15.29125 C7.0515625,16.2321875 4.8978125,16.22875 3.700625,15.238125 C3.27875,14.888125 2.6596875,14.96 2.2284375,15.300625 C1.7440625,15.6821875 1.1034375,15.9290625 0.425,16.0009375 C0.178125,16.0259375 0,16.2446875 0,16.4915625 L0,17.498125 C0,17.7825 0.2375,18.023125 0.521875,17.998125 C1.4221875,17.92 2.2753125,17.641875 3.00375,17.18875 C4.7696875,18.2703125 7.285,18.254375 9.00375,17.18875 C10.7696875,18.2703125 13.285,18.254375 15.00375,17.18875 C15.7559893,17.6417892 16.6015474,17.9175147 17.47625,17.995 C17.760625,18.02 17.998125,17.779375 17.998125,17.495 L17.998125,16.5071875 C18.003125,16.2571875 17.821875,16.0259375 17.56875,15.9978125 C16.8965625,15.9228125 16.2528125,15.6696875 15.7590625,15.281875 Z" id="Path" opacity="0.9"></path>
                <polygon id="Fill-1" points="9.0004 3.99984 14.0008 13.99944 4 13.99944"></polygon>
            </g>
        </g>
    </g>
</svg>