<?xml version="1.0" encoding="UTF-8"?>
<svg width="17px" height="16px" viewBox="0 0 17 16" version="1.1" xmlns="http://www.w3.org/2000/svg" xmlns:xlink="http://www.w3.org/1999/xlink">
    <title>icon_zone</title>
    <g id="Page-1" stroke="none" stroke-width="1" fill="none" fill-rule="evenodd">
        <g id="Apple-TV" transform="translate(-653.000000, -91.000000)" fill="#FFFFFF" fill-rule="nonzero">
            <g id="icon_zone" transform="translate(653.111111, 91.000000)">
                <path d="M14.5714286,11.5982143 L14.5714286,4.40178571 C15.4085714,4.0625 16,3.24428571 16,2.28571429 C16,1.02321429 14.9767857,0 13.7142857,0 C12.7557143,0 11.9375,0.591428571 11.5982143,1.42857143 L4.40178571,1.42857143 C4.0625,0.591428571 3.24464286,0 2.28571429,0 C1.02321429,0 0,1.02321429 0,2.28571429 C0,3.24428571 0.591428571,4.0625 1.42857143,4.40178571 L1.42857143,11.5978571 C0.591428571,11.9375 0,12.7553571 0,13.7142857 C0,14.9767857 1.02321429,16 2.28571429,16 C3.24464286,16 4.0625,15.4085714 4.40178571,14.5714286 L11.5978571,14.5714286 C11.9371429,15.4085714 12.7553571,16 13.7139286,16 C14.9764286,16 15.9996429,14.9767857 15.9996429,13.7142857 C16,12.7553571 15.4085714,11.9375 14.5714286,11.5982143 Z M3.14285714,11.5982143 L3.14285714,4.40178571 C3.71528226,4.1693588 4.1693588,3.71528226 4.40178571,3.14285714 L11.5978571,3.14285714 C11.8302841,3.71528226 12.2843606,4.1693588 12.8567857,4.40178571 L12.8567857,11.5978571 C12.2843606,11.8302841 11.8302841,12.2843606 11.5978571,12.8567857 L4.40178571,12.8567857 C4.16923409,12.2845255 3.71518332,11.8306035 3.14285714,11.5982143 L3.14285714,11.5982143 Z M13.7142857,1.71428571 C14.0292857,1.71428571 14.2857143,1.97071429 14.2857143,2.28571429 C14.2857143,2.60071429 14.0292857,2.85714286 13.7142857,2.85714286 C13.3992857,2.85714286 13.1428571,2.60071429 13.1428571,2.28571429 C13.1428571,1.97071429 13.3992857,1.71428571 13.7142857,1.71428571 Z M2.28571429,1.71428571 C2.60071429,1.71428571 2.85714286,1.97071429 2.85714286,2.28571429 C2.85714286,2.60071429 2.60071429,2.85714286 2.28571429,2.85714286 C1.97071429,2.85714286 1.71428571,2.60071429 1.71428571,2.28571429 C1.71428571,1.97071429 1.97071429,1.71428571 2.28571429,1.71428571 Z M2.28571429,14.2857143 C1.97071429,14.2857143 1.71428571,14.0292857 1.71428571,13.7142857 C1.71428571,13.3992857 1.97071429,13.1428571 2.28571429,13.1428571 C2.60071429,13.1428571 2.85714286,13.3992857 2.85714286,13.7142857 C2.85714286,14.0292857 2.60071429,14.2857143 2.28571429,14.2857143 Z M13.7142857,14.2857143 C13.3992857,14.2857143 13.1428571,14.0292857 13.1428571,13.7142857 C13.1428571,13.3992857 13.3992857,13.1428571 13.7142857,13.1428571 C14.0292857,13.1428571 14.2857143,13.3992857 14.2857143,13.7142857 C14.2857143,14.0292857 14.0292857,14.2857143 13.7142857,14.2857143 Z" id="Shape"></path>
            </g>
        </g>
    </g>
</svg>