<?xml version="1.0" encoding="UTF-8"?>
<svg width="16px" height="15px" viewBox="0 0 16 15" version="1.1" xmlns="http://www.w3.org/2000/svg" xmlns:xlink="http://www.w3.org/1999/xlink">
    <title>exclamation-triangle</title>
    <g id="Symbols" stroke="none" stroke-width="1" fill="none" fill-rule="evenodd">
        <g id="sub-nav" transform="translate(-820.000000, -14.000000)" fill="#FFFFFF" fill-rule="nonzero">
            <g id="Emergency-and-Incident-Command-Support" transform="translate(820.000000, 9.000000)">
                <g id="exclamation-triangle" transform="translate(0.000000, 5.000000)">
                    <path d="M15.8199246,12.2225833 C16.3326469,13.1113056 15.6890635,14.2222222 14.665008,14.2222222 L1.3348413,14.2222222 C0.308813519,14.2222222 -0.331797592,13.1095833 0.17992463,12.2225833 L6.8450913,0.66625 C7.35806352,-0.222888889 8.64286907,-0.221277778 9.15492463,0.66625 L15.8199246,12.2225833 Z M8.00000796,9.83333333 C7.29431352,9.83333333 6.72223019,10.4054167 6.72223019,11.1111111 C6.72223019,11.8168056 7.29431352,12.3888889 8.00000796,12.3888889 C8.70570241,12.3888889 9.27778574,11.8168056 9.27778574,11.1111111 C9.27778574,10.4054167 8.70570241,9.83333333 8.00000796,9.83333333 Z M6.78686907,5.24038889 L6.99292463,9.01816667 C7.00256352,9.19494444 7.14873019,9.33333333 7.32575796,9.33333333 L8.67425796,9.33333333 C8.85128574,9.33333333 8.99745241,9.19494444 9.0070913,9.01816667 L9.21314685,5.24038889 C9.22356352,5.04944444 9.07153574,4.88888889 8.88031352,4.88888889 L7.11967463,4.88888889 C6.92845241,4.88888889 6.77645241,5.04944444 6.78686907,5.24038889 L6.78686907,5.24038889 Z" id="Shape"></path>
                </g>
            </g>
        </g>
    </g>
</svg>