<?xml version="1.0" encoding="UTF-8"?>
<svg width="18px" height="21px" viewBox="0 0 18 21" version="1.1" xmlns="http://www.w3.org/2000/svg" xmlns:xlink="http://www.w3.org/1999/xlink">
    <title>icon_center_range</title>
    <defs>
        <polygon id="path-1" points="0 0.847396812 17.6693978 0.847396812 17.6693978 19.3181 0 19.3181"></polygon>
    </defs>
    <g id="Page-1" stroke="none" stroke-width="1" fill="none" fill-rule="evenodd">
        <g id="Apple-TV" transform="translate(-222.000000, -279.000000)">
            <g id="icon_center_range" transform="translate(222.000000, 279.000000)">
                <g id="Group-3" transform="translate(0.000000, 0.152800)">
                    <mask id="mask-2" fill="white">
                        <use xlink:href="#path-1"></use>
                    </mask>
                    <g id="Clip-2"></g>
                    <path d="M14.4311,2.4101 C14.1811,2.4101 13.9561,2.2371 13.9001,1.9831 C13.8341,1.6901 14.0191,1.3991 14.3131,1.3331 L16.4401,0.8601 C16.7371,0.7961 17.0261,0.9801 17.0911,1.2731 C17.1561,1.5671 16.9711,1.8581 16.6781,1.9231 L14.5501,2.3971 C14.5101,2.4061 14.4701,2.4101 14.4311,2.4101 M10.1761,3.3571 C9.9271,3.3571 9.7011,3.1841 9.6451,2.9301 C9.5791,2.6371 9.7641,2.3461 10.0581,2.2801 L12.1861,1.8061 C12.4801,1.7451 12.7711,1.9271 12.8361,2.2201 C12.9011,2.5141 12.7161,2.8051 12.4221,2.8701 L10.2951,3.3441 C10.2551,3.3521 10.2151,3.3571 10.1761,3.3571 M5.9211,4.3041 C5.6711,4.3041 5.4461,4.1311 5.3901,3.8771 C5.3251,3.5831 5.5101,3.2921 5.8041,3.2271 L7.9311,2.7541 C8.2211,2.6861 8.5151,2.8731 8.5811,3.1671 C8.6461,3.4611 8.4611,3.7521 8.1671,3.8171 L6.0401,4.2901 C6.0001,4.2991 5.9601,4.3041 5.9211,4.3041 M16.6261,5.1281 C16.5851,5.1281 16.5431,5.1231 16.5011,5.1131 C16.2081,5.0441 16.0271,4.7511 16.0961,4.4581 L16.5941,2.3371 C16.6631,2.0441 16.9561,1.8601 17.2491,1.9311 C17.5421,2.0001 17.7231,2.2931 17.6551,2.5861 L17.1561,4.7071 C17.0981,4.9581 16.8731,5.1281 16.6261,5.1281 M2.9201,6.4581 C2.8871,6.4581 2.8541,6.4551 2.8201,6.4491 C2.5241,6.3951 2.3291,6.1111 2.3841,5.8141 L2.6701,4.2641 C2.7091,4.0491 2.8741,3.8791 3.0871,3.8311 L3.6761,3.7011 C3.9681,3.6331 4.2601,3.8211 4.3261,4.1141 C4.3911,4.4081 4.2061,4.6991 3.9121,4.7641 L3.6761,4.8171 L3.4551,6.0131 C3.4071,6.2751 3.1781,6.4581 2.9201,6.4581 M15.6281,9.3711 C15.5871,9.3711 15.5451,9.3661 15.5031,9.3561 C15.2101,9.2871 15.0291,8.9941 15.0981,8.7011 L15.5971,6.5791 C15.6661,6.2871 15.9621,6.1071 16.2521,6.1741 C16.5441,6.2431 16.7261,6.5361 16.6571,6.8291 L16.1581,8.9511 C16.0991,9.2021 15.8751,9.3711 15.6281,9.3711 M2.1281,10.7451 C2.0961,10.7451 2.0621,10.7421 2.0291,10.7361 C1.7331,10.6811 1.5371,10.3971 1.5921,10.1011 L1.9881,7.9581 C2.0421,7.6621 2.3221,7.4651 2.6221,7.5211 C2.9181,7.5761 3.1141,7.8601 3.0591,8.1561 L2.6631,10.2991 C2.6151,10.5611 2.3861,10.7451 2.1281,10.7451 M13.9951,13.0971 C13.7891,13.0971 13.5931,12.9791 13.5001,12.7811 C13.3741,12.5071 13.4931,12.1831 13.7661,12.0571 L14.3741,11.7761 L14.5981,10.8241 C14.6681,10.5311 14.9671,10.3511 15.2531,10.4181 C15.5461,10.4871 15.7281,10.7801 15.6591,11.0731 L15.3741,12.2831 C15.3361,12.4461 15.2251,12.5831 15.0731,12.6531 L14.2241,13.0461 C14.1501,13.0801 14.0721,13.0971 13.9951,13.0971 M10.0391,14.9271 C9.8331,14.9271 9.6361,14.8091 9.5441,14.6111 C9.4171,14.3371 9.5361,14.0141 9.8091,13.8871 L11.7871,12.9721 C12.0631,12.8461 12.3851,12.9651 12.5111,13.2381 C12.6381,13.5111 12.5181,13.8351 12.2451,13.9611 L10.2671,14.8761 C10.1931,14.9111 10.1161,14.9271 10.0391,14.9271 M1.3371,15.0321 C1.3041,15.0321 1.2711,15.0291 1.2371,15.0221 C0.9411,14.9681 0.7461,14.6841 0.8011,14.3881 L1.1961,12.2441 C1.2511,11.9491 1.5331,11.7491 1.8311,11.8081 C2.1271,11.8621 2.3221,12.1461 2.2671,12.4431 L1.8721,14.5861 C1.8241,14.8481 1.5951,15.0321 1.3371,15.0321 M6.0831,16.7571 C5.8771,16.7571 5.6801,16.6401 5.5881,16.4411 C5.4611,16.1671 5.5801,15.8441 5.8531,15.7171 L7.8311,14.8021 C8.1041,14.6761 8.4281,14.7951 8.5551,15.0681 C8.6811,15.3411 8.5621,15.6651 8.2891,15.7911 L6.3111,16.7061 C6.2371,16.7411 6.1601,16.7571 6.0831,16.7571 M2.1261,18.5871 C1.9201,18.5871 1.7231,18.4701 1.6311,18.2711 C1.5051,17.9971 1.6241,17.6741 1.8971,17.5471 L3.8751,16.6321 C4.1481,16.5051 4.4711,16.6251 4.5981,16.8981 C4.7251,17.1711 4.6061,17.4951 4.3331,17.6211 L2.3551,18.5361 C2.2811,18.5711 2.2021,18.5871 2.1261,18.5871 M0.5451,19.3181 C0.5131,19.3181 0.4791,19.3151 0.4461,19.3091 C0.1501,19.2551 -0.0459,18.9711 0.0091,18.6741 L0.4051,16.5311 C0.4591,16.2351 0.7391,16.0381 1.0391,16.0951 C1.3351,16.1491 1.5311,16.4331 1.4761,16.7291 L1.0801,18.8721 C1.0321,19.1351 0.8031,19.3181 0.5451,19.3181" id="Fill-1" fill="#FFFFFF" opacity="0.4" mask="url(#mask-2)"></path>
                </g>
                <path d="M13.8212,14.7743 C13.8212,15.5603 13.1842,16.1973 12.3982,16.1973 C11.6122,16.1973 10.9752,15.5603 10.9752,14.7743 C10.9752,13.9883 11.6122,13.3513 12.3982,13.3513 C13.1842,13.3513 13.8212,13.9883 13.8212,14.7743" id="Fill-4" fill="#FFFFFF"></path>
                <path d="M12.3979,10.6796 C10.1399,10.6796 8.3029,12.5166 8.3029,14.7736 C8.3029,17.0326 10.1399,18.8686 12.3979,18.8686 C14.6559,18.8686 16.4929,17.0326 16.4929,14.7736 C16.4929,12.5166 14.6559,10.6796 12.3979,10.6796 M12.3979,20.1526 C9.4319,20.1526 7.0199,17.7396 7.0199,14.7736 C7.0199,11.8086 9.4319,9.3956 12.3979,9.3956 C15.3639,9.3956 17.7769,11.8086 17.7769,14.7736 C17.7769,17.7396 15.3639,20.1526 12.3979,20.1526" id="Fill-6" fill="#FFFFFF"></path>
            </g>
        </g>
    </g>
</svg>