<?xml version="1.0" encoding="UTF-8"?>
<svg width="19px" height="22px" viewBox="0 0 19 22" version="1.1" xmlns="http://www.w3.org/2000/svg" xmlns:xlink="http://www.w3.org/1999/xlink">
    <title>icon_show_name_list</title>
    <g id="Page-1" stroke="none" stroke-width="1" fill="none" fill-rule="evenodd">
        <g id="Apple-TV" transform="translate(-984.000000, -580.000000)" fill="#FFFFFF" fill-rule="nonzero">
            <g id="icon_show_name_list" transform="translate(984.000000, 580.000000)">
                <path d="M2.26875,-0.00011 C1.01585,-0.00011 -0.00055,1.01519 -0.00055,2.26919 L-0.00055,18.90669 C-0.00055,20.15959 1.01585,21.17489 2.26875,21.17489 L15.88125,21.17489 C17.13415,21.17489 18.15055,20.15959 18.15055,18.90669 L18.15055,2.26919 C18.15055,1.01519 17.13415,-0.00011 15.88125,-0.00011 L2.26875,-0.00011 Z" id="Fill-1" opacity="0.4"></path>
                <path d="M4.5375,11.61644 C3.9116,11.61644 3.4034,11.10934 3.4034,10.48234 C3.4034,9.85534 3.9116,9.34714 4.5375,9.34714 C5.1634,9.34714 5.67161425,9.85534 5.67161425,10.48234 C5.6738,11.10714 5.1678,11.61534 4.543,11.61644 L4.5375,11.61644 Z" id="Fill-4"></path>
                <path d="M15.125,10.86019 C15.125,11.06919 14.9556,11.23859 14.7466,11.23859 L7.9409,11.23859 C7.7319,11.23859 7.5625,11.06919 7.5625,10.86019 L7.5625,10.10449 C7.5625,9.89549 7.7319,9.72609 7.9409,9.72609 L14.7466,9.72609 C14.9556,9.72609 15.125,9.89549 15.125,10.10449 L15.125,10.86019 Z" id="Fill-6"></path>
                <path d="M4.5375,7.40982 C3.9116,7.40982 3.4034,6.90272 3.4034,6.27572 C3.4034,5.64872 3.9116,5.14052 4.5375,5.14052 C5.1634,5.14052 5.67161425,5.64872 5.67161425,6.27572 C5.6738,6.90052 5.1678,7.40872 4.543,7.40982 L4.5375,7.40982 Z" id="Fill-8"></path>
                <path d="M15.125,6.65357 C15.125,6.86257 14.9556,7.03197 14.7466,7.03197 L7.9409,7.03197 C7.7319,7.03197 7.5625,6.86257 7.5625,6.65357 L7.5625,5.89787 C7.5625,5.68887 7.7319,5.51947 7.9409,5.51947 L14.7466,5.51947 C14.9556,5.51947 15.125,5.68887 15.125,5.89787 L15.125,6.65357 Z" id="Fill-10"></path>
                <path d="M4.5375,15.82306 C3.9116,15.82306 3.4034,15.31596 3.4034,14.68896 C3.4034,14.06196 3.9116,13.55376 4.5375,13.55376 C5.1634,13.55376 5.67161425,14.06196 5.67161425,14.68896 C5.6738,15.31376 5.1678,15.82196 4.543,15.82306 L4.5375,15.82306 Z" id="Fill-12"></path>
                <path d="M15.125,15.06681 C15.125,15.27581 14.9556,15.44521 14.7466,15.44521 L7.9409,15.44521 C7.7319,15.44521 7.5625,15.27581 7.5625,15.06681 L7.5625,14.31111 C7.5625,14.10211 7.7319,13.93271 7.9409,13.93271 L14.7466,13.93271 C14.9556,13.93271 15.125,14.10211 15.125,14.31111 L15.125,15.06681 Z" id="Fill-14"></path>
            </g>
        </g>
    </g>
</svg>