<?xml version="1.0" encoding="UTF-8"?>
<svg width="22px" height="22px" viewBox="0 0 22 22" version="1.1" xmlns="http://www.w3.org/2000/svg" xmlns:xlink="http://www.w3.org/1999/xlink">
    <title>icon_layer</title>
    <g id="Page-1" stroke="none" stroke-width="1" fill="none" fill-rule="evenodd">
        <g id="Apple-TV" transform="translate(-973.000000, -389.000000)" fill="#FFFFFF" fill-rule="nonzero">
            <g id="icon_layer" transform="translate(973.000000, 389.000000)">
                <path d="M0.532202729,10.134152 L3.02382066,9.00584795 L9.95532164,12.1480312 C10.6054476,12.4436686 11.3516674,12.4436686 12.0017934,12.1480312 L18.9337232,9.00584795 L21.4249123,10.1350097 C22.1346589,10.4566472 22.1346589,11.5287719 21.4249123,11.8504094 L11.4348538,16.3777778 C11.1448476,16.5098764 10.8118385,16.5098764 10.5218324,16.3777778 L0.532202729,11.8495517 C-0.17754386,11.5279142 -0.17754386,10.4557895 0.532202729,10.134152 Z" id="Path" opacity="0.4"></path>
                <path d="M0.532202729,6.34697856 L10.5218324,10.879922 C10.8117523,11.0124176 11.1449339,11.0124176 11.4348538,10.879922 L21.4244834,6.34697856 C22.13423,6.02491228 22.13423,4.95235867 21.4244834,4.63157895 L11.4352827,0.0994931774 C11.1453628,-0.0330023944 10.8121811,-0.0330023944 10.5222612,0.0994931774 L0.532202729,4.63157895 C-0.17754386,4.95321637 -0.17754386,6.02619883 0.532202729,6.34697856 Z M21.4249123,15.6148538 L18.9431579,14.4899805 L12.0017934,17.6364522 C11.3516674,17.9320896 10.6054476,17.9320896 9.95532164,17.6364522 L3.01438596,14.4899805 L0.532202729,15.6148538 C-0.17754386,15.9364912 -0.17754386,17.008616 0.532202729,17.3302534 L10.5218324,21.8584795 C10.8118385,21.9905782 11.1448476,21.9905782 11.4348538,21.8584795 L21.4270565,17.3302534 C22.1346589,17.008616 22.1346589,15.9364912 21.4249123,15.6148538 L21.4249123,15.6148538 Z" id="Shape"></path>
            </g>
        </g>
    </g>
</svg>