<?xml version="1.0" encoding="UTF-8"?>
<svg width="20px" height="16px" viewBox="0 0 20 16" version="1.1" xmlns="http://www.w3.org/2000/svg" xmlns:xlink="http://www.w3.org/1999/xlink">
    <title>icon_alarms</title>
    <g id="Page-1" stroke="none" stroke-width="1" fill="none" fill-rule="evenodd">
        <g id="Apple-TV" transform="translate(-812.000000, -91.000000)" fill="#FFFFFF" fill-rule="nonzero">
            <g id="icon_alarms" transform="translate(812.000000, 91.000000)">
                <path d="M14.9975,6.5 C14.9975,4.0721875 13.295,2.1278125 10.999375,1.65125 L10.999375,1 C10.999375,0.44771525 10.5516597,0 9.999375,0 C9.44709025,0 8.999375,0.44771525 8.999375,1 L8.999375,1.65125 C6.705,2.1278125 5.0025,4.0721875 5.0025,6.5 C5.0025,9.6971875 3.873125,10.6728125 3.2690625,11.32125 C3.09507216,11.5042543 2.99865147,11.7474898 2.99997237,12 C3.0034375,12.5128125 3.40625,13 4.0028125,13 L15.9971875,13 C16.594375,13 16.9971875,12.5128125 17.0000346,12 C17.0015115,11.7474592 16.9050675,11.504165 16.7309375,11.32125 C16.126875,10.6728125 14.9975,9.6971875 14.9975,6.5 Z" id="Path"></path>
                <path d="M2.75,5.25 L0.75,5.25 C0.335786438,5.25 0,5.58578644 0,6 C0,6.41421356 0.335786438,6.75 0.75,6.75 L2.75,6.75 C3.16421356,6.75 3.5,6.41421356 3.5,6 C3.5,5.58578644 3.16421356,5.25 2.75,5.25 Z M4.09625,1.725625 L2.364375,0.725625 C2.13202596,0.585736493 1.84225569,0.582184991 1.60654793,0.71633687 C1.37084018,0.850488748 1.22592006,1.10144209 1.22751614,1.37264725 C1.22916574,1.64385241 1.3770787,1.89305349 1.614375,2.024375 L3.34625,3.024375 C3.57859904,3.16426351 3.86836931,3.16781501 4.10407707,3.03366313 C4.33978482,2.89951125 4.48470494,2.64855791 4.48310886,2.37735275 C4.48145926,2.10614759 4.3335463,1.85694651 4.09625,1.725625 L4.09625,1.725625 Z M18.385625,2.024375 C18.7359189,1.81347641 18.8527372,1.36086019 18.6482625,1.00677815 C18.4437878,0.652696108 17.9933774,0.527642187 17.635625,0.725625 L15.90375,1.725625 C15.6664537,1.85694651 15.5185407,2.10614759 15.5168911,2.37735275 C15.5152951,2.64855791 15.6602152,2.89951125 15.8959229,3.03366313 C16.1316307,3.16781501 16.421401,3.16426351 16.65375,3.024375 L18.385625,2.024375 Z M10,16 C11.1045695,16 12,15.1045695 12,14 L8,14 C8,15.1045695 8.8954305,16 10,16 Z M19.25,5.25 L17.25,5.25 C16.8357864,5.25 16.5,5.58578644 16.5,6 C16.5,6.41421356 16.8357864,6.75 17.25,6.75 L19.25,6.75 C19.6642136,6.75 20,6.41421356 20,6 C20,5.58578644 19.6642136,5.25 19.25,5.25 Z" id="Shape"></path>
            </g>
        </g>
    </g>
</svg>