<?xml version="1.0" encoding="UTF-8"?>
<svg width="18px" height="12px" viewBox="0 0 18 12" version="1.1" xmlns="http://www.w3.org/2000/svg" xmlns:xlink="http://www.w3.org/1999/xlink">
    <title>icon_water_only</title>
    <g id="Page-1" stroke="none" stroke-width="1" fill="none" fill-rule="evenodd">
        <g id="Apple-TV" transform="translate(-837.000000, -506.000000)" fill="#FFFFFF" fill-rule="nonzero">
            <g id="icon_water_only" transform="translate(837.000000, 506.000000)">
                <path d="M17.56875,0.995625 C17.821875,1.02375 18.003125,1.255 18.0000398,1.505 L18.0000398,2.4928125 C18.0000398,2.7771875 17.7625,3.0178125 17.478125,2.9928125 C16.6034982,2.91561332 15.757945,2.64021006 15.005625,2.1875 C13.286875,3.2534375 10.770625,3.2690625 9.005625,2.1875 C7.286875,3.2534375 4.770625,3.2690625 3.005625,2.1875 C2.2771875,2.640625 1.4240625,2.91875 0.52375,2.996875 C0.239375,3.021875 0.001875,2.78125 0.001875,2.496875 L0.001875,1.489375 C0.001875,1.2425 0.18,1.02375 0.426875,0.99875 C1.1053125,0.926875 1.7459375,0.68 2.2303125,0.2984375 C2.6615625,-0.0421875 3.280625,-0.1140625 3.7025,0.2359375 C4.8996875,1.226875 7.053125,1.23 8.2409375,0.2890625 C8.6690625,-0.0515625 9.2784375,-0.1171875 9.7003125,0.2328125 C10.90375,1.23 13.0696875,1.23 14.254375,0.2796875 C14.6955939,-0.0702707003 15.3197186,-0.0702707003 15.7609375,0.2796875 C16.2546875,0.6675 16.8984375,0.9175 17.570625,0.995625 L17.56875,0.995625 Z" id="Path" opacity="0.4"></path>
                <path d="M17.56875,9.9978125 C16.8965625,9.9228125 16.2528125,9.6696875 15.7590625,9.281875 C15.3178436,8.9319168 14.6937189,8.9319168 14.2525,9.281875 C13.0678125,10.2321875 10.901875,10.2321875 9.6984375,9.235 C9.2765625,8.885 8.6671875,8.950625 8.2390625,9.29125 C7.0515625,10.2321875 4.8978125,10.22875 3.700625,9.238125 C3.27875,8.888125 2.6596875,8.96 2.2284375,9.300625 C1.7440625,9.6821875 1.1034375,9.9290625 0.425,10.0009375 C0.178125,10.0259375 1.77635684e-15,10.2446875 1.77635684e-15,10.4915625 L1.77635684e-15,11.498125 C1.77635684e-15,11.7825 0.2375,12.023125 0.521875,11.998125 C1.4221875,11.92 2.2753125,11.641875 3.00375,11.18875 C4.7696875,12.2703125 7.285,12.254375 9.00375,11.18875 C10.7696875,12.2703125 13.285,12.254375 15.00375,11.18875 C15.7559893,11.6417892 16.6015474,11.9175147 17.47625,11.995 C17.760625,12.02 17.9982259,11.779375 17.9982259,11.495 L17.9982259,10.5071875 C18.003125,10.2571875 17.821875,10.0259375 17.56875,9.9978125 L17.56875,9.9978125 Z M17.56875,5.4978125 C16.8965625,5.4228125 16.2528125,5.1696875 15.7590625,4.7821875 C15.3178436,4.4322293 14.6937189,4.4322293 14.2525,4.7821875 C13.0678125,5.7325 10.901875,5.7325 9.6984375,4.7353125 C9.2765625,4.385 8.6671875,4.4509375 8.2390625,4.7915625 C7.0515625,5.7325 4.8978125,5.7290625 3.700625,4.7384375 C3.27875,4.388125 2.6596875,4.4603125 2.2284375,4.8009375 C1.7440625,5.1821875 1.1034375,5.4290625 0.425,5.5009375 C0.178125,5.5246875 0,5.74375 0,5.990625 L0,6.996875 C0,7.2815625 0.2375,7.5221875 0.521875,7.496875 C1.4221875,7.41875 2.2753125,7.140625 3.00375,6.6871875 C4.7696875,7.76875 7.285,7.753125 9.00375,6.6871875 C10.7696875,7.76875 13.285,7.753125 15.00375,6.6871875 C15.7558844,7.14050714 16.6014845,7.41635319 17.47625,7.49375 C17.760625,7.51875 17.9982259,7.278125 17.9982259,6.99375 L17.9982259,6.00625 C18.003125,5.75625 17.821875,5.5246875 17.56875,5.4965625 L17.56875,5.4978125 Z" id="Shape"></path>
            </g>
        </g>
    </g>
</svg>