<?xml version="1.0" encoding="UTF-8"?>
<svg width="18px" height="18px" viewBox="0 0 18 18" version="1.1" xmlns="http://www.w3.org/2000/svg" xmlns:xlink="http://www.w3.org/1999/xlink">
    <title>icon_enc_standard</title>
    <g id="Page-1" stroke="none" stroke-width="1" fill="none" fill-rule="evenodd">
        <g id="Apple-TV" transform="translate(-739.000000, -506.000000)" fill="#FFFFFF">
            <g id="icon_enc_standard" transform="translate(739.000000, 506.000000)">
                <polygon id="Fill-1" points="9 4.0002 14.0004 13.9998 3.9996 13.9998"></polygon>
                <polygon id="Fill-3" opacity="0.401274182" points="0 2.0004 18 2.0004 18 0 0 0"></polygon>
                <polygon id="Fill-4" opacity="0.401274182" points="0 6 3 6 3 3.9996 0 3.9996"></polygon>
                <polygon id="Fill-5" opacity="0.401274182" points="15 6 18 6 18 3.9996 15 3.9996"></polygon>
                <polygon id="Fill-6" opacity="0.401274182" points="0 10.0008 3 10.0008 3 8.0004 0 8.0004"></polygon>
                <polygon id="Fill-7" opacity="0.401274182" points="15 10.0008 18 10.0008 18 8.0004 15 8.0004"></polygon>
                <polygon id="Fill-8" opacity="0.401274182" points="0 13.9992 3 13.9992 3 11.9988 0 11.9988"></polygon>
                <polygon id="Fill-9" opacity="0.401274182" points="15 13.9992 18 13.9992 18 11.9988 15 11.9988"></polygon>
                <polygon id="Fill-10" opacity="0.401274182" points="0 18 18 18 18 15.9996 0 15.9996"></polygon>
            </g>
        </g>
    </g>
</svg>