<?xml version="1.0" encoding="UTF-8"?>
<svg width="23px" height="22px" viewBox="0 0 23 22" version="1.1" xmlns="http://www.w3.org/2000/svg" xmlns:xlink="http://www.w3.org/1999/xlink">
    <title>icon_show_names</title>
    <g id="Page-1" stroke="none" stroke-width="1" fill="none" fill-rule="evenodd">
        <g id="Apple-TV" transform="translate(-1145.000000, -166.000000)" fill="#FFFFFF" fill-rule="nonzero">
            <g id="icon_show_names" transform="translate(1145.166667, 166.000000)">
                <path d="M14.9285714,18.8571429 C15.3625094,18.8571429 15.7142857,19.2089191 15.7142857,19.6428571 L15.7142857,21.2142857 C15.7142857,21.6482237 15.3625094,22 14.9285714,22 L7.07142857,22 C6.63749055,22 6.28571429,21.6482237 6.28571429,21.2142857 L6.28571429,19.6428571 C6.28571429,19.2089191 6.63749055,18.8571429 7.07142857,18.8571429 L14.9285714,18.8571429 Z" id="Path" opacity="0.4"></path>
                <path d="M22,0.785714286 L22,5.5 C22,5.93393802 21.6482237,6.28571429 21.2142857,6.28571429 L19.6428571,6.28571429 C19.2089191,6.28571429 18.8571429,5.93393802 18.8571429,5.5 L18.8571429,3.92857143 L12.9642857,3.92857143 L12.9642857,18.8571429 L9.03571429,18.8571429 L9.03571429,3.92857143 L3.14285714,3.92857143 L3.14285714,5.5 C3.14285714,5.93393802 2.79108087,6.28571429 2.35714286,6.28571429 L0.785714286,6.28571429 C0.351776268,6.28571429 0,5.93393802 0,5.5 L0,0.785714286 C0,0.351776268 0.351776268,0 0.785714286,0 L21.2142857,0 C21.6482237,0 22,0.351776268 22,0.785714286 Z" id="Path"></path>
            </g>
        </g>
    </g>
</svg>