<?xml version="1.0" encoding="UTF-8"?>
<svg width="9px" height="18px" viewBox="0 0 9 18" version="1.1" xmlns="http://www.w3.org/2000/svg" xmlns:xlink="http://www.w3.org/1999/xlink">
    <title>icon_thermometer</title>
    <g id="Page-1" stroke="none" stroke-width="1" fill="none" fill-rule="evenodd">
        <g id="Apple-TV" transform="translate(-227.000000, -708.000000)" fill="#FFFFFF" fill-rule="nonzero">
            <g id="icon_thermometer" transform="translate(227.000000, 708.000000)">
                <path d="M6.46875,13.5 C6.46875,14.5873125 5.5873125,15.46875 4.5,15.46875 C3.4126875,15.46875 2.53125,14.5873125 2.53125,13.5 C2.53125,12.7146797 2.99116406,12.0369727 3.65625,11.7209531 L3.65625,7.59375 C3.65625,7.12775391 4.03400391,6.75 4.5,6.75 C4.96599609,6.75 5.34375,7.12775391 5.34375,7.59375 L5.34375,11.7209531 C6.00883594,12.0369727 6.46875,12.7146797 6.46875,13.5 Z" id="Shape"></path>
                <path d="M4.5,0 C6.36394922,0 7.875,1.51105078 7.875,3.375 L7.875,10.523918 C8.57503125,11.3171484 9,12.3588633 9,13.5 C9,15.9854063 6.98547656,18 4.5,18 L4.46804297,18 L4.46804297,18 C1.99648828,17.9827383 -0.0125507813,15.9481406 1.11704891e-05,13.4765508 C0.0058359375,12.3445898 0.429785156,11.3117344 1.125,10.523918 L1.125,3.375 C1.125,1.51105078 2.63605078,0 4.5,0 Z M4.5,1.40625 C3.41441016,1.40625 2.53125,2.28944531 2.53125,3.375 L2.53125,11.0556914 C2.14533984,11.493 1.41289453,12.1905703 1.40624449,13.4837227 C1.39760156,15.1814531 2.78057813,16.5818672 4.47778125,16.59375 L4.5,16.59375 C6.20592188,16.59375 7.59375,15.2058867 7.59375,13.5 C7.59375,12.1933477 6.850125,11.487832 6.46875,11.0556914 L6.46875,3.375 C6.46875,2.28944531 5.58555469,1.40625 4.5,1.40625 Z" id="Combined-Shape" opacity="0.4"></path>
            </g>
        </g>
    </g>
</svg>