<?xml version="1.0" encoding="UTF-8"?>
<svg width="14px" height="18px" viewBox="0 0 14 18" version="1.1" xmlns="http://www.w3.org/2000/svg" xmlns:xlink="http://www.w3.org/1999/xlink">
    <title>icon_reports</title>
    <g id="Page-1" stroke="none" stroke-width="1" fill="none" fill-rule="evenodd">
        <g id="Apple-TV" transform="translate(-465.000000, -351.000000)" fill="#FFFFFF" fill-rule="nonzero">
            <g id="file" transform="translate(465.000000, 351.000000)">
                <path d="M7.875,4.78125 L7.875,0 L0.84375,0 C0.376171875,0 0,0.376171875 0,0.84375 L0,17.15625 C0,17.6238281 0.376171875,18 0.84375,18 L12.65625,18 C13.1238281,18 13.5,17.6238281 13.5,17.15625 L13.5,5.625 L8.71875,5.625 C8.2546875,5.625 7.875,5.2453125 7.875,4.78125 Z M13.5,4.28554688 L13.5,4.5 L9,4.5 L9,0 L9.21445313,0 C9.43945312,0 9.65390625,0.087890625 9.81210938,0.24609375 L13.2539062,3.69140625 C13.4121094,3.84960938 13.5,4.0640625 13.5,4.28554688 Z" id="Shape"></path>
            </g>
        </g>
    </g>
</svg>