<?xml version="1.0" encoding="UTF-8"?>
<svg width="30px" height="30px" viewBox="0 0 30 30" version="1.1" xmlns="http://www.w3.org/2000/svg" xmlns:xlink="http://www.w3.org/1999/xlink">
    <title>icon_cctv_inmap</title>
    <g id="Page-1" stroke="none" stroke-width="1" fill="none" fill-rule="evenodd">
        <g id="Apple-TV" transform="translate(-1045.000000, -798.000000)">
            <g id="icon_cctv_inmap" transform="translate(1045.000000, 798.000000)">
                <circle id="Oval" fill="#005C9A" cx="15" cy="15" r="15"></circle>
                <g id="Group-7" transform="translate(6.250000, 7.500000)" fill="#FFFFFF" fill-rule="nonzero">
                    <path d="M17.1598056,7.87201785 L15.4219499,7.11864407 L10.7497918,9.99764026 L15.3277655,11.9821736 C15.6155372,12.106812 15.9513099,11.9779566 16.0778993,11.6943039 L17.4517775,8.61161223 C17.5781921,8.32788369 17.4475005,7.99682871 17.1598056,7.87201785 Z M4.18695611,12.0687442 L1.94445389,12.0687442 L1.94445389,11.1101771 C1.94445389,10.8454762 1.72681348,10.6308936 1.45834042,10.6308936 L0.486113473,10.6308936 C0.217640415,10.6308936 0,10.8454762 0,11.1101771 L0,14.9444453 C0,15.2091463 0.217640415,15.4237288 0.486113473,15.4237288 L1.45834042,15.4237288 C1.72681348,15.4237288 1.94445389,15.2091463 1.94445389,14.9444453 L1.94445389,13.9858783 L4.86113473,13.9858783 C5.26686457,13.9863186 5.63021184,13.7382956 5.7725975,13.3637083 L7.19599851,9.62110315 L5.39829012,8.8869007 L4.18695611,12.0687442 Z" id="Shape" opacity="0.4"></path>
                    <path d="M0.127663125,5.44989318 L3.02109941,0.480444277 C3.26143034,0.0675750041 3.77513052,-0.108288124 4.22502868,0.0682840751 L15.7028722,5.02046037 C16.4412538,5.31022329 16.5310857,6.30101591 15.8570431,6.71347391 L10.1123551,10.2364907 C9.8589657,10.3918998 9.54677528,10.4241929 9.26593247,10.3240449 L0.639037169,6.81770518 C0.370081168,6.72165748 0.15799672,6.51408234 0.0594201385,6.25041187 C-0.0391564426,5.98674141 -0.0141860304,5.69382806 0.127663125,5.44989318 Z" id="Path"></path>
                </g>
            </g>
        </g>
    </g>
</svg>