<?xml version="1.0" encoding="UTF-8"?>
<svg width="20px" height="16px" viewBox="0 0 20 16" version="1.1" xmlns="http://www.w3.org/2000/svg" xmlns:xlink="http://www.w3.org/1999/xlink">
    <title>icon_danger_line</title>
    <defs>
        <polygon id="path-1" points="0.000132859782 0.487 17.3710671 0.487 17.3710671 12.0676 0.000132859782 12.0676"></polygon>
        <polygon id="path-3" points="0.868204956 0.66157492 11.374 0.66157492 11.374 10 0.868204956 10"></polygon>
    </defs>
    <g id="Page-1" stroke="none" stroke-width="1" fill="none" fill-rule="evenodd">
        <g id="Apple-TV" transform="translate(-220.000000, -536.000000)">
            <g id="icon_danger_line" transform="translate(220.000000, 536.000000)">
                <g id="Group-3" transform="translate(0.000000, 0.513000)">
                    <mask id="mask-2" fill="white">
                        <use xlink:href="#path-1"></use>
                    </mask>
                    <g id="Clip-2"></g>
                    <path d="M17.3336,11.3996 L12.8486,0.6356 C12.8116,0.5456 12.7236,0.4866 12.6256,0.4866 L12.1436,0.4866 C11.9826,0.4866 11.8666,0.6416 11.9116,0.7956 L15.0986,11.7206 C15.1586,11.9266 15.3466,12.0676 15.5616,12.0676 L16.8886,12.0676 C17.2326,12.0676 17.4656,11.7176 17.3336,11.3996 M5.2286,0.4866 L4.7456,0.4866 C4.6476,0.4866 4.5606,0.5456 4.5226,0.6356 L0.0376,11.3996 C-0.0944,11.7176 0.1386,12.0676 0.4826,12.0676 L1.8106,12.0676 C2.0246,12.0676 2.2136,11.9266 2.2726,11.7206 L5.4596,0.7956 C5.5046,0.6416 5.3886,0.4866 5.2286,0.4866 M9.7236,8.6906 L7.6476,8.6906 C7.4006,8.6906 7.1946,8.8766 7.1676,9.1216 L6.9136,11.5346 C6.8836,11.8196 7.1066,12.0676 7.3936,12.0676 L9.9776,12.0676 C10.2646,12.0676 10.4876,11.8196 10.4576,11.5346 L10.2026,9.1216 C10.1766,8.8766 9.9696,8.6906 9.7236,8.6906 M8.2456,1.4516 L9.1256,1.4516 C9.2686,1.4516 9.3796,1.3276 9.3656,1.1856 L9.3146,0.7026 C9.3016,0.5806 9.1976,0.4866 9.0746,0.4866 L8.2966,0.4866 C8.1736,0.4866 8.0696,0.5806 8.0566,0.7026 L8.0056,1.1856 C7.9906,1.3276 8.1026,1.4516 8.2456,1.4516 M7.8526,7.7246 L9.5196,7.7246 C9.8056,7.7246 10.0296,7.4766 9.9996,7.1916 L9.8466,5.7446 C9.8206,5.4986 9.6136,5.3126 9.3666,5.3126 L8.0046,5.3126 C7.7576,5.3126 7.5506,5.4986 7.5246,5.7446 L7.3726,7.1916 C7.3416,7.4766 7.5656,7.7246 7.8526,7.7246 M8.0746,4.3476 L9.2966,4.3476 C9.5116,4.3476 9.6796,4.1616 9.6566,3.9476 L9.5186,2.6326 C9.5046,2.5106 9.4016,2.4176 9.2776,2.4176 L8.0926,2.4176 C7.9696,2.4176 7.8656,2.5106 7.8536,2.6326 L7.7136,3.9476 C7.6916,4.1616 7.8596,4.3476 8.0746,4.3476" id="Fill-1" fill="#FFFFFF" opacity="0.4" mask="url(#mask-2)"></path>
                </g>
                <g id="Group-6" transform="translate(8.000000, 5.513000)">
                    <mask id="mask-4" fill="white">
                        <use xlink:href="#path-3"></use>
                    </mask>
                    <g id="Clip-5"></g>
                    <path d="M5.3243,4.1022 L5.4603,6.5822 C5.4663,6.6992 5.5623,6.7902 5.6783,6.7902 L6.5643,6.7902 C6.6803,6.7902 6.7763,6.6992 6.7823,6.5822 L6.9173,4.1022 C6.9243,3.9772 6.8243,3.8712 6.6993,3.8712 L5.5433,3.8712 C5.4173,3.8712 5.3173,3.9772 5.3243,4.1022 L5.3243,4.1022 Z M6.1213,7.1182 C5.6573,7.1182 5.2823,7.4942 5.2823,7.9572 C5.2823,8.4202 5.6573,8.7962 6.1213,8.7962 C6.5843,8.7962 6.9603,8.4202 6.9603,7.9572 C6.9603,7.4942 6.5843,7.1182 6.1213,7.1182 L6.1213,7.1182 Z M11.2563,8.6872 C11.5933,9.2702 11.1703,10.0002 10.4973,10.0002 L1.7443,10.0002 C1.0713,10.0002 0.6503,9.2692 0.9863,8.6872 L5.3633,1.0992 C5.6993,0.5152 6.5433,0.5162 6.8793,1.0992 L11.2563,8.6872 Z" id="Fill-4" fill="#FFFFFF" mask="url(#mask-4)"></path>
                </g>
            </g>
        </g>
    </g>
</svg>