<?xml version="1.0" encoding="UTF-8"?>
<svg width="17px" height="13px" viewBox="0 0 17 13" version="1.1" xmlns="http://www.w3.org/2000/svg" xmlns:xlink="http://www.w3.org/1999/xlink">
    <title>icon_replay</title>
    <g id="Page-1" stroke="none" stroke-width="1" fill="none" fill-rule="evenodd">
        <g id="Apple-TV" transform="translate(-861.000000, -166.000000)" fill="#FFFFFF" fill-rule="nonzero">
            <g id="icon_replay" transform="translate(861.666667, 166.000000)">
                <path d="M3.20527778,6.09388889 L6.22222222,8.69916667 L6.22222222,9.13888889 C6.22222222,9.71388889 5.54722222,10.0125 5.11972222,9.64333333 L0.230833333,5.42111111 C0.0842729275,5.29447501 3.39020877e-05,5.11035883 3.39020877e-05,4.91666667 C3.39020877e-05,4.7229745 0.0842729275,4.53885833 0.230833333,4.41222222 L5.11972222,0.19 C5.54777778,-0.179166667 6.22222222,0.120833333 6.22222222,0.694444444 L6.22222222,1.13416667 L3.20527778,3.73944444 C2.86317484,4.03493106 2.66653141,4.46461937 2.66653141,4.91666667 C2.66653141,5.36871396 2.86317484,5.79840227 3.20527778,6.09388889 Z" id="Path" opacity="0.4"></path>
                <path d="M16,8.06472222 C16,9.77138889 14.9005556,11.4619444 13.6852778,12.3461111 C13.3058333,12.6219444 12.7655556,12.2755556 12.9052778,11.8286111 C13.975,8.40722222 12.7963889,7.12055556 9.77777778,6.77305556 L9.77777778,9.11111111 C9.77777778,9.68611111 9.10277778,9.98472222 8.67527778,9.61555556 L3.78638889,5.39333333 C3.63982848,5.26669723 3.55558946,5.08258106 3.55558946,4.88888889 C3.55558946,4.69519672 3.63982848,4.51108055 3.78638889,4.38444444 L8.67527778,0.162222222 C9.10333333,-0.206944444 9.77777778,0.0930555556 9.77777778,0.666666667 L9.77777778,2.96583333 C13.3661111,3.25 16,4.41666667 16,8.06472222 Z" id="Path"></path>
            </g>
        </g>
    </g>
</svg>