<?xml version="1.0" encoding="UTF-8"?>
<svg width="20px" height="16px" viewBox="0 0 20 16" version="1.1" xmlns="http://www.w3.org/2000/svg" xmlns:xlink="http://www.w3.org/1999/xlink">
    <title>icon_select_setting</title>
    <g id="Symbols" stroke="none" stroke-width="1" fill="none" fill-rule="evenodd">
        <g id="top_nav" transform="translate(-1222.000000, -17.000000)" fill="#1C8B7C" fill-rule="nonzero">
            <g id="filter" transform="translate(1094.000000, 12.000000)">
                <g id="icon_select_setting" transform="translate(128.000000, 5.000000)">
                    <path d="M19.9503125,12.09375 C19.9191137,11.9076212 19.7577874,11.7714195 19.5690625,11.771875 L19.0534375,11.771875 C18.9420461,11.4582531 18.7735854,11.1679497 18.5565625,10.915625 L18.8125,10.46875 C18.9060477,10.3056073 18.8691775,10.0988708 18.725,9.978125 C18.4257719,9.72922663 18.0866179,9.53270747 17.721875,9.396875 C17.5444857,9.32960516 17.3445036,9.40112191 17.25,9.565625 L16.99375,10.0125 C16.6662108,9.95312449 16.3306642,9.95312449 16.003125,10.0125 L15.746875,9.565625 C15.6523714,9.40112191 15.4523893,9.32960516 15.275,9.396875 C14.9105949,9.53342252 14.5715555,9.72987528 14.271875,9.978125 C14.1262766,10.0980438 14.0892081,10.3058922 14.184375,10.46875 L14.440625,10.915625 C14.2236021,11.1679497 14.0551414,11.4582531 13.94375,11.771875 L13.428125,11.771875 C13.2388265,11.7728366 13.0777882,11.9101152 13.046875,12.096875 C12.9828056,12.4806779 12.9828056,12.8724471 13.046875,13.25625 C13.0780738,13.4423788 13.2394001,13.5785805 13.428125,13.578125 L13.94375,13.578125 C14.0551414,13.8917469 14.2236021,14.1820503 14.440625,14.434375 L14.184375,14.88125 C14.0908273,15.0443927 14.1276975,15.2511292 14.271875,15.371875 C14.5711031,15.6207734 14.9102571,15.8172925 15.275,15.953125 C15.4523893,16.0203948 15.6523714,15.9488781 15.746875,15.784375 L16.003125,15.3375 C16.3306642,15.3968755 16.6662108,15.3968755 16.99375,15.3375 L17.25,15.784375 C17.3445036,15.9488781 17.5444857,16.0203948 17.721875,15.953125 C18.0862801,15.8165775 18.4253195,15.6201247 18.725,15.371875 C18.8705984,15.2519562 18.9076669,15.0441078 18.8125,14.88125 L18.55625,14.434375 C18.7732729,14.1820503 18.9417336,13.8917469 19.053125,13.578125 L19.56875,13.578125 C19.7580485,13.5771634 19.9190868,13.4398848 19.95,13.253125 C20.0141729,12.8693394 20.0142785,12.4775701 19.9503125,12.09375 L19.9503125,12.09375 Z M15.6753125,13.496875 C14.7503125,12.29375 16.1221875,10.921875 17.3253125,11.846875 C18.25,13.0496875 16.8784375,14.4215625 15.6753125,13.4965625 L15.6753125,13.496875 Z M19.9503125,2.753125 C19.9191137,2.56699621 19.7577874,2.43079448 19.5690625,2.43125 L19.0534375,2.43125 C18.9420461,2.11762814 18.7735854,1.82732475 18.5565625,1.575 L18.8128125,1.128125 C18.9063602,0.964982344 18.86949,0.758245791 18.7253125,0.6375 C18.4260844,0.388601628 18.0869304,0.192082472 17.7221875,0.05625 C17.5447856,-0.0112517134 17.3446287,0.060147721 17.25,0.2246875 L16.99375,0.6715625 C16.6662108,0.612186994 16.3306642,0.612186994 16.003125,0.6715625 L15.746875,0.2246875 C15.6523714,0.060184408 15.4523893,-0.0113323401 15.275,0.0559375 C14.9105949,0.192485023 14.5715555,0.388937783 14.271875,0.6371875 C14.1262766,0.757106293 14.0892081,0.964954668 14.184375,1.1278125 L14.440625,1.5746875 C14.2236021,1.82701225 14.0551414,2.11731564 13.94375,2.4309375 L13.428125,2.4309375 C13.2388265,2.43189911 13.0777882,2.56917773 13.046875,2.7559375 C12.9828056,3.13974038 12.9828056,3.53150962 13.046875,3.9153125 C13.0780738,4.10144129 13.2394001,4.23764302 13.428125,4.2371875 L13.94375,4.2371875 C14.0551414,4.55080936 14.2236021,4.84111275 14.440625,5.0934375 L14.184375,5.5403125 C14.0908273,5.70345516 14.1276975,5.91019171 14.271875,6.0309375 C14.5711031,6.27983587 14.9102571,6.47635503 15.275,6.6121875 C15.4523893,6.67945734 15.6523714,6.60794059 15.746875,6.4434375 L16.003125,5.9965625 C16.3306642,6.05593801 16.6662108,6.05593801 16.99375,5.9965625 L17.25,6.4434375 C17.3445036,6.60794059 17.5444857,6.67945734 17.721875,6.6121875 C18.0862801,6.47563998 18.4253195,6.27918722 18.725,6.0309375 C18.8705984,5.91101871 18.9076669,5.70317033 18.8125,5.5403125 L18.55625,5.0934375 C18.7732729,4.84111275 18.9417336,4.55080936 19.053125,4.2371875 L19.56875,4.2371875 C19.7580485,4.23622589 19.9190868,4.09894727 19.95,3.9121875 C20.0141729,3.52840189 20.0142785,3.13663265 19.9503125,2.7528125 L19.9503125,2.753125 Z M15.6753125,4.159375 C14.7503125,2.95625 16.1221875,1.58125 17.3253125,2.509375 C18.25,3.7121875 16.8784375,5.0840625 15.6753125,4.1590625 L15.6753125,4.159375 Z" id="Shape"></path>
                    <path d="M13.125,9.4934375 L12.0721875,8.96875 C12.1940631,8.31290565 12.1940631,7.64021935 12.0721875,6.984375 L13.1253125,6.459375 C13.4409375,6.275 13.5628125,5.890625 13.4378125,5.55 C13.1596875,4.79375 12.6284375,4.1 12.1221875,3.49375 C11.8885433,3.21613361 11.4893206,3.14630259 11.1753125,3.328125 L10.2659375,3.853125 C9.75968864,3.42044772 9.17812539,3.08464526 8.5503125,2.8625 L8.5503125,1.8125 C8.54933351,1.44728261 8.28542321,1.13586847 7.9253125,1.075 C7.13904347,0.943195994 6.33623195,0.944252325 5.5503125,1.078125 C5.19498882,1.14192918 4.9366667,1.45149419 4.9375,1.8125 L4.9375,2.865625 C4.30911881,3.08653556 3.72733862,3.42246328 3.221875,3.85625 L2.3125,3.3309375 C1.99853935,3.14884819 1.59913399,3.21871117 1.365625,3.4965625 C0.859375,4.1028125 0.325,4.7965625 0.046875,5.5528125 C-0.0802046122,5.89448981 0.0586321606,6.27794375 0.375,6.4590625 L1.415625,6.9871875 C1.29375102,7.64198148 1.29375102,8.31364352 1.415625,8.9684375 L0.375,9.4934375 C0.0601386115,9.67735543 -0.0780096001,10.0602233 0.046875,10.4028125 C0.325,11.1559375 0.859375,11.8496875 1.365625,12.4559375 C1.59926924,12.7335539 1.99849187,12.8033849 2.3125,12.6215625 L3.221875,12.0996875 C3.72812386,12.5323648 4.30968711,12.8681672 4.9375,13.0903125 L4.9375,14.1403125 C4.93847899,14.5055299 5.20238929,14.816944 5.5625,14.8778125 C6.34741437,15.0121994 7.14946063,15.0121994 7.934375,14.8778125 C8.29123346,14.8137237 8.55070935,14.5028795 8.55,14.1403125 L8.55,13.0903125 C9.17838119,12.8694019 9.76016138,12.5334742 10.265625,12.0996875 L11.175,12.6246875 C11.4889607,12.8067768 11.888366,12.7369138 12.121875,12.4590625 C12.628125,11.8528125 13.175,11.1590625 13.453125,10.4028125 C13.5797699,10.0602282 13.441213,9.67622769 13.125,9.4934375 L13.125,9.4934375 Z M8.396875,9.6278125 C5.990625,11.4778125 3.24375,8.7309375 5.09375,6.3246875 C7.5,4.4746875 10.2471875,7.2215625 8.3971875,9.6278125 L8.396875,9.6278125 Z" id="Shape"></path>
                </g>
            </g>
        </g>
    </g>
</svg>