<?xml version="1.0" encoding="UTF-8"?>
<svg width="14px" height="18px" viewBox="0 0 14 18" version="1.1" xmlns="http://www.w3.org/2000/svg" xmlns:xlink="http://www.w3.org/1999/xlink">
    <title>icon_run_reports</title>
    <g id="Page-1" stroke="none" stroke-width="1" fill="none" fill-rule="evenodd">
        <g id="Apple-TV" transform="translate(-477.000000, -402.000000)" fill="#FFFFFF" fill-rule="nonzero">
            <g id="icon_run_reports" transform="translate(477.000000, 402.000000)">
                <path d="M7.875,4.78125 L7.875,0 L0.84375,0 C0.376171875,0 0,0.376171875 0,0.84375 L0,17.15625 C0,17.6238281 0.376171875,18 0.84375,18 L12.65625,18 C13.1238281,18 13.5,17.6238281 13.5,17.15625 L13.5,5.625 L8.71875,5.625 C8.2546875,5.625 7.875,5.2453125 7.875,4.78125 Z M10.5626953,12.211875 L7.17292969,15.5763281 C6.93914062,15.8087109 6.5615625,15.8087109 6.32777344,15.5763281 L2.93800781,12.211875 C2.58117187,11.8578516 2.83148438,11.25 3.33351562,11.25 L5.625,11.25 L5.625,8.4375 C5.625,8.12671875 5.87671875,7.875 6.1875,7.875 L7.3125,7.875 C7.62328125,7.875 7.875,8.12671875 7.875,8.4375 L7.875,11.25 L10.1664844,11.25 C10.6685156,11.25 10.9188281,11.8578516 10.5626953,12.211875 Z M13.2539062,3.69140625 L9.81210938,0.24609375 C9.65390625,0.087890625 9.43945312,0 9.21445313,0 L9,0 L9,4.5 L13.5,4.5 L13.5,4.28554688 C13.5,4.0640625 13.4121094,3.84960938 13.2539062,3.69140625 Z" id="Shape"></path>
            </g>
        </g>
    </g>
</svg>