<?xml version="1.0" encoding="UTF-8"?>
<svg width="22px" height="22px" viewBox="0 0 22 22" version="1.1" xmlns="http://www.w3.org/2000/svg" xmlns:xlink="http://www.w3.org/1999/xlink">
    <title>icon_ais</title>
    <g id="Page-1" stroke="none" stroke-width="1" fill="none" fill-rule="evenodd">
        <g id="Apple-TV" transform="translate(-972.000000, -910.000000)" fill="#FFFFFF" fill-rule="nonzero">
            <g id="icon_ais" transform="translate(972.000000, 910.000000)">
                <g id="comment-alt-dots" opacity="0.4">
                    <path d="M19.2124756,0 L2.74463938,0 C1.22940487,0.00141853846 0.00141853846,1.22940487 0,2.74463938 L0,15.0955166 C0.00141853846,16.6107511 1.22940487,17.8387374 2.74463938,17.8401559 L6.86159844,17.8401559 L6.86159844,21.4424951 C6.86118054,21.6366565 6.9700775,21.8145246 7.14319388,21.9024424 C7.31631025,21.9903601 7.52417219,21.9733591 7.68070175,21.8584795 L13.037037,17.8401559 L19.2124756,17.8401559 C20.7277101,17.8387374 21.9556965,16.6107511 21.957115,15.0955166 L21.957115,2.74463938 C21.9556965,1.22940487 20.7277101,0.00141853846 19.2124756,0 Z" id="Shape"></path>
                </g>
                <path d="M4.15234375,12 L4.69921875,10.4082031 L7.39941406,10.4082031 L7.95117188,12 L9.08886719,12 L6.50097656,4.88085938 L5.59765625,4.88085938 L3.00976562,12 L4.15234375,12 Z M7.09179688,9.45117188 L5.01171875,9.45117188 L6.04199219,6.34082031 L6.06152344,6.34082031 L7.09179688,9.45117188 Z M11.4630208,12 L11.4630208,4.88085938 L10.3839193,4.88085938 L10.3839193,12 L11.4630208,12 Z M15.594987,12.0585938 C17.2258464,12.0390625 18.0591797,11.3489583 18.094987,9.98828125 C18.094987,9.48372396 17.9371094,9.04101562 17.6213542,8.66015625 C17.3023437,8.27278646 16.8091797,8.03352865 16.141862,7.94238281 C15.8033203,7.9000651 15.5363932,7.86263021 15.3410807,7.83007812 C14.9895182,7.76497396 14.7339844,7.64778646 14.5744792,7.47851562 C14.414974,7.3125 14.3352214,7.12695312 14.3352214,6.921875 C14.3417318,6.58007812 14.4605469,6.32291667 14.6916667,6.15039062 C14.9130208,5.984375 15.1897135,5.90136719 15.5217448,5.90136719 C16.1630208,5.91438802 16.7505859,6.09667969 17.2844401,6.44824219 L17.885026,5.55957031 C17.2307292,5.0875651 16.4608724,4.84179688 15.5754557,4.82226562 C14.8397786,4.82877604 14.2717448,5.02083333 13.8713542,5.3984375 C13.4579427,5.77929688 13.251237,6.28059896 13.251237,6.90234375 C13.251237,7.41992188 13.415625,7.859375 13.744401,8.22070312 C14.0634115,8.57226562 14.5289063,8.7985026 15.1408854,8.89941406 C15.4826823,8.94824219 15.7968099,8.9921875 16.0832682,9.03125 C16.7082682,9.13867188 17.017513,9.45768229 17.0110026,9.98828125 C16.9979818,10.6360677 16.5292318,10.9664714 15.6047526,10.9794922 C14.8235026,10.9729818 14.1496745,10.7369792 13.5832682,10.2714844 L12.8752604,11.0820312 C13.633724,11.7330729 14.5402995,12.0585938 15.594987,12.0585938 Z" id="AIS"></path>
            </g>
        </g>
    </g>
</svg>