<?xml version="1.0" encoding="UTF-8"?>
<svg width="21px" height="20px" viewBox="0 0 21 20" version="1.1" xmlns="http://www.w3.org/2000/svg" xmlns:xlink="http://www.w3.org/1999/xlink">
    <title>icon_show_balloon</title>
    <g id="Page-1" stroke="none" stroke-width="1" fill="none" fill-rule="evenodd">
        <g id="Apple-TV" transform="translate(-413.000000, -91.000000)" fill="#FFFFFF" fill-rule="nonzero">
            <g id="icon_show_balloon" transform="translate(413.777778, 91.000000)">
                <path d="M17.5,0 L2.5,0 C1.11982368,0.00128958042 0.00129209913,1.11764079 0,2.49512671 L0,13.7231969 C0.00129209913,15.1006828 1.11982368,16.217034 2.5,16.2183236 L6.25,16.2183236 L6.25,19.4931774 C6.24961935,19.6696877 6.34880994,19.831386 6.50649584,19.9113112 C6.66418174,19.9912365 6.85351622,19.975781 6.99609375,19.871345 L11.875,16.2183236 L17.5,16.2183236 C18.8801763,16.217034 19.9987079,15.1006828 20,13.7231969 L20,2.49512671 C19.9987079,1.11764079 18.8801763,0.00128958042 17.5,0 Z M11.25,10.2923977 C11.25,10.4646502 11.110089,10.6042885 10.9375,10.6042885 L5.3125,10.6042885 C5.13991102,10.6042885 5,10.4646502 5,10.2923977 L5,9.66861598 C5,9.49636343 5.13991102,9.35672515 5.3125,9.35672515 L10.9375,9.35672515 C11.110089,9.35672515 11.25,9.49636343 11.25,9.66861598 L11.25,10.2923977 Z M15,6.5497076 C15,6.72196016 14.860089,6.86159844 14.6875,6.86159844 L5.3125,6.86159844 C5.13991102,6.86159844 5,6.72196016 5,6.5497076 L5,5.92592593 C5,5.75367337 5.13991102,5.61403509 5.3125,5.61403509 L14.6875,5.61403509 C14.860089,5.61403509 15,5.75367337 15,5.92592593 L15,6.5497076 Z" id="Shape" opacity="0.4"></path>
                <path d="M10.9375,9.35672515 L5.3125,9.35672515 C5.13991102,9.35672515 5,9.49636343 5,9.66861598 L5,10.2923977 C5,10.4646502 5.13991102,10.6042885 5.3125,10.6042885 L10.9375,10.6042885 C11.110089,10.6042885 11.25,10.4646502 11.25,10.2923977 L11.25,9.66861598 C11.25,9.49636343 11.110089,9.35672515 10.9375,9.35672515 Z M14.6875,5.61403509 L5.3125,5.61403509 C5.13991102,5.61403509 5,5.75367337 5,5.92592593 L5,6.5497076 C5,6.72196016 5.13991102,6.86159844 5.3125,6.86159844 L14.6875,6.86159844 C14.860089,6.86159844 15,6.72196016 15,6.5497076 L15,5.92592593 C15,5.75367337 14.860089,5.61403509 14.6875,5.61403509 Z" id="Shape"></path>
            </g>
        </g>
    </g>
</svg>