<?xml version="1.0" encoding="UTF-8"?>
<svg width="28px" height="18px" viewBox="0 0 28 18" version="1.1" xmlns="http://www.w3.org/2000/svg" xmlns:xlink="http://www.w3.org/1999/xlink">
    <title>icon_unfold_small</title>
    <defs>
        <polygon id="path-1" points="0 0 20.57148 0 20.57148 18 0 18"></polygon>
        <polygon id="path-3" points="0.7818 0.867004865 12.7812 0.867004865 12.7812 9.42977015 0.7818 9.42977015"></polygon>
        <polygon id="path-5" points="0 0 14.57148 0 14.57148 18 0 18"></polygon>
        <polygon id="path-7" points="0 0 14.57148 0 14.57148 18 0 18"></polygon>
    </defs>
    <g id="Page-1" stroke="none" stroke-width="1" fill="none" fill-rule="evenodd">
        <g id="Apple-TV" transform="translate(-691.000000, -326.000000)">
            <g id="icon_unfold_small" transform="translate(691.000000, 326.000000)">
                <g id="Group-3">
                    <mask id="mask-2" fill="white">
                        <use xlink:href="#path-1"></use>
                    </mask>
                    <g id="Clip-2"></g>
                    <path d="M18.64308,3.37512 C18.64308,3.64032 18.42588,3.85752 18.16068,3.85752 L6.91068,3.85752 C6.64548,3.85752 6.42828,3.64032 6.42828,3.37512 L6.42828,2.41032 C6.42828,2.14632 6.64548,1.92792 6.91068,1.92792 L18.16068,1.92792 C18.42588,1.92792 18.64308,2.14632 18.64308,2.41032 L18.64308,3.37512 Z M18.64308,15.82992 C18.64308,15.96312 18.53388,16.07112 18.40188,16.07112 L2.16948,16.07112 C2.03748,16.07112 1.92828,15.96312 1.92828,15.82992 L1.92828,5.46432 L18.64308,5.46432 L18.64308,15.82992 Z M1.92828,2.41032 C1.92828,2.14632 2.14548,1.92792 2.41068,1.92792 L4.01748,1.92792 C4.28268,1.92792 4.49988,2.14632 4.49988,2.41032 L4.49988,3.37512 C4.49988,3.64032 4.28268,3.85752 4.01748,3.85752 L2.41068,3.85752 C2.14548,3.85752 1.92828,3.64032 1.92828,3.37512 L1.92828,2.41032 Z M18.64308,-0.00048 L1.92828,-0.00048 C0.86388,-0.00048 -0.00012,0.86352 -0.00012,1.92792 L-0.00012,16.07112 C-0.00012,17.13672 0.86388,18.00072 1.92828,18.00072 L18.64308,18.00072 C19.70748,18.00072 20.57148,17.13672 20.57148,16.07112 L20.57148,1.92792 C20.57148,0.86352 19.70748,-0.00048 18.64308,-0.00048 L18.64308,-0.00048 Z" id="Fill-1" fill="#FFFFFF" opacity="0.4" mask="url(#mask-2)"></path>
                </g>
                <g id="Group-6" transform="translate(14.400000, 7.200000)">
                    <mask id="mask-4" fill="white">
                        <use xlink:href="#path-3"></use>
                    </mask>
                    <g id="Clip-5"></g>
                    <path d="M12.267,6.69204 L5.5818,6.69204 L5.5818,8.91444 C5.5818,9.37284 5.0274,9.60204 4.7034,9.27804 L0.933,5.51364 C0.7314,5.31324 0.7314,4.98684 0.933,4.78524 L4.7034,1.01844 C5.0298,0.69444 5.5818,0.92484 5.5818,1.38324 L5.5818,3.60684 L12.267,3.60684 C12.5526,3.60684 12.7818,3.83604 12.7818,4.12044 L12.7818,6.17844 C12.7818,6.46284 12.5526,6.69204 12.267,6.69204" id="Fill-4" fill="#FFFFFF" mask="url(#mask-4)"></path>
                </g>
                <g id="Group-9">
                    <mask id="mask-6" fill="white">
                        <use xlink:href="#path-5"></use>
                    </mask>
                    <g id="Clip-8"></g>
                    <path d="M12.64308,3.37512 C12.64308,3.64032 12.42588,3.85752 12.16068,3.85752 L6.91068,3.85752 C6.64548,3.85752 6.42828,3.64032 6.42828,3.37512 L6.42828,2.41032 C6.42828,2.14632 6.64548,1.92792 6.91068,1.92792 L12.16068,1.92792 C12.42588,1.92792 12.64308,2.14632 12.64308,2.41032 L12.64308,3.37512 Z M12.64308,15.82992 C12.64308,15.96312 12.53388,16.07112 12.40188,16.07112 L2.16948,16.07112 C2.03748,16.07112 1.92828,15.96312 1.92828,15.82992 L1.92828,5.46432 L12.64308,5.46432 L12.64308,15.82992 Z M1.92828,2.41032 C1.92828,2.14632 2.14548,1.92792 2.41068,1.92792 L4.01868,1.92792 C4.28268,1.92792 4.49988,2.14632 4.49988,2.41032 L4.49988,3.37512 C4.49988,3.64032 4.28268,3.85752 4.01868,3.85752 L2.41068,3.85752 C2.14548,3.85752 1.92828,3.64032 1.92828,3.37512 L1.92828,2.41032 Z M12.64308,-0.00048 L1.92828,-0.00048 C0.86388,-0.00048 -0.00012,0.86352 -0.00012,1.92792 L-0.00012,16.07112 C-0.00012,17.13672 0.86388,18.00072 1.92828,18.00072 L12.64308,18.00072 C13.70748,18.00072 14.57148,17.13672 14.57148,16.07112 L14.57148,1.92792 C14.57148,0.86352 13.70748,-0.00048 12.64308,-0.00048 L12.64308,-0.00048 Z" id="Fill-7" fill="#FFFFFF" mask="url(#mask-6)"></path>
                </g>
                <g id="Group-12">
                    <mask id="mask-8" fill="white">
                        <use xlink:href="#path-7"></use>
                    </mask>
                    <g id="Clip-11"></g>
                    <path d="M12.64308,3.37512 C12.64308,3.64032 12.42588,3.85752 12.16068,3.85752 L6.91068,3.85752 C6.64548,3.85752 6.42828,3.64032 6.42828,3.37512 L6.42828,2.41032 C6.42828,2.14632 6.64548,1.92792 6.91068,1.92792 L12.16068,1.92792 C12.42588,1.92792 12.64308,2.14632 12.64308,2.41032 L12.64308,3.37512 Z M12.64308,15.82992 C12.64308,15.96312 12.53388,16.07112 12.40188,16.07112 L2.16948,16.07112 C2.03748,16.07112 1.92828,15.96312 1.92828,15.82992 L1.92828,5.46432 L12.64308,5.46432 L12.64308,15.82992 Z M1.92828,2.41032 C1.92828,2.14632 2.14548,1.92792 2.41068,1.92792 L4.01868,1.92792 C4.28268,1.92792 4.49988,2.14632 4.49988,2.41032 L4.49988,3.37512 C4.49988,3.64032 4.28268,3.85752 4.01868,3.85752 L2.41068,3.85752 C2.14548,3.85752 1.92828,3.64032 1.92828,3.37512 L1.92828,2.41032 Z M12.64308,-0.00048 L1.92828,-0.00048 C0.86388,-0.00048 -0.00012,0.86352 -0.00012,1.92792 L-0.00012,16.07112 C-0.00012,17.13672 0.86388,18.00072 1.92828,18.00072 L12.64308,18.00072 C13.70748,18.00072 14.57148,17.13672 14.57148,16.07112 L14.57148,1.92792 C14.57148,0.86352 13.70748,-0.00048 12.64308,-0.00048 L12.64308,-0.00048 Z" id="Fill-10" fill="#FFFFFF" mask="url(#mask-8)"></path>
                </g>
            </g>
        </g>
    </g>
</svg>