<?xml version="1.0" encoding="UTF-8"?>
<svg width="23px" height="24px" viewBox="0 0 23 24" version="1.1" xmlns="http://www.w3.org/2000/svg" xmlns:xlink="http://www.w3.org/1999/xlink">
    <title>icon_abnormal_event</title>
    <g id="Page-1" stroke="none" stroke-width="1" fill="none" fill-rule="evenodd">
        <g id="Apple-TV" transform="translate(-984.000000, -528.000000)" fill="#FFFFFF" fill-rule="nonzero">
            <g id="icon_abnormal_event" transform="translate(984.000000, 528.000000)">
                <path d="M13.6674118,22.6642327 C13.144098,22.6142263 12.6433889,22.4452463 12.25935,22.1866715 C11.9161862,21.9530722 11.4304657,21.9530722 11.087302,22.1866715 C10.1658515,22.8207111 8.4806983,22.8207111 7.5446641,22.1554175 C7.21652955,21.9218459 6.74255741,21.9656015 6.40931854,22.1929223 C5.48568054,22.8207111 3.81024982,22.8180024 2.87883381,22.1575011 C2.55069926,21.9239295 2.06919219,21.9718523 1.73352269,22.1991731 C1.35677561,22.4535807 0.858497216,22.6183935 0.33056518,22.6663163 C0.1385457,22.6829851 0,22.8290455 0,22.9938583 L0,23.6654027 C0,23.8552187 0.1847276,24.0156559 0.405914596,23.9987788 C1.10617804,23.9466887 1.76998209,23.76104 2.33680414,23.4587095 C3.71059414,24.1802603 5.6667622,24.1698423 7.00360668,23.4587095 C8.37715361,24.1802603 10.3335647,24.1698423 11.6704092,23.4587095 C12.255565,23.7610543 12.9134374,23.9450459 13.5940069,23.9966952 C13.8151939,24.013364 14.0000754,23.8529267 14.0000754,23.6633191 L14.0000754,23.0042763 C14.0038105,22.8375883 13.8628342,22.6829851 13.6659534,22.6642327 L13.6674118,22.6642327 Z M4.5,14.2527212 L10.5,14.2527212 L10.5,16.4770234 L12,17 L12,13.4395409 C12,12.9904338 11.6642136,12.6263606 11.25,12.6263606 L9.75,12.6263606 L9.75,11.6098852 C9.75,11.2730549 9.49816017,11 9.1875,11 L5.8125,11 C5.50183983,11 5.25,11.2730549 5.25,11.6098852 L5.25,12.6263606 L3.75,12.6263606 C3.33578644,12.6263606 3,12.9904338 3,13.4395409 L3,17 L4.5,16.4770234 L4.5,14.2527212 Z" id="Shape" opacity="0.4"></path>
                <path d="M13.9629199,18.1247527 C13.9232671,18.2660619 13.8550488,18.3945302 13.7638684,18.4996055 L11.4153655,21.1072137 C11.0266435,21.544701 10.5062833,21.7928271 9.96259432,21.7999464 L9.94989971,21.7999464 C9.41088656,21.7999464 8.91427341,21.6211389 8.58802192,21.3099789 C8.29183361,21.0263811 7.91788691,20.8727609 7.53259203,20.8764002 C7.11223213,20.8799503 6.70520928,21.0466132 6.37738249,21.3494218 C6.06306394,21.6357474 5.58726995,21.7999464 5.07136099,21.7999464 L5.05841248,21.7999464 C4.50278249,21.7928309 3.97094919,21.5393607 3.57365087,21.0923131 L1.23784258,18.4996055 C1.03767695,18.2691533 0.956208639,17.9354027 1.02281804,17.618716 C1.08942743,17.3020293 1.29450561,17.048091 1.56409406,16.9484804 L7.25127946,14.8448637 C7.41290009,14.7849739 7.58677978,14.7849739 7.7484004,14.8448637 L13.4355858,16.9484804 C13.6408108,17.0241962 13.8114853,17.1906423 13.9100504,17.4111905 C14.0086155,17.6317387 14.0269944,17.8883162 13.9611427,18.1244605 L13.9611427,18.1244605 L13.9629199,18.1247527 Z" id="Path"></path>
                <g id="icon_epic" transform="translate(8.000000, 1.000000)">
                    <path d="M14.5923461,11.2737608 L8.44455931,0.614932409 C7.97208624,-0.20497747 6.78706024,-0.20497747 6.31381851,0.614932409 L0.16603175,11.2737608 C-0.305928873,12.0921334 0.284918683,13.1185581 1.23114593,13.1185581 L13.5269757,13.1185581 C14.4716656,13.1185581 15.065844,12.0936707 14.5923461,11.2737608 Z M7.37918891,11.4787383 C6.92636519,11.4787383 6.55927903,11.1116521 6.55927903,10.6588284 C6.55927903,10.2060047 6.92636519,9.83891854 7.37918891,9.83891854 C7.83201263,9.83891854 8.19909879,10.2060047 8.19909879,10.6588284 C8.19909879,11.1116521 7.83201263,11.4787383 7.37918891,11.4787383 Z M8.35898121,5.37015348 L8.03101726,8.649793 C8.01008617,8.85937779 7.83373949,9.01900867 7.6231121,9.01900867 L7.13629061,9.01900867 C6.92566322,9.01900867 6.74931654,8.85937779 6.72838544,8.649793 L6.40042149,5.37015348 C6.38893007,5.25509277 6.4265653,5.14052992 6.50405179,5.05469948 C6.58153828,4.96886904 6.69166902,4.91975411 6.80730177,4.91945927 L7.95107605,4.91945927 C8.06688739,4.91945927 8.17729332,4.96845468 8.25500675,5.05432021 C8.33272018,5.14018574 8.37048997,5.2549154 8.35898121,5.37015348 L8.35898121,5.37015348 Z" id="Shape"></path>
                </g>
            </g>
        </g>
    </g>
</svg>