<?xml version="1.0" encoding="UTF-8"?>
<svg width="22px" height="22px" viewBox="0 0 22 22" version="1.1" xmlns="http://www.w3.org/2000/svg" xmlns:xlink="http://www.w3.org/1999/xlink">
    <title>icon_upload</title>
    <g id="Page-1" stroke="none" stroke-width="1" fill="none" fill-rule="evenodd">
        <g id="Apple-TV" transform="translate(-990.000000, -785.000000)" fill="#FFFFFF" fill-rule="nonzero">
            <g id="icon_upload" transform="translate(990.000000, 785.000000)">
                <path d="M0,19.7958505 L0,13.879011 C0,13.2939989 0.480563028,12.8197529 1.07336756,12.8197529 L7.06901989,12.8197529 C8.02521149,12.8197529 8.50420177,13.9606622 7.82932191,14.6293189 L5.96210959,16.4719867 C7.35252615,17.7613635 9.19066737,18.476057 11.0986206,18.4691297 C14.5606783,18.4660402 17.5526903,16.1237556 18.3787361,12.870509 C18.4374447,12.633544 18.6525725,12.466802 18.8997666,12.4666667 L21.4628789,12.4666667 C21.6223594,12.4665399 21.7736361,12.5364146 21.875699,12.6573484 C21.977762,12.7782822 22.0200376,12.9377466 21.9910652,13.0925119 C21.0232455,18.1637103 16.5115238,22 11.0914648,22 C8.236699,22.0037621 5.49116917,20.9173608 3.42985661,18.9683051 L1.83366959,20.5435103 C1.15610631,21.212167 0,20.739473 0,19.7958505 Z" id="Path" opacity="0.4"></path>
                <path d="M0.00893491488,8.9074883 C0.976327101,3.8362898 5.48814049,0 10.9083097,0 C13.7631335,-0.00376214797 16.5087192,1.08263927 18.5700737,3.03169495 L20.1662931,1.45648978 C20.8425284,0.789157127 22,1.26185109 22,2.20679765 L22,8.1209891 C22,8.70600124 21.5194272,9.18024728 20.9266106,9.18024728 L14.9308364,9.18024728 C13.9746253,9.18024728 13.4956253,8.03933795 14.1705189,7.37068123 L16.0377692,5.52801337 C14.6474864,4.23866426 12.8094558,3.52396609 10.901601,3.53087036 C7.43723672,3.53395986 4.44650554,5.87800993 3.62089021,9.12949116 C3.56218042,9.36645615 3.34704831,9.53319813 3.09984911,9.53333333 L0.536684697,9.53333333 C0.377279247,9.53333333 0.226124312,9.4633984 0.124160447,9.34248205 C0.0221965831,9.2215657 -0.020023742,9.06217761 0.00893491488,8.9074883 L0.00893491488,8.9074883 Z" id="Path"></path>
            </g>
        </g>
    </g>
</svg>