<?xml version="1.0" encoding="UTF-8"?>
<svg width="22px" height="20px" viewBox="0 0 22 20" version="1.1" xmlns="http://www.w3.org/2000/svg" xmlns:xlink="http://www.w3.org/1999/xlink">
    <title>icon_cctv</title>
    <g id="Page-1" stroke="none" stroke-width="1" fill="none" fill-rule="evenodd">
        <g id="Apple-TV" transform="translate(-992.000000, -836.000000)" fill="#FFFFFF" fill-rule="nonzero">
            <g id="icon_cctv" transform="translate(992.000000, 836.000000)">
                <path d="M21.5723271,9.89625101 L19.3875942,8.94915254 L13.514024,12.568462 L19.2691909,15.0633039 C19.6309611,15.2199922 20.0530752,15.0580026 20.2122163,14.7014106 L21.9393775,10.8260268 C22.0982986,10.4693395 21.9340006,10.0531561 21.5723271,9.89625101 Z M5.26360197,15.1721355 L2.44445632,15.1721355 L2.44445632,13.9670798 C2.44445632,13.6343129 2.17085123,13.364552 1.83334224,13.364552 L0.611114081,13.364552 C0.273605094,13.364552 0,13.6343129 0,13.9670798 L0,18.7873027 C0,19.1200696 0.273605094,19.3898305 0.611114081,19.3898305 L1.83334224,19.3898305 C2.17085123,19.3898305 2.44445632,19.1200696 2.44445632,18.7873027 L2.44445632,17.5822469 L6.11114081,17.5822469 C6.62120117,17.5828006 7.0779806,17.2710002 7.25697971,16.8000905 L9.04639813,12.0951011 L6.78642187,11.1721037 L5.26360197,15.1721355 Z" id="Shape" opacity="0.4"></path>
                <path d="M0.160490786,6.85129428 L3.79795354,0.603987091 C4.10008385,0.0849514337 4.74587836,-0.136133642 5.31146463,0.0858428373 L19.7407536,6.31143589 C20.6690048,6.67570927 20.7819363,7.92127714 19.9345685,8.43979578 L12.712675,12.8687311 C12.3941283,13.0641026 12.0016604,13.1046997 11.6486008,12.9787993 L0.803361013,8.57082937 C0.465244897,8.45008369 0.198624447,8.18913208 0.0746996027,7.85766064 C-0.0492252421,7.5261892 -0.0178338667,7.15795528 0.160490786,6.85129428 Z" id="Path"></path>
            </g>
        </g>
    </g>
</svg>