<?xml version="1.0" encoding="UTF-8"?>
<svg width="18px" height="18px" viewBox="0 0 18 18" version="1.1" xmlns="http://www.w3.org/2000/svg" xmlns:xlink="http://www.w3.org/1999/xlink">
    <title>icon_search</title>
    <g id="Symbols" stroke="none" stroke-width="1" fill="none" fill-rule="evenodd">
        <g id="top_nav_進出港查詢" transform="translate(-878.000000, -16.000000)" fill="#FFFFFF" fill-rule="nonzero">
            <g id="常駐功能" transform="translate(6.000000, 9.000000)">
                <g id="run-reports" transform="translate(862.000000, 0.000000)">
                    <g id="icon_search" transform="translate(10.000000, 7.000000)">
                        <path d="M17.5605,15.4395 L13.75275,11.63175 C14.5395,10.446 15,9.02625 15,7.5 C15,3.3645 11.6355,0 7.5,0 C3.3645,0 0,3.3645 0,7.5 C0,11.6355 3.3645,15 7.5,15 C9.02625,15 10.446,14.5395 11.63175,13.75275 L15.4395,17.5605 C16.0245,18.14625 16.9755,18.14625 17.5605,17.5605 C18.14625,16.97475 18.14625,16.02525 17.5605,15.4395 L17.5605,15.4395 Z M2.25,7.5 C2.25,4.605 4.605,2.25 7.5,2.25 C10.395,2.25 12.75,4.605 12.75,7.5 C12.75,10.395 10.395,12.75 7.5,12.75 C4.605,12.75 2.25,10.395 2.25,7.5 Z" id="XMLID_223_"></path>
                    </g>
                </g>
            </g>
        </g>
    </g>
</svg>