<?xml version="1.0" encoding="UTF-8"?>
<svg width="22px" height="22px" viewBox="0 0 22 22" version="1.1" xmlns="http://www.w3.org/2000/svg" xmlns:xlink="http://www.w3.org/1999/xlink">
    <title>icon_radius</title>
    <g id="Symbols" stroke="none" stroke-width="1" fill="none" fill-rule="evenodd">
        <g id="new_nav_tool2" transform="translate(-104.000000, -343.000000)" fill="#FFFFFF" fill-rule="nonzero">
            <g id="side-nav" transform="translate(15.000000, 154.000000)">
                <g id="Group-5-Copy" transform="translate(70.000000, 170.000000)">
                    <g id="icon_radius" transform="translate(19.000000, 19.000000)">
                        <path d="M11.9777367,0.272990254 C12.3559021,0.307046145 12.6348579,0.641217529 12.600802,1.01938293 C12.5667461,1.39754833 12.2325748,1.67650421 11.8544094,1.64244831 C11.5716208,1.61698164 11.2866375,1.60416667 11,1.60416667 C10.6203042,1.60416667 10.3125,1.29636243 10.3125,0.916666667 C10.3125,0.536970901 10.6203042,0.229166667 11,0.229166667 C11.3278229,0.229166667 11.6539567,0.24383207 11.9777367,0.272990254 Z M15.7499813,1.33060384 C16.0906598,1.49825543 16.2309258,1.91033836 16.0632742,2.25101683 C15.8956226,2.5916953 15.4835397,2.7319613 15.1428612,2.56430971 C14.8874806,2.43863412 14.6264055,2.32463304 14.3603606,2.22271159 C14.0057933,2.08687736 13.8284752,1.68932842 13.9643094,1.33476116 C14.1001436,0.980193908 14.4976926,0.802875754 14.8522598,0.93870998 C15.1575105,1.0556511 15.4570304,1.1864395 15.7499813,1.33060384 Z M21.0245653,7.05322113 C21.1637536,7.40648518 20.9902109,7.80569669 20.6369469,7.94488498 C20.2836828,8.08407327 19.8844713,7.91053057 19.745283,7.55726651 C19.6408533,7.2922207 19.5243898,7.0322397 19.3963051,6.77805029 C19.2254443,6.43896997 19.3618132,6.02558102 19.7008935,5.85472023 C20.0399738,5.68385944 20.4533628,5.82022832 20.6242235,6.15930864 C20.7711439,6.4508782 20.9047511,6.74912892 21.0245653,7.05322113 Z M21.7692444,10.8132207 C21.7757078,11.1928615 21.4731879,11.5058608 21.0935471,11.5123242 C20.7139064,11.5187876 20.4009071,11.2162677 20.3944436,10.8366269 C20.3895684,10.5502715 20.371877,10.2657035 20.341541,9.98347391 C20.3009623,9.60595272 20.5741083,9.26701584 20.9516294,9.22643719 C21.3291506,9.18585855 21.6680875,9.45900446 21.7086662,9.83652565 C21.743412,10.1597818 21.7636661,10.4855722 21.7692444,10.8132207 Z M21.1244458,14.6831471 C20.9946143,15.0399561 20.6001142,15.2239578 20.2433052,15.0941263 C19.8864962,14.9642948 19.7024946,14.5697948 19.8323261,14.2129858 C19.9295535,13.9457807 20.0146045,13.673986 20.0871573,13.3982887 C20.1837884,13.0310949 20.5597928,12.8117605 20.9269867,12.9083916 C21.2941805,13.0050227 21.5135149,13.3810271 21.4168838,13.7482209 C21.3336248,14.0646012 21.2360203,14.3765126 21.1244458,14.6831471 Z M19.137849,18.0561768 C18.8889916,18.3429501 18.4547773,18.373687 18.168004,18.1248297 C17.8812307,17.8759724 17.8504938,17.441758 18.0993511,17.1549848 C18.2861257,16.9397531 18.4630726,16.7161847 18.6295883,16.4850001 C18.8515014,16.1769036 19.281159,16.1070382 19.5892555,16.3289513 C19.897352,16.5508644 19.9672175,16.980522 19.7453044,17.2886185 C19.5545213,17.5534952 19.3518069,17.8096202 19.137849,18.0561768 Z M16.0252591,20.5289714 C15.6895467,20.7063581 15.2735977,20.5780098 15.096211,20.2422974 C14.9188242,19.906585 15.0471725,19.490636 15.3828849,19.3132492 C15.6347354,19.1801742 15.8803886,19.0356797 16.1191042,18.8802665 C16.4373066,18.6731044 16.8631986,18.7631203 17.0703607,19.0813227 C17.2775228,19.399525 17.1875069,19.8254171 16.8693046,20.0325792 C16.5956655,20.2107288 16.3140353,20.3763852 16.0252591,20.5289714 Z M12.3466461,21.6873933 C11.9698735,21.7344176 11.6263183,21.4671038 11.5792939,21.0903312 C11.5322696,20.7135586 11.7995834,20.3700033 12.176356,20.322979 C12.4598107,20.2876015 12.7405835,20.239444 13.0180563,20.1787379 C13.3889785,20.0975866 13.7554566,20.3324924 13.8366079,20.7034147 C13.9177591,21.074337 13.6828533,21.440815 13.311931,21.5219663 C12.9936461,21.5916015 12.6716363,21.6468318 12.3466461,21.6873933 Z M8.4191501,21.4594876 C8.05044407,21.3687972 7.82506786,20.9963828 7.91575823,20.6276768 C8.0064486,20.2589708 8.37886296,20.0335946 8.74756898,20.1242849 C9.0234201,20.1921358 9.30281177,20.2474896 9.58511116,20.2900989 C9.96055438,20.3467669 10.2189727,20.6970623 10.1623047,21.0725055 C10.1056366,21.4479487 9.75534124,21.7063671 9.37989803,21.649699 C9.05613617,21.6008316 8.735634,21.5373329 8.4191501,21.4594876 Z M4.81799799,19.8211208 C4.50723608,19.6029559 4.43217133,19.1741761 4.65033619,18.8634141 C4.86850105,18.5526522 5.29728093,18.4775875 5.60804284,18.6957523 C5.84119468,18.8594324 6.08164414,19.0124522 6.32865226,19.1542837 C6.65792704,19.3433524 6.77158649,19.7635529 6.58251774,20.0928277 C6.39344899,20.4221025 5.97324854,20.5357619 5.64397375,20.3466932 C5.36081088,20.1841017 5.08520517,20.0087088 4.81799799,19.8211208 Z M2.07703475,17.0343374 C1.8640639,16.7199932 1.94624324,16.2925199 2.26058746,16.079549 C2.57493168,15.8665781 3.00240501,15.9487575 3.21537587,16.2631017 C3.37519416,16.4989929 3.54567092,16.7275587 3.72622234,16.9480707 C3.96676581,17.2418524 3.92360766,17.6750086 3.62982591,17.9155521 C3.33604416,18.1560955 2.90288799,18.1129374 2.66234453,17.8191556 C2.45549456,17.5665246 2.26016918,17.3046432 2.07703475,17.0343374 Z M0.518466256,13.4894922 C0.431017484,13.1200039 0.659655677,12.7495832 1.02914395,12.6621345 C1.39863223,12.5746857 1.7690529,12.8033239 1.85650167,13.1728122 C1.92217655,13.4503015 2.00042157,13.7241251 2.09093315,13.9936073 C2.2118256,14.3535433 2.01804256,14.7433317 1.65810661,14.8642242 C1.29817066,14.9851166 0.908382225,14.7913336 0.787489768,14.4313976 C0.683620502,14.1221452 0.593828078,13.8079107 0.518466256,13.4894922 Z M0.32649505,9.54643186 C0.377287277,9.17014869 0.723500292,8.90628614 1.09978346,8.95707837 C1.47606663,9.0078706 1.73992918,9.35408361 1.68913695,9.73036678 C1.65117306,10.011614 1.62583868,10.2954305 1.61331891,10.5812483 C1.59670289,10.9605803 1.27572359,11.2546198 0.896391573,11.2380037 C0.517059551,11.2213877 0.223020128,10.9004084 0.23963614,10.5210764 C0.253970427,10.1938346 0.282991039,9.86872186 0.32649505,9.54643186 Z M1.55616709,5.81681847 C1.73913348,5.48411414 2.1571672,5.36272756 2.48987153,5.54569396 C2.82257587,5.72866035 2.94396245,6.14669407 2.76099605,6.4793984 C2.62378218,6.72890678 2.4979814,6.98458216 2.38403528,7.24569037 C2.2321691,7.59369258 1.82694571,7.75269226 1.4789435,7.60082609 C1.13094129,7.44895992 0.971941611,7.04373652 1.12380778,6.69573431 C1.25451741,6.39621244 1.39880784,6.10295901 1.55616709,5.81681847 Z M4.03370918,2.78500729 C4.32318791,2.5393023 4.75704003,2.57478793 5.00274502,2.86426666 C5.24845,3.15374539 5.21296437,3.58759751 4.92348564,3.8333025 C4.70618841,4.01774097 4.49730692,4.21194836 4.29753279,4.41527041 C4.03142077,4.68610849 3.59613671,4.68993972 3.32529863,4.4238277 C3.05446055,4.15771568 3.05062932,3.72243162 3.31674134,3.45159354 C3.54555772,3.21871344 3.78480809,2.99627061 4.03370918,2.78500729 Z M7.50487542,0.809117283 C7.86404335,0.685961777 8.25504374,0.877287642 8.37819924,1.23645556 C8.50135475,1.59562348 8.31002889,1.98662388 7.95086096,2.10977938 C7.68130239,2.20220864 7.41635945,2.3068754 7.15674682,2.4234024 C6.81034511,2.57888464 6.40348777,2.42411383 6.24800553,2.07771212 C6.09252328,1.73131041 6.24729409,1.32445308 6.59369581,1.16897083 C6.89155278,1.03527787 7.19555629,0.915180083 7.50487542,0.809117283 Z M10.9874829,0.229173339 C11.3671784,0.228741359 11.675333,0.536194835 11.6757659,0.915890355 C11.6761979,1.29558587 11.3687444,1.60374047 10.9890489,1.6041729 C10.7944267,1.60439456 10.600561,1.610525 10.4076191,1.62251486 C10.0286543,1.64606463 9.70235181,1.35794386 9.67880204,0.978979111 C9.65525227,0.60001436 9.94337304,0.27371187 10.3223378,0.250162101 C10.5431465,0.236440523 10.7649302,0.22942726 10.9874829,0.229173339 Z" id="Oval" opacity="0.6"></path>
                        <path d="M11,8.25 C12.5187831,8.25 13.75,9.48121694 13.75,11 C13.75,12.5187831 12.5187831,13.75 11,13.75 C9.48121694,13.75 8.25,12.5187831 8.25,11 C8.25,9.48121694 9.48121694,8.25 11,8.25 Z M11,9.44166667 C10.1393563,9.44166667 9.44166667,10.1393563 9.44166667,11 C9.44166667,11.8606437 10.1393563,12.5583333 11,12.5583333 C11.8606437,12.5583333 12.5583333,11.8606437 12.5583333,11 C12.5583333,10.1393563 11.8606437,9.44166667 11,9.44166667 Z" id="Oval"></path>
                        <path d="M18.7916667,1.83333333 C20.0573192,1.83333333 21.0833333,2.85934745 21.0833333,4.125 C21.0833333,5.39065255 20.0573192,6.41666667 18.7916667,6.41666667 C17.5260141,6.41666667 16.5,5.39065255 16.5,4.125 C16.5,2.85934745 17.5260141,1.83333333 18.7916667,1.83333333 Z M18.7916667,3.32291667 C18.3486883,3.32291667 17.9895833,3.68202161 17.9895833,4.125 C17.9895833,4.56797839 18.3486883,4.92708333 18.7916667,4.92708333 C19.2346451,4.92708333 19.59375,4.56797839 19.59375,4.125 C19.59375,3.68202161 19.2346451,3.32291667 18.7916667,3.32291667 Z" id="Oval-Copy"></path>
                        <polygon id="Line-3" points="17 5 17.8322397 5.99868766 12.8322397 9.99868766 12 9"></polygon>
                    </g>
                </g>
            </g>
        </g>
    </g>
</svg>