<?xml version="1.0" encoding="UTF-8"?>
<svg width="22px" height="22px" viewBox="0 0 22 22" version="1.1" xmlns="http://www.w3.org/2000/svg" xmlns:xlink="http://www.w3.org/1999/xlink">
    <title>icon_measure</title>
    <g id="Page-1" stroke="none" stroke-width="1" fill="none" fill-rule="evenodd">
        <g id="Apple-TV" transform="translate(-982.000000, -479.000000)" fill="#FFFFFF" fill-rule="nonzero">
            <g id="icon_measure" transform="translate(982.000000, 479.000000)">
                <path d="M22,16.5 L22,20.625 C22,21.3843915 21.3843915,22 20.625,22 L1.375,22 C1.25640625,22 1.14984375,21.9608984 1.03984375,21.9325391 L7.84738281,15.125 L9.625,15.125 L9.625,17.53125 C9.625,17.7210979 9.77890212,17.875 9.96875,17.875 L10.65625,17.875 C10.8460979,17.875 11,17.7210979 11,17.53125 L11,15.125 L13.75,15.125 L13.75,17.53125 C13.75,17.7210979 13.9039021,17.875 14.09375,17.875 L14.78125,17.875 C14.9710979,17.875 15.125,17.7210979 15.125,17.53125 L15.125,15.125 L17.875,15.125 L17.875,17.53125 C17.875,17.7210979 18.0289021,17.875 18.21875,17.875 L18.90625,17.875 C19.0960979,17.875 19.25,17.7210979 19.25,17.53125 L19.25,15.125 L20.625,15.125 C21.3843915,15.125 22,15.7406085 22,16.5 Z M6.875,12.375 L4.46875,12.375 C4.27890212,12.375 4.125,12.2210979 4.125,12.03125 L4.125,11.34375 C4.125,11.1539021 4.27890212,11 4.46875,11 L6.875,11 L6.875,8.25 L4.46875,8.25 C4.27890212,8.25 4.125,8.09609788 4.125,7.90625 L4.125,7.21875 C4.125,7.02890212 4.27890212,6.875 4.46875,6.875 L6.875,6.875 L6.875,4.125 L4.46875,4.125 C4.27890212,4.125 4.125,3.97109788 4.125,3.78125 L4.125,3.09375 C4.125,2.90390212 4.27890212,2.75 4.46875,2.75 L6.875,2.75 L6.875,1.375 C6.875,0.615608469 6.25939153,0 5.5,0 L1.375,0 C0.615608469,0 0,0.615608469 0,1.375 L0,20.625 C0,20.7440234 0.0391015625,20.8501563 0.0674609375,20.9601563 L6.875,14.1530469 L6.875,12.375 Z" id="Shape" opacity="0.4"></path>
                <path d="M4.125,11.34375 L4.125,12.03125 C4.125,12.2210979 4.27890212,12.375 4.46875,12.375 L6.875,12.375 L6.875,11 L4.46875,11 C4.27890212,11 4.125,11.1539021 4.125,11.34375 Z M4.125,3.09375 L4.125,3.78125 C4.125,3.97109788 4.27890212,4.125 4.46875,4.125 L6.875,4.125 L6.875,2.75 L4.46875,2.75 C4.27890212,2.75 4.125,2.90390212 4.125,3.09375 Z M4.125,7.21875 L4.125,7.90625 C4.125,8.09609788 4.27890212,8.25 4.46875,8.25 L6.875,8.25 L6.875,6.875 L4.46875,6.875 C4.27890212,6.875 4.125,7.02890212 4.125,7.21875 Z M17.875,15.125 L17.875,17.53125 C17.875,17.7210979 18.0289021,17.875 18.21875,17.875 L18.90625,17.875 C19.0960979,17.875 19.25,17.7210979 19.25,17.53125 L19.25,15.125 L17.875,15.125 Z M9.625,17.53125 C9.625,17.7210979 9.77890212,17.875 9.96875,17.875 L10.65625,17.875 C10.8460979,17.875 11,17.7210979 11,17.53125 L11,15.125 L9.625,15.125 L9.625,17.53125 Z M13.75,17.53125 C13.75,17.7210979 13.9039021,17.875 14.09375,17.875 L14.78125,17.875 C14.9710979,17.875 15.125,17.7210979 15.125,17.53125 L15.125,15.125 L13.75,15.125 L13.75,17.53125 Z" id="Shape"></path>
            </g>
        </g>
    </g>
</svg>