<?xml version="1.0" encoding="UTF-8"?>
<svg width="16px" height="16px" viewBox="0 0 16 16" version="1.1" xmlns="http://www.w3.org/2000/svg" xmlns:xlink="http://www.w3.org/1999/xlink">
    <title>icon_user_setting</title>
    <g id="Page-1" stroke="none" stroke-width="1" fill="none" fill-rule="evenodd">
        <g id="Apple-TV" transform="translate(-257.000000, -91.000000)" fill="#00B0C7" fill-rule="nonzero">
            <g id="icon_user_setting" transform="translate(257.888889, 91.000000)">
                <path d="M13.615612,7.12655602 L14.6065768,6.55450207 C14.899917,6.38517635 15.0421369,6.03970954 14.9544087,5.71257261 C14.5995124,4.38899378 13.9012344,3.20592324 12.9609025,2.2645332 C12.7218983,2.02528008 12.351722,1.97679461 12.0588797,2.14593361 L11.0697199,2.71724066 C10.7483924,2.48728688 10.4055098,2.28905511 10.0458921,2.12533195 L10.0458921,0.98156639 C10.0458521,0.642827521 9.81799718,0.346470484 9.49064315,0.259387967 C8.19102697,-0.0862655602 6.81065353,-0.0867012448 5.50941909,0.259356846 C5.18206432,0.346431535 4.95410788,0.642790456 4.95410788,0.98153527 L4.95410788,2.12530083 C4.59449022,2.28902399 4.25160763,2.48725575 3.93028008,2.71720954 L2.94112033,2.14590249 C2.64827801,1.97676349 2.27810166,2.02524896 2.03909751,2.26450207 C1.09876556,3.20589212 0.400487552,4.38893154 0.0455912863,5.71254149 C-0.0421369295,6.03967842 0.100082988,6.38514523 0.393423237,6.55447095 L1.38438797,7.12655602 C1.34642119,7.51982229 1.34642119,7.91583124 1.38438797,8.30909751 L0.393423237,8.88115145 C0.100082988,9.05047718 -0.0421369295,9.39594398 0.0455912863,9.72308091 C0.400487552,11.0466598 1.09876556,12.2297303 2.03909751,13.1711203 C2.27810166,13.4103734 2.64827801,13.4588589 2.94112033,13.2897199 L3.93028008,12.7184129 C4.25160105,12.9483681 4.59448481,13.1465901 4.95410788,13.3102905 L4.95410788,14.454056 C4.95414786,14.7927949 5.18200282,15.0891519 5.50935685,15.1762344 C6.80897303,15.521888 8.18934647,15.5223548 9.49058091,15.1762656 C9.81793568,15.0891909 10.0458921,14.792832 10.0458921,14.4540871 L10.0458921,13.3103216 C10.4055028,13.1465972 10.7483843,12.9483765 11.0697199,12.718444 L12.0588797,13.289751 C12.351722,13.45889 12.7218983,13.4104046 12.9609025,13.1711515 C13.9012344,12.2297614 14.5995124,11.0466909 14.9544087,9.72311203 C15.0421369,9.3959751 14.899917,9.0505083 14.6065768,8.88118257 L13.615612,8.30912863 C13.6535788,7.91545643 13.6535788,7.52022822 13.615612,7.12655602 Z M11.9762241,9.08772822 L13.3398859,9.87473029 C13.0945907,10.537213 12.7383781,11.1531369 12.2864938,11.6961411 L10.9225207,10.9085166 C9.92716805,11.7611203 9.7816805,11.8445228 8.5521473,12.2787137 L8.5521473,13.8533714 C7.85575276,13.9722513 7.14424724,13.9722513 6.4478527,13.8533714 L6.4478527,12.2787137 C5.2184751,11.8445851 5.07245851,11.7608091 4.07747925,10.9085166 L2.71350622,11.6961411 C2.26162784,11.1531327 1.90541592,10.5372099 1.66011411,9.87473029 L3.02377593,9.08772822 C2.7863278,7.80248963 2.78620332,7.63381743 3.02377593,6.34795643 L1.66011411,5.56095436 C1.90440871,4.90030083 2.26104772,4.28349585 2.71350622,3.73951245 L4.07747925,4.52713693 C5.07283195,3.6745332 5.21835062,3.59109959 6.4478527,3.15693983 L6.4478527,1.58231328 C7.14424724,1.46343337 7.85575276,1.46343337 8.5521473,1.58231328 L8.5521473,3.15697095 C9.7815249,3.59109959 9.92754149,3.67487552 10.9225207,4.52716805 L12.2864938,3.73954357 C12.7383787,4.28255893 13.0945911,4.89849312 13.3398859,5.56098548 L11.9762241,6.34798755 C12.2137033,7.63325726 12.2137967,7.80186722 11.9762241,9.08772822 Z M7.5,4.73029046 C5.85264523,4.73029046 4.51244813,6.07048755 4.51244813,7.71784232 C4.51244813,9.3651971 5.85264523,10.7053942 7.5,10.7053942 C9.14735477,10.7053942 10.4875519,9.3651971 10.4875519,7.71784232 C10.4875519,6.07048755 9.14735477,4.73029046 7.5,4.73029046 Z M7.5,9.21161826 C6.67630705,9.21161826 6.00622407,8.54153527 6.00622407,7.71784232 C6.00622407,6.8941805 6.67630705,6.22406639 7.5,6.22406639 C8.32369295,6.22406639 8.99377593,6.8941805 8.99377593,7.71784232 C8.99377593,8.54153527 8.32369295,9.21161826 7.5,9.21161826 Z" id="Shape"></path>
            </g>
        </g>
    </g>
</svg>