<?xml version="1.0" encoding="UTF-8"?>
<svg width="14px" height="14px" viewBox="0 0 14 14" version="1.1" xmlns="http://www.w3.org/2000/svg" xmlns:xlink="http://www.w3.org/1999/xlink">
    <title>times</title>
    <g id="side-UI" stroke="none" stroke-width="1" fill="none" fill-rule="evenodd">
        <g id="show-ship-name-list" transform="translate(-1571.000000, -95.000000)" fill="#FFFFFF" fill-rule="nonzero">
            <g id="ShipList-舊的" transform="translate(1356.000000, 80.000000)">
                <g id="close" transform="translate(200.000000, 0.000000)">
                    <g id="times" transform="translate(15.000000, 15.000000)">
                        <path d="M8.484875,7 L12.971875,2.513 L13.8971875,1.5876875 C14.0336875,1.4511875 14.0336875,1.229375 13.8971875,1.092875 L12.907125,0.1028125 C12.770625,-0.0336875 12.5488125,-0.0336875 12.4123125,0.1028125 L7,5.515125 L1.5876875,0.102375 C1.4511875,-0.034125 1.229375,-0.034125 1.092875,0.102375 L0.102375,1.0924375 C-0.034125,1.2289375 -0.034125,1.45075 0.102375,1.58725 L5.515125,7 L0.102375,12.4123125 C-0.034125,12.5488125 -0.034125,12.770625 0.102375,12.907125 L1.0924375,13.8971875 C1.2289375,14.0336875 1.45075,14.0336875 1.58725,13.8971875 L7,8.484875 L11.487,12.971875 L12.4123125,13.8971875 C12.5488125,14.0336875 12.770625,14.0336875 12.907125,13.8971875 L13.8971875,12.907125 C14.0336875,12.770625 14.0336875,12.5488125 13.8971875,12.4123125 L8.484875,7 Z" id="Path"></path>
                    </g>
                </g>
            </g>
        </g>
    </g>
</svg>