<?xml version="1.0" encoding="UTF-8"?>
<svg width="16px" height="12px" viewBox="0 0 16 12" version="1.1" xmlns="http://www.w3.org/2000/svg" xmlns:xlink="http://www.w3.org/1999/xlink">
    <title>icon_sign_out</title>
    <g id="Page-1" stroke="none" stroke-width="1" fill="none" fill-rule="evenodd">
        <g id="Apple-TV" transform="translate(-1102.000000, -166.000000)" fill="#00B0C7" fill-rule="nonzero">
            <g id="icon_sign_out" transform="translate(1102.250000, 166.000000)">
                <path d="M5.26315789,11.2280702 L2.80701754,11.2280702 C1.25730994,11.2280702 0,9.97076023 0,8.42105263 L0,2.80701754 C0,1.25730994 1.25730994,0 2.80701754,0 L5.26315789,0 C5.45614035,0 5.61403509,0.157894737 5.61403509,0.350877193 L5.61403509,1.52046784 C5.61403509,1.71345029 5.45614035,1.87134503 5.26315789,1.87134503 L2.80701754,1.87134503 C2.28947368,1.87134503 1.87134503,2.28947368 1.87134503,2.80701754 L1.87134503,8.42105263 C1.87134503,8.93859649 2.28947368,9.35672515 2.80701754,9.35672515 L5.26315789,9.35672515 C5.45614035,9.35672515 5.61403509,9.51461988 5.61403509,9.70760234 L5.61403509,10.877193 C5.61403509,11.0701754 5.45614035,11.2280702 5.26315789,11.2280702 Z M8.71052632,2.36549708 L10.9795322,4.44444444 L5.38011696,4.44444444 C4.99122807,4.44444444 4.67836257,4.75730994 4.67836257,5.14619883 L4.67836257,6.08187135 C4.67836257,6.47076023 4.99122807,6.78362573 5.38011696,6.78362573 L10.9795322,6.78362573 L8.71052632,8.8625731 C8.41520468,9.13157895 8.40643275,9.59356725 8.6871345,9.87719298 L9.32748538,10.5175439 C9.5994152,10.7894737 10.0438596,10.7923977 10.3187135,10.5204678 L14.7631579,6.11111111 C15.0409357,5.83625731 15.0409357,5.38888889 14.7631579,5.11403509 L10.3216374,0.710526316 C10.0467836,0.438596491 9.60526316,0.438596491 9.33040936,0.713450292 L8.69005848,1.35380117 C8.40643275,1.63450292 8.41812865,2.09649123 8.71052632,2.36549708 Z" id="Shape"></path>
            </g>
        </g>
    </g>
</svg>