<?xml version="1.0" encoding="UTF-8"?>
<svg width="22px" height="16px" viewBox="0 0 22 16" version="1.1" xmlns="http://www.w3.org/2000/svg" xmlns:xlink="http://www.w3.org/1999/xlink">
    <title>icon_ship_siren</title>
    <g id="Page-1" stroke="none" stroke-width="1" fill="none" fill-rule="evenodd">
        <g id="Apple-TV" transform="translate(-913.000000, -481.000000)" fill="#FFFFFF" fill-rule="nonzero">
            <g id="icon_ship_siren" transform="translate(913.000000, 481.000000)">
                <path d="M7.72416274,4.49102889 C7.73376909,4.41934514 7.7716093,4.3544069 7.82934343,4.31052647 C7.88707756,4.26664604 7.95996654,4.24742532 8.03194575,4.25710053 L8.57432783,4.32962854 C8.64632191,4.33919349 8.71154126,4.37687059 8.75561165,4.43435586 C8.79968203,4.49184114 8.81898596,4.56441595 8.80926887,4.63608491 L7.98441038,10.7924528 L17.0188679,10.7924528 L16.1639151,3.98435436 C16.0269866,2.89389568 15.096041,2.0755672 13.9923349,2.0754717 L8.00766509,2.0754717 C6.90395903,2.0755672 5.97301344,2.89389568 5.83608491,3.98435436 L4.98113208,10.7924528 L6.88049528,10.7924528 L7.72416274,4.49102889 Z" id="Path" opacity="0.4"></path>
                <path d="M18.15,12.0698011 L3.85,12.0698011 C3.54624339,12.0698011 3.3,12.3152005 3.3,12.617916 L3.3,14.8103757 C3.3,15.1130912 3.54624339,15.3584906 3.85,15.3584906 L18.15,15.3584906 C18.4537566,15.3584906 18.7,15.1130912 18.7,14.8103757 L18.7,12.617916 C18.7,12.3152005 18.4537566,12.0698011 18.15,12.0698011 Z M3.85,6.58865201 C3.85,6.13457875 3.48063492,5.76647964 3.025,5.76647964 L0.825,5.76647964 C0.369365081,5.76647964 0,6.13457875 0,6.58865201 C0,7.04272527 0.369365081,7.41082437 0.825,7.41082437 L3.025,7.41082437 C3.48063492,7.41082437 3.85,7.04272527 3.85,6.58865201 Z M21.175,5.76647964 L18.975,5.76647964 C18.5193651,5.76647964 18.15,6.13457875 18.15,6.58865201 C18.15,7.04272527 18.5193651,7.41082437 18.975,7.41082437 L21.175,7.41082437 C21.6306349,7.41082437 22,7.04272527 22,6.58865201 C22,6.13457875 21.6306349,5.76647964 21.175,5.76647964 Z M3.11746875,2.61481891 C3.36251713,2.78762963 3.68241702,2.81414983 3.95274894,2.68406494 C4.22308085,2.55398005 4.40117318,2.28782384 4.41776001,1.98911312 C4.43434683,1.69040241 4.28680994,1.40628836 4.03253125,1.24727221 L2.38253125,0.15104239 C2.13748287,-0.0217683308 1.81758298,-0.0482885323 1.54725106,0.0817963571 C1.27691915,0.211881246 1.09882682,0.478037464 1.08223999,0.776748179 C1.06565317,1.07545889 1.21319006,1.35957294 1.46746875,1.51858909 L3.11746875,2.61481891 Z M18.425,2.75185045 C18.5875388,2.75227266 18.7465424,2.70458005 18.8818437,2.61481891 L20.5318437,1.51858909 C20.7847305,1.3590458 20.9310769,1.07552246 20.9142594,0.777718385 C20.8974418,0.479914307 20.7200985,0.214545246 20.450846,0.0842863409 C20.1815936,-0.045972564 19.862669,-0.0206879316 19.6174688,0.150357247 L17.9674687,1.24658707 C17.6659405,1.44786755 17.531813,1.82188249 17.6370257,2.16802838 C17.7422384,2.51417428 18.0620788,2.75114772 18.425,2.75185045 Z" id="Shape"></path>
            </g>
        </g>
    </g>
</svg>