<?xml version="1.0" encoding="UTF-8"?>
<svg width="18px" height="15px" viewBox="0 0 18 15" version="1.1" xmlns="http://www.w3.org/2000/svg" xmlns:xlink="http://www.w3.org/1999/xlink">
    <title>icon_shipwrecked_at_map</title>
    <defs>
        <polygon id="path-1" points="0.5897 0.215 7.1397 0.215 7.1397 10.945319 0.5897 10.945319"></polygon>
        <polygon id="path-3" points="0 0.00113981726 17.9979367 0.00113981726 17.9979367 2.99969266 0 2.99969266"></polygon>
    </defs>
    <g id="Page-1" stroke="none" stroke-width="1" fill="none" fill-rule="evenodd">
        <g id="Apple-TV" transform="translate(-1037.000000, -309.000000)">
            <g id="icon_shipwrecked_at_map" transform="translate(1037.000000, 309.000000)">
                <polygon id="Fill-1" fill="#E14848" points="2.9854 8.2369 3.6184 7.5089 2.1634 6.2449 1.5304 6.9719"></polygon>
                <polygon id="Fill-2" fill="#E14848" points="3.0811 9.5968 3.8101 10.2298 9.0551 4.1958 7.6941 4.2908"></polygon>
                <g id="Group-13" transform="translate(0.000000, 0.785400)">
                    <g id="Group-5" transform="translate(9.000000, 0.000000)">
                        <mask id="mask-2" fill="white">
                            <use xlink:href="#path-1"></use>
                        </mask>
                        <g id="Clip-4"></g>
                        <path d="M2.5577,7.8773 L0.5897,10.1413 C0.6247,10.1633 0.6657,10.1713 0.6987,10.1993 C1.4947,10.8593 2.7087,11.0733 3.7857,10.8733 L7.1397,7.0153 L6.6637,0.2143 L2.5577,4.9393 L2.6757,7.5393 C2.6807,7.6633 2.6397,7.7833 2.5577,7.8773" id="Fill-3" fill="#E14848" mask="url(#mask-2)"></path>
                    </g>
                    <path d="M8.1807,10.2923 L10.7037,7.3903 L10.6407,5.9933 L6.3497,10.9293 C7.0307,10.8753 7.6827,10.6663 8.1807,10.2923" id="Fill-6" fill="#E14848"></path>
                    <path d="M5.1392,10.8533 L10.7032,4.4523 L10.7032,4.4513 L12.4062,2.4933 L11.0462,2.5883 L4.1612,10.5083 C4.4592,10.6703 4.7932,10.7803 5.1392,10.8533" id="Fill-8" fill="#E14848"></path>
                    <g id="Group-12" transform="translate(0.000000, 11.000000)">
                        <mask id="mask-4" fill="white">
                            <use xlink:href="#path-3"></use>
                        </mask>
                        <g id="Clip-11"></g>
                        <path d="M17.5669,0.9969 C17.8199,1.0249 18.0009,1.2559 17.9979367,1.5059 L17.9979367,2.4939 C17.9979367,2.7789 17.7609,3.0189 17.4759,2.9939 C16.6019,2.9169 15.7559,2.6419 15.0039,2.1889 C13.2849,3.2549 10.7689,3.2699 9.0039,2.1889 C7.2849,3.2549 4.7689,3.2699 3.0039,2.1889 C2.2749,2.6419 1.4219,2.9199 0.5219,2.9979 C0.2369,3.0229 -0.0001,2.7829 -0.0001,2.4979 L-0.0001,1.4909 C-0.0001,1.2439 0.1779,1.0249 0.4249,0.9999 C1.1039,0.9279 1.7439,0.6819 2.2289,0.2999 C2.6599,-0.0411 3.2789,-0.1131 3.7009,0.2369 C4.8979,1.2279 7.0509,1.2309 8.2389,0.2899 C8.6669,-0.0501 9.2759,-0.1161 9.6979,0.2339 C10.9019,1.2309 13.0679,1.2309 14.2529,0.2809 C14.6939,-0.0691 15.3179,-0.0691 15.7589,0.2809 C16.2529,0.6689 16.8969,0.9189 17.5689,0.9969 L17.5669,0.9969 Z" id="Fill-10" fill="#E14848" mask="url(#mask-4)"></path>
                    </g>
                </g>
            </g>
        </g>
    </g>
</svg>