<?xml version="1.0" encoding="UTF-8"?>
<svg width="26px" height="26px" viewBox="0 0 26 26" version="1.1" xmlns="http://www.w3.org/2000/svg" xmlns:xlink="http://www.w3.org/1999/xlink">
    <title>icon_send</title>
    <g id="Page-1" stroke="none" stroke-width="1" fill="none" fill-rule="evenodd">
        <g id="Apple-TV" transform="translate(-971.000000, -86.000000)" fill="#FFFFFF" fill-rule="nonzero">
            <g id="icon_send" transform="translate(971.000000, 86.000000)">
                <path d="M12.4946979,20.8050682 L8.69352827,25.5099025 C7.98397661,26.3765692 6.53953216,25.9052242 6.53953216,24.7091228 L6.53953216,18.1442495 L20.7437427,5.33329435 C21.0224951,5.08495127 21.4178168,5.46506823 21.1796101,5.75395712 L9.76748538,19.6581287 L12.4946979,20.8050682 Z" id="Path" opacity="0.4"></path>
                <path d="M25.9792203,1.41910331 L22.3300975,23.3138402 C22.2680621,23.6805777 22.0421057,23.9989789 21.7164081,24.178606 C21.3907106,24.3582332 21.0008579,24.37946 20.6575828,24.2362573 L9.76748538,19.6581287 L21.1796101,5.75395712 C21.4178168,5.46506823 21.0224951,5.08495127 20.7437427,5.33329435 L6.5380117,18.1442495 L0.795204678,15.905614 C0.364201651,15.7246771 0.0750119218,15.312762 0.0512378258,14.8459252 C0.0274637298,14.3790885 0.27331156,13.9399262 0.683703704,13.7161404 L24.1754386,0.163703704 C25.0517349,-0.343118908 26.1520468,0.396842105 25.9792203,1.41910331 Z" id="Path"></path>
            </g>
        </g>
    </g>
</svg>