<?xml version="1.0" encoding="UTF-8"?>
<svg width="30px" height="26px" viewBox="0 0 30 26" version="1.1" xmlns="http://www.w3.org/2000/svg" xmlns:xlink="http://www.w3.org/1999/xlink">
    <title>Group 2</title>
    <g id="Page-1" stroke="none" stroke-width="1" fill="none" fill-rule="evenodd">
        <g id="Apple-TV" transform="translate(-929.000000, -81.000000)" fill="#FFFFFF" fill-rule="nonzero">
            <g id="Group-2" transform="translate(929.000000, 81.000000)">
                <g id="comment" opacity="0.4">
                    <path d="M14.8571429,0 C6.65089286,0 0,5.403125 0,12.0714286 C0,14.95 1.24196429,17.5848214 3.30803571,19.6566964 C2.58258929,22.5816964 0.156696429,25.1875 0.127678571,25.2165179 C0,25.35 -0.0348214286,25.5473214 0.040625,25.7214286 C0.116071429,25.8955357 0.278571429,26 0.464285714,26 C4.31205357,26 7.19642857,24.1544643 8.62410714,23.0169643 C10.521875,23.7308036 12.6285714,24.1428571 14.8571429,24.1428571 C23.0633929,24.1428571 29.7142857,18.7397321 29.7142857,12.0714286 C29.7142857,5.403125 23.0633929,0 14.8571429,0 Z" id="Path"></path>
                </g>
                <g id="bolt" transform="translate(11.000000, 5.000000)">
                    <path d="M8.6721849,4.6875 L5.29132552,4.6875 L6.5393724,0.884765625 C6.6565599,0.439453125 6.31964583,0 5.8596849,0 L1.6409349,0 C1.2893724,0 0.990544271,0.260742188 0.943669271,0.609375 L0.00616927117,7.640625 C-0.0494947913,8.0625 0.278630209,8.4375 0.703434896,8.4375 L4.18097396,8.4375 L2.83038802,14.1357422 C2.72491927,14.5810547 3.06476302,15 3.51300521,15 C3.75909896,15 3.99347396,14.8710938 4.12238021,14.6484375 L9.27863021,5.7421875 C9.55109115,5.27636719 9.21417708,4.6875 8.6721849,4.6875 Z" id="Path"></path>
                </g>
            </g>
        </g>
    </g>
</svg>