<?xml version="1.0" encoding="UTF-8"?>
<svg width="16px" height="16px" viewBox="0 0 16 16" version="1.1" xmlns="http://www.w3.org/2000/svg" xmlns:xlink="http://www.w3.org/1999/xlink">
    <title>icon_search</title>
    <g id="Symbols" stroke="none" stroke-width="1" fill="none" fill-rule="evenodd">
        <g id="top_nav" transform="translate(-1564.000000, -17.000000)" fill="#1C8B7C" fill-rule="nonzero">
            <g id="search" transform="translate(1440.000000, 12.000000)">
                <g id="icon_search" transform="translate(124.000000, 5.000000)">
                    <path d="M15.8898491,14.6524096 L12.0962844,10.8588448 C12.0244129,10.7869733 11.9306674,10.7494751 11.8306723,10.7494751 L11.4181925,10.7494751 C12.4025194,9.60890582 12.9993653,8.12460329 12.9993653,6.49968263 C12.9993653,2.90923295 10.0901323,0 6.49968263,0 C2.90923295,0 0,2.90923295 0,6.49968263 C0,10.0901323 2.90923295,12.9993653 6.49968263,12.9993653 C8.12460329,12.9993653 9.60890582,12.4025194 10.7494751,11.4181925 L10.7494751,11.8306723 C10.7494751,11.9306674 10.7900981,12.0244129 10.8588448,12.0962844 L14.6524096,15.8898491 C14.7992774,16.036717 15.0367658,16.036717 15.1836336,15.8898491 L15.8898491,15.1836336 C16.036717,15.0367658 16.036717,14.7992774 15.8898491,14.6524096 Z M6.49968263,11.4994385 C3.73731751,11.4994385 1.49992676,9.26204775 1.49992676,6.49968263 C1.49992676,3.73731751 3.73731751,1.49992676 6.49968263,1.49992676 C9.26204775,1.49992676 11.4994385,3.73731751 11.4994385,6.49968263 C11.4994385,9.26204775 9.26204775,11.4994385 6.49968263,11.4994385 Z" id="Shape"></path>
                </g>
            </g>
        </g>
    </g>
</svg>