<?xml version="1.0" encoding="UTF-8"?>
<svg width="18px" height="18px" viewBox="0 0 18 18" version="1.1" xmlns="http://www.w3.org/2000/svg" xmlns:xlink="http://www.w3.org/1999/xlink">
    <title>icon_air_pressure</title>
    <g id="Page-1" stroke="none" stroke-width="1" fill="none" fill-rule="evenodd">
        <g id="Apple-TV" transform="translate(-135.000000, -707.000000)" fill="#FFFFFF" fill-rule="nonzero">
            <g id="icon_air_pressure" transform="translate(135.000000, 707.000000)">
                <path d="M8.35714286,4.83147321 L8.35714286,0.642857143 C8.35714286,0.287816947 8.06932591,0 7.71428571,0 L6.42857143,0 C6.07353123,0 5.78571352,0.287816947 5.78571352,0.642857143 L5.78571352,4.83147321 C5.78480265,7.01027906 6.59357555,9.11168528 8.055,10.7276786 C9.08059214,11.8681839 9.6464106,13.3487327 9.64285714,14.8825446 L9.64285714,17.3571429 C9.64285714,17.7121831 9.93067409,18 10.2857135,18 L11.5714286,18 C11.9264688,18 12.2142885,17.7121831 12.2142885,17.3571429 L12.2142885,14.8825446 C12.2160127,12.7046307 11.4080605,10.6038402 9.94741071,8.98834821 C8.9209439,7.84740313 8.35428936,6.36619849 8.35714286,4.83147321 Z" id="Path" opacity="0.4"></path>
                <path d="M2.57142857,4.83147321 L2.57142857,3.21428571 C2.57142857,2.85924552 2.28361162,2.57142857 1.92857143,2.57142857 L0.642857143,2.57142857 C0.287816947,2.57142857 -7.69850016e-07,2.85924552 -7.69850016e-07,3.21428571 L-7.69850016e-07,4.83147321 C-0.000911638063,7.01027906 0.807861263,9.11168528 2.26928571,10.7276786 C3.29487786,11.8681839 3.86069631,13.3487327 3.85714286,14.8825446 L3.85714286,17.3571429 C3.85714286,17.7121831 4.1449598,18 4.49999923,18 L5.78571429,18 C6.14075448,18 6.42857419,17.7121831 6.42857419,17.3571429 L6.42857419,14.8825446 C6.43029845,12.7046307 5.62234617,10.6038402 4.16169643,8.98834821 C3.13522962,7.84740313 2.56857507,6.36619849 2.57142857,4.83147321 L2.57142857,4.83147321 Z M15.733125,8.98834821 C14.7066582,7.84740313 14.1400036,6.36619849 14.1428571,4.83147321 L14.1428571,3.21428571 C14.1428571,2.85924552 13.8550402,2.57142857 13.5,2.57142857 L12.2142857,2.57142857 C11.8592455,2.57142857 11.5714278,2.85924552 11.5714278,3.21428571 L11.5714278,4.83147321 C11.5705169,7.01027906 12.3792898,9.11168528 13.8407143,10.7276786 C14.8663064,11.8681839 15.4321249,13.3487327 15.4285714,14.8825446 L15.4285714,17.3571429 C15.4285714,17.7121831 15.7163884,18 16.0714278,18 L17.3571429,18 C17.7121831,18 18.0000028,17.7121831 18.0000028,17.3571429 L18.0000028,14.8825446 C18.001727,12.7046307 17.1937747,10.6038402 15.733125,8.98834821 L15.733125,8.98834821 Z" id="Shape"></path>
            </g>
        </g>
    </g>
</svg>