<?xml version="1.0" encoding="UTF-8"?>
<svg width="18px" height="22px" viewBox="0 0 18 22" version="1.1" xmlns="http://www.w3.org/2000/svg" xmlns:xlink="http://www.w3.org/1999/xlink">
    <title>icon_follow_ship</title>
    <g id="Page-1" stroke="none" stroke-width="1" fill="none" fill-rule="evenodd">
        <g id="Apple-TV" transform="translate(-1195.000000, -166.000000)" fill="#FFFFFF" fill-rule="nonzero">
            <g id="icon_follow_ship" transform="translate(1195.083333, 166.000000)">
                <path d="M9.50617285,8.9375 L9.50617285,19.59375 C9.50617285,19.6469879 9.49397914,19.6995005 9.47052469,19.7471484 L8.45200617,21.8096484 C8.39457412,21.9263222 8.27690046,22.0000632 8.14814815,22.0000632 C8.01939583,22.0000632 7.90172217,21.9263222 7.84429012,21.8096484 L6.8257716,19.7471484 C6.80231715,19.6995005 6.79012345,19.6469879 6.79012345,19.59375 L6.79012345,8.9375 C6.79012345,8.55780423 7.09412764,8.25 7.4691358,8.25 L8.82716049,8.25 C9.20216866,8.25 9.50617285,8.55780423 9.50617285,8.9375 Z" id="Path" opacity="0.4"></path>
                <path d="M16.2962963,14.09375 C16.2962963,14.6632936 15.84029,15.125 15.2777778,15.125 L9.50617284,15.125 L6.79012346,15.125 L1.01851852,15.125 C0.456006273,15.125 0,14.6632936 0,14.09375 C0,11.9135156 1.59016204,10.1758594 3.64969136,9.20691406 L4.16786265,4.125 L2.37654321,4.125 C1.81403096,4.125 1.35802469,3.66329365 1.35802469,3.09375 L1.35802469,1.03125 C1.35802469,0.461706352 1.81403096,0 2.37654321,0 L13.9197531,0 C14.4822653,0 14.9382716,0.461706352 14.9382716,1.03125 L14.9382716,3.09375 C14.9382716,3.66329365 14.4822653,4.125 13.9197531,4.125 L12.1284336,4.125 L12.6466049,9.20691406 C14.683642,10.1655469 16.2962963,11.8946094 16.2962963,14.09375 Z" id="Path"></path>
            </g>
        </g>
    </g>
</svg>