<?xml version="1.0" encoding="UTF-8"?>
<svg width="18px" height="19px" viewBox="0 0 18 19" version="1.1" xmlns="http://www.w3.org/2000/svg" xmlns:xlink="http://www.w3.org/1999/xlink">
    <title>icon_area_line</title>
    <g id="Page-1" stroke="none" stroke-width="1" fill="none" fill-rule="evenodd">
        <g id="Apple-TV" transform="translate(-222.000000, -449.000000)" fill="#FFFFFF">
            <g id="icon_area_line" transform="translate(222.000000, 449.000000)">
                <path d="M14.4306,1.5628 C14.1806,1.5628 13.9556,1.3898 13.8996,1.1358 C13.8336,0.8428 14.0186,0.5518 14.3126,0.4858 L16.4396,0.0128 C16.7386,-0.0512 17.0246,0.1328 17.0906,0.4258 C17.1556,0.7198 16.9706,1.0108 16.6766,1.0758 L14.5496,1.5498 C14.5096,1.5588 14.4696,1.5628 14.4306,1.5628 M10.1756,2.5098 C9.9266,2.5098 9.7006,2.3368 9.6446,2.0828 C9.5786,1.7898 9.7636,1.4988 10.0576,1.4328 L12.1846,0.9588 C12.4816,0.8978 12.7706,1.0798 12.8356,1.3728 C12.9006,1.6668 12.7156,1.9578 12.4226,2.0228 L10.2946,2.4968 C10.2546,2.5048 10.2146,2.5098 10.1756,2.5098 M5.9206,3.4568 C5.6706,3.4568 5.4456,3.2838 5.3896,3.0298 C5.3246,2.7358 5.5096,2.4448 5.8036,2.3798 L7.9306,1.9068 C8.2216,1.8388 8.5156,2.0258 8.5806,2.3198 C8.6456,2.6138 8.4606,2.9048 8.1666,2.9698 L6.0396,3.4428 C5.9996,3.4518 5.9596,3.4568 5.9206,3.4568 M16.6266,4.2798 C16.5846,4.2798 16.5426,4.2748 16.5016,4.2658 C16.2086,4.1968 16.0266,3.9028 16.0956,3.6098 L16.5946,1.4888 C16.6636,1.1958 16.9596,1.0158 17.2496,1.0838 C17.5426,1.1518 17.7236,1.4458 17.6556,1.7388 L17.1566,3.8598 C17.0976,4.1108 16.8736,4.2798 16.6266,4.2798 M2.9196,5.6108 C2.8866,5.6108 2.8536,5.6078 2.8196,5.6018 C2.5236,5.5478 2.3286,5.2638 2.3836,4.9668 L2.6696,3.4168 C2.7086,3.2018 2.8736,3.0318 3.0866,2.9838 L3.6756,2.8538 C3.9686,2.7858 4.2606,2.9738 4.3256,3.2668 C4.3906,3.5608 4.2056,3.8518 3.9116,3.9168 L3.6756,3.9698 L3.4546,5.1658 C3.4066,5.4278 3.1776,5.6108 2.9196,5.6108 M15.6286,8.5238 C15.5866,8.5238 15.5446,8.5188 15.5036,8.5088 C15.2106,8.4398 15.0286,8.1468 15.0976,7.8548 L15.5966,5.7318 C15.6656,5.4388 15.9646,5.2598 16.2516,5.3268 C16.5446,5.3958 16.7256,5.6888 16.6576,5.9808 L16.1586,8.1038 C16.0986,8.3548 15.8756,8.5238 15.6286,8.5238 M2.1276,9.8978 C2.0956,9.8978 2.0616,9.8948 2.0286,9.8888 C1.7326,9.8338 1.5366,9.5498 1.5916,9.2538 L1.9876,7.1098 C2.0426,6.8138 2.3256,6.6178 2.6226,6.6738 C2.9186,6.7288 3.1136,7.0128 3.0586,7.3088 L2.6626,9.4518 C2.6146,9.7138 2.3856,9.8978 2.1276,9.8978 M13.9956,12.2488 C13.7896,12.2488 13.5926,12.1318 13.5006,11.9328 C13.3736,11.6598 13.4936,11.3358 13.7666,11.2088 L14.3746,10.9278 L14.5986,9.9758 C14.6676,9.6828 14.9636,9.4998 15.2536,9.5698 C15.5466,9.6388 15.7276,9.9318 15.6596,10.2248 L15.3746,11.4358 C15.3366,11.5988 15.2246,11.7358 15.0726,11.8058 L14.2236,12.1988 C14.1496,12.2328 14.0716,12.2488 13.9956,12.2488 M10.0396,14.0788 C9.8336,14.0788 9.6366,13.9618 9.5446,13.7628 C9.4176,13.4898 9.5366,13.1658 9.8096,13.0398 L11.7876,12.1248 C12.0646,11.9988 12.3856,12.1178 12.5116,12.3898 C12.6386,12.6638 12.5186,12.9868 12.2456,13.1138 L10.2676,14.0288 C10.1936,14.0628 10.1156,14.0788 10.0396,14.0788 M1.3366,14.1848 C1.3046,14.1848 1.2706,14.1818 1.2376,14.1748 C0.9416,14.1208 0.7456,13.8368 0.8006,13.5408 L1.1966,11.3968 C1.2506,11.1018 1.5356,10.9018 1.8306,10.9598 C2.1266,11.0148 2.3226,11.2988 2.2676,11.5948 L1.8716,13.7378 C1.8236,14.0008 1.5946,14.1848 1.3366,14.1848 M6.0826,15.9098 C5.8766,15.9098 5.6806,15.7918 5.5876,15.5928 C5.4616,15.3198 5.5806,14.9968 5.8536,14.8698 L7.8326,13.9548 C8.1056,13.8298 8.4296,13.9478 8.5556,14.2208 C8.6816,14.4938 8.5626,14.8178 8.2896,14.9438 L6.3106,15.8588 C6.2376,15.8938 6.1596,15.9098 6.0826,15.9098 M2.1266,17.7398 C1.9206,17.7398 1.7236,17.6228 1.6316,17.4238 C1.5056,17.1498 1.6246,16.8268 1.8976,16.6998 L3.8756,15.7848 C4.1486,15.6578 4.4726,15.7778 4.5986,16.0508 C4.7256,16.3238 4.6066,16.6478 4.3336,16.7738 L2.3556,17.6888 C2.2816,17.7238 2.2026,17.7398 2.1266,17.7398 M0.5456,18.4708 C0.5126,18.4708 0.4796,18.4678 0.4466,18.4618 C0.1496,18.4078 -0.0454,18.1238 0.0096,17.8278 L0.4046,15.6838 C0.4596,15.3878 0.7426,15.1908 1.0386,15.2468 C1.3356,15.3008 1.5306,15.5848 1.4756,15.8808 L1.0806,18.0248 C1.0326,18.2878 0.8036,18.4708 0.5456,18.4708" id="Fill-1" opacity="0.4"></path>
                <path d="M12.1605,9.4051 C12.4835,9.4051 12.7455,9.6681 12.7455,9.9901 C12.7455,10.3131 12.4835,10.5761 12.1605,10.5761 C11.8375,10.5761 11.5755,10.3131 11.5755,9.9901 C11.5755,9.6681 11.8375,9.4051 12.1605,9.4051 M7.1295,14.6741 L7.7225,14.6741 C8.1205,16.5521 10.2205,17.6001 12.1605,17.6001 C14.1035,17.6001 16.2005,16.5511 16.5985,14.6741 L17.1915,14.6741 C17.3875,14.6741 17.4845,14.4371 17.3465,14.2991 L16.1205,13.0721 C16.0345,12.9871 15.8955,12.9871 15.8095,13.0721 L14.5835,14.2991 C14.4455,14.4371 14.5435,14.6741 14.7395,14.6741 L15.3825,14.6741 C15.0115,15.6671 13.8275,16.2571 12.7455,16.3931 L12.7455,12.9171 L13.6975,12.9171 C13.8185,12.9171 13.9165,12.8191 13.9165,12.6971 L13.9165,11.9661 C13.9165,11.8451 13.8185,11.7461 13.6975,11.7461 L12.7455,11.7461 L12.7455,11.6461 C13.4275,11.4051 13.9165,10.7551 13.9165,9.9901 C13.9165,9.0351 13.1405,8.2481 12.1855,8.2351 C11.2035,8.2211 10.4045,9.0121 10.4045,9.9901 C10.4045,10.7551 10.8925,11.4051 11.5755,11.6461 L11.5755,11.7461 L10.6235,11.7461 C10.5025,11.7461 10.4045,11.8451 10.4045,11.9661 L10.4045,12.6971 C10.4045,12.8191 10.5025,12.9171 10.6235,12.9171 L11.5755,12.9171 L11.5755,16.3931 C10.4965,16.2581 9.3095,15.6671 8.9385,14.6741 L9.5815,14.6741 C9.7775,14.6741 9.8745,14.4371 9.7365,14.2991 L8.5105,13.0721 C8.4255,12.9871 8.2855,12.9871 8.2005,13.0721 L6.9735,14.2991 C6.8355,14.4371 6.9335,14.6741 7.1295,14.6741" id="Fill-3"></path>
            </g>
        </g>
    </g>
</svg>