<?xml version="1.0" encoding="UTF-8"?>
<svg width="18px" height="18px" viewBox="0 0 18 18" version="1.1" xmlns="http://www.w3.org/2000/svg" xmlns:xlink="http://www.w3.org/1999/xlink">
    <title>icon_openstreetmap</title>
    <g id="Page-1" stroke="none" stroke-width="1" fill="none" fill-rule="evenodd">
        <g id="Apple-TV" transform="translate(-578.000000, -503.000000)" fill="#FFFFFF" fill-rule="nonzero">
            <g id="icon_openstreetmap" transform="translate(578.000000, 503.000000)">
                <path d="M2.004,17.97675 C1.74,17.91 1.6035,17.80125 0.90075,17.10075 C0.06375,16.266 0.0105,16.18425 0.0135,15.74925 C0.0135,15.2655 -0.1335,15.43875 2.5395,12.75975 C5.2395,10.05375 5.10075,10.1715 5.5875,10.173 C5.814,10.173 5.871,10.185 6.0525,10.278 L6.26025,10.383 L7.56825,9.075 L7.40475,8.81775 C7.086,8.32125 6.786,7.596 6.65025,6.996 C6.27054914,5.3010966 6.67835115,3.52540701 7.7595,2.166 C9.627,-0.174 12.97875,-0.693 15.4545,0.975 C16.8135,1.8885 17.697,3.29925 17.9505,4.9605 C18.003,5.31075 18.003,6.14475 17.9505,6.516 C17.7834108,7.77030125 17.2012246,8.93256151 16.29675,9.8175 C15.877935,10.2522966 15.3843257,10.6082135 14.8395,10.86825 C14.12025,11.2305 13.50825,11.40075 12.67875,11.4705 C11.499,11.56875 10.18875,11.24175 9.18675,10.59825 L8.9295,10.43475 L7.6215,11.74275 L7.7265,11.95275 C7.82025,12.1335 7.8315,12.18975 7.8315,12.4155 C7.83375,12.90375 7.9485,12.76575 5.262,15.45225 C3.19125,17.51925 2.8725,17.82525 2.7135,17.898 C2.51025,17.99175 2.196,18.02625 2.00475,17.9775 L2.004,17.97675 Z M13.11375,10.4625 C14.6170002,10.1824471 15.8981103,9.20554146 16.566,7.83 C17.60925,5.65575 16.90725,3.1005 14.89575,1.749 C14.41725,1.4265 13.749,1.1535 13.1205,1.0275 C12.68475,0.93975 11.76375,0.9495 11.31,1.04625 C10.6489441,1.18389679 10.0230843,1.45547705 9.471,1.84425 C9.138,2.0805 8.58825,2.63025 8.35575,2.9595 C7.06578046,4.76367125 7.18371287,7.21759627 8.64075,8.88975 C9.39338474,9.756022 10.431227,10.3242945 11.5665,10.49175 C11.94825,10.55025 12.723,10.53525 13.11525,10.464 L13.11375,10.4625 Z" id="Shape"></path>
                <path d="M10.31025,15.9945 C9.75897543,15.8395235 9.20992051,15.6767572 8.66325,15.50625 C8.6445,15.48525 9.5685,12.20925 9.606,12.1695 C9.62325,12.15 12.7875,13.0335 12.9165,13.0965 C12.963,13.116 12.91425,13.3125 12.52275,14.673 C12.3623701,15.2315358 12.2036194,15.7905382 12.0465,16.35 C12.02775,16.41525 11.99475,16.467 11.97375,16.467 C11.95275,16.46475 11.20275,16.25175 10.3095,15.99375 L10.31025,15.9945 Z" id="Path" opacity="0.404831659"></path>
                <path d="M12.49425,16.3875 C12.49425,16.34775 13.4145,13.13775 13.42875,13.12725 C13.464,13.10175 16.67175,12.20475 16.6845,12.219 C16.69875,12.23325 15.78525,15.47175 15.762,15.489 C15.747,15.50325 12.6675,16.38225 12.56775,16.4025 C12.52725,16.41075 12.49425,16.4025 12.49425,16.38825 L12.49425,16.3875 Z" id="Path" opacity="0.404831659"></path>
                <path d="M7.1655,14.95425 C7.8,14.31525 8.36475,13.734 8.421,13.65825 C8.54925,13.49475 8.72475,13.10925 8.775,12.897 C8.7945,12.8085 8.81475,12.633 8.8185,12.5055 L8.82675,12.27525 L8.96325,12.237 C9.0405,12.216 9.108,12.204 9.11475,12.2115 C9.132,12.23025 8.2095,15.45225 8.18025,15.4815 C8.16525,15.4935 7.6725,15.64125 7.08225,15.8085 L6.0135,16.11225 L7.16625,14.95575 L7.1655,14.95425 Z" id="Path" opacity="0.404831659"></path>
                <path d="M13.38225,12.65925 C13.3641714,12.6136161 13.3493836,12.5667462 13.338,12.519 L13.305,12.402 L13.422,12.381 C14.42625,12.21075 15.504,11.739 16.353,11.09625 C16.473,11.0025 16.542,10.968 16.55175,10.99575 C16.59225,11.1195 16.75575,11.70825 16.7505,11.715 C16.725,11.7405 13.3905,12.6765 13.3815,12.66075 L13.38225,12.65925 Z" id="Path" opacity="0.404831659"></path>
                <path d="M2.07,11.68425 C2.0325,11.655 1.18575,8.78475 1.122,8.46675 C1.11,8.40375 1.2315,8.43375 2.7525,8.86875 C4.34325,9.32175 4.3965,9.3405 4.419,9.42375 C4.44,9.49725 4.42725,9.5205 4.32525,9.591 C4.26225,9.63525 3.7485,10.134 3.183,10.70025 C2.84073574,11.0472834 2.49319527,11.3890732 2.1405,11.7255 C2.1285,11.7255 2.0985,11.70675 2.07075,11.685 L2.07,11.68425 Z" id="Path" opacity="0.404831659"></path>
                <path d="M2.68575,8.40075 C1.79475,8.1435 1.06275,7.9335 1.0605,7.93125 C1.0485,7.92225 2.00625,4.6065 2.02425,4.58625 C2.04075,4.56975 5.34075,5.4945 5.376,5.52525 C5.38275,5.532 5.17425,6.288 4.9125,7.2045 C4.4805,8.7195 4.43025,8.8725 4.37025,8.86954225 C4.33275,8.86725 3.576,8.65575 2.685,8.4 L2.68575,8.40075 Z" id="Path" opacity="0.404831659"></path>
                <path d="M4.905,8.80425 C4.914,8.781 5.064,8.262 5.238,7.65375 L5.553,6.54675 L5.595,6.7875 C5.66475,7.2045 5.79375,7.6785 5.943,8.09325 C6.0225,8.31525 6.08325,8.4975 6.07875,8.502 C6.07275,8.5065 5.82975,8.57775 5.5395,8.661 C5.24775,8.74275 4.98375,8.8185 4.95,8.829 C4.9065,8.841 4.89375,8.8335 4.90575,8.8035 L4.905,8.80425 Z" id="Path" opacity="0.404831659"></path>
                <path d="M3.67875,4.584 C2.7885,4.32975 2.0535,4.10775 2.04375,4.0935 C2.01375,4.047 1.10925,0.85275 1.12125,0.84 C1.14075,0.82125 4.35375,1.743 4.3845,1.7745 C4.41975,1.81275 5.3445,5.05875 5.319,5.05650117 L3.6825,4.58475 L3.67875,4.584 Z" id="Path" opacity="0.404831659"></path>
                <path d="M5.28975,3.29925 L4.9005,1.94475 L4.842,1.73475 L6.11175,1.3725 C6.81225,1.17375 7.40475,1.00125 7.43175,0.9915 C7.45725,0.9795 7.3695,1.0965 7.23675,1.2435 C6.54255168,2.00811451 6.03909112,2.92611407 5.7675,3.9225 C5.72523113,4.0604062 5.6921585,4.20096489 5.6685,4.34325 C5.6685,4.563 5.58225,4.3245 5.28975,3.30075 L5.28975,3.29925 Z" id="Path" opacity="0.4"></path>
            </g>
        </g>
    </g>
</svg>