<?xml version="1.0" encoding="UTF-8"?>
<svg width="23px" height="24px" viewBox="0 0 23 24" version="1.1" xmlns="http://www.w3.org/2000/svg" xmlns:xlink="http://www.w3.org/1999/xlink">
    <title>icon_ship</title>
    <g id="Page-1" stroke="none" stroke-width="1" fill="none" fill-rule="evenodd">
        <g id="Apple-TV" transform="translate(-971.000000, -300.000000)" fill-rule="nonzero">
            <g id="icon_ship" transform="translate(971.000000, 300.000000)">
                <path d="M21.4767361,21.3207461 C20.6544097,21.2279336 19.8676042,20.9143047 19.2641319,20.4343867 C18.7248903,20.0008235 17.9616375,20.0008235 17.4223958,20.4343867 C15.9744444,21.6111719 13.3264236,21.6111719 11.8555556,20.3763789 C11.3399306,19.9428672 10.5951389,20.0240781 10.0714931,20.4459883 C8.62010417,21.6111719 5.98736111,21.6061445 4.52375,20.3802461 C4.008125,19.9467344 3.25149306,20.0356797 2.72402778,20.4575898 C2.13201389,20.9297734 1.34902778,21.235668 0.519444444,21.3246133 C0.217708333,21.3555508 0,21.6266406 0,21.9325352 L0,23.1789297 C0,23.5312305 0.290277778,23.8290039 0.637847222,23.7976797 C1.73822917,23.701 2.78131944,23.3564336 3.67201389,22.7953047 C5.83076389,24.1345117 8.90465278,24.1151758 11.0053472,22.7953047 C13.1637153,24.1345117 16.2379861,24.1151758 18.3386806,22.7953047 C19.2581843,23.3564602 20.2919537,23.6979509 21.3613889,23.7938125 C21.7089583,23.82475 21.999478,23.5269766 21.999478,23.1750625 L21.999478,21.9518711 C22.0053472,21.6424961 21.7838194,21.3555508 21.4744444,21.3207461 L21.4767361,21.3207461 Z M6.11111111,8.95 L15.8888889,8.95 L15.8888889,12.3349492 L18.3333333,13.1308164 L18.3333333,7.7125 C18.3333333,7.02904762 17.7861258,6.475 17.1111111,6.475 L14.6666667,6.475 L14.6666667,4.928125 C14.6666667,4.41553572 14.256261,4 13.75,4 L8.25,4 C7.74373898,4 7.33333333,4.41553572 7.33333333,4.928125 L7.33333333,6.475 L4.88888889,6.475 C4.21387419,6.475 3.66666667,7.02904762 3.66666667,7.7125 L3.66666667,13.1308164 L6.11111111,12.3349492 L6.11111111,8.95 Z" id="Shape" fill="#FFFFFF" opacity="0.4"></path>
                <path d="M20.7227778,15.2078828 C20.6631258,15.3949215 20.5605012,15.5649639 20.4233333,15.704043 L16.8903472,19.1555078 C16.3055706,19.7345719 15.5227633,20.0629949 14.7048611,20.072418 L14.6857639,20.072418 C13.8748958,20.072418 13.1278125,19.8357461 12.6370139,19.4238906 C12.191441,19.0485167 11.6288918,18.845183 11.0492708,18.85 C10.4168996,18.854699 9.80459205,19.0752962 9.31142361,19.4760977 C8.83857639,19.855082 8.1228125,20.072418 7.34670139,20.072418 L7.32722222,20.072418 C6.49135651,20.0629999 5.69128951,19.7275033 5.09361111,19.1357852 L1.57972222,15.704043 C1.27860171,15.3990134 1.15604432,14.9572566 1.25624861,14.5380859 C1.3564529,14.1189151 1.66496364,13.7827991 2.07052083,13.6509531 L10.6260764,10.8665781 C10.8692115,10.7873071 11.1307885,10.7873071 11.3739236,10.8665781 L19.9294792,13.6509531 C20.2382108,13.7511716 20.494966,13.9714819 20.6432431,14.2634024 C20.7915202,14.5553229 20.8191687,14.8949323 20.7201042,15.2074961 L20.7201042,15.2074961 L20.7227778,15.2078828 Z" id="Path" fill="#FFFFFF"></path>
                <g id="info-circle" transform="translate(13.000000, 0.000000)">
                    <path d="M5,0 C2.23790323,0 0,2.23951613 0,5 C0,7.76048387 2.23790323,10 5,10 C7.76209677,10 10,7.76209677 10,5 C10,2.23790323 7.76209677,0 5,0 Z M5,2.21774194 C5.46766047,2.21774194 5.84677419,2.59685566 5.84677419,3.06451613 C5.84677419,3.5321766 5.46766047,3.91129032 5,3.91129032 C4.53233953,3.91129032 4.15322581,3.5321766 4.15322581,3.06451613 C4.15322581,2.59685566 4.53233953,2.21774194 5,2.21774194 Z M6.12903226,7.33870968 C6.12903226,7.47232696 6.02071405,7.58064516 5.88709677,7.58064516 L4.11290323,7.58064516 C3.97928595,7.58064516 3.87096774,7.47232696 3.87096774,7.33870968 L3.87096774,6.85483871 C3.87096774,6.72122143 3.97928595,6.61290323 4.11290323,6.61290323 L4.35483871,6.61290323 L4.35483871,5.32258065 L4.11290323,5.32258065 C3.97928595,5.32258065 3.87096774,5.21426244 3.87096774,5.08064516 L3.87096774,4.59677419 C3.87096774,4.46315692 3.97928595,4.35483871 4.11290323,4.35483871 L5.40322581,4.35483871 C5.53684308,4.35483871 5.64516129,4.46315692 5.64516129,4.59677419 L5.64516129,6.61290323 L5.88709677,6.61290323 C6.02071405,6.61290323 6.12903226,6.72122143 6.12903226,6.85483871 L6.12903226,7.33870968 Z" id="Shape" fill="#FFFFFF"></path>
                    <path d="M5,3.91129032 C5.46766047,3.91129032 5.84677419,3.5321766 5.84677419,3.06451613 C5.84677419,2.59685566 5.46766047,2.21774194 5,2.21774194 C4.53233953,2.21774194 4.15322581,2.59685566 4.15322581,3.06451613 C4.15322581,3.5321766 4.53233953,3.91129032 5,3.91129032 Z M5.88709677,6.61290323 L5.64516129,6.61290323 L5.64516129,4.59677419 C5.64516129,4.46315692 5.53684308,4.35483871 5.40322581,4.35483871 L4.11290323,4.35483871 C3.97928595,4.35483871 3.87096774,4.46315692 3.87096774,4.59677419 L3.87096774,5.08064516 C3.87096774,5.21426244 3.97928595,5.32258065 4.11290323,5.32258065 L4.35483871,5.32258065 L4.35483871,6.61290323 L4.11290323,6.61290323 C3.97928595,6.61290323 3.87096774,6.72122143 3.87096774,6.85483871 L3.87096774,7.33870968 C3.87096774,7.47232696 3.97928595,7.58064516 4.11290323,7.58064516 L5.88709677,7.58064516 C6.02071405,7.58064516 6.12903226,7.47232696 6.12903226,7.33870968 L6.12903226,6.85483871 C6.12903226,6.72122143 6.02071405,6.61290323 5.88709677,6.61290323 Z" id="Shape" fill="#0071BE"></path>
                </g>
            </g>
        </g>
    </g>
</svg>