<?xml version="1.0" encoding="UTF-8"?>
<svg width="22px" height="20px" viewBox="0 0 22 20" version="1.1" xmlns="http://www.w3.org/2000/svg" xmlns:xlink="http://www.w3.org/1999/xlink">
    <title>icon_ship_list</title>
    <g id="Page-1" stroke="none" stroke-width="1" fill="none" fill-rule="evenodd">
        <g id="Apple-TV" transform="translate(-982.000000, -431.000000)" fill="#FFFFFF" fill-rule="nonzero">
            <g id="icon_ship_list" transform="translate(982.000000, 431.000000)">
                <path d="M17.1875,0 L14.4375,0 C14.0578042,0 13.75,0.307804234 13.75,0.6875 L13.75,2.75 L17.875,2.75 L17.875,0.6875 C17.875,0.307804234 17.5671958,0 17.1875,0 Z M7.5625,0 L4.8125,0 C4.43280423,0 4.125,0.307804234 4.125,0.6875 L4.125,2.75 L8.25,2.75 L8.25,0.6875 C8.25,0.307804234 7.94219577,0 7.5625,0 Z M9.625,11 L12.375,11 L12.375,4.125 L9.625,4.125 L9.625,11 Z" id="Shape" opacity="0.4"></path>
                <path d="M2.74613281,5.5 C2.63828125,9.5321875 0.148671875,10.4078906 0,15.984375 L0,17.875 C0,18.6343915 0.615608469,19.25 1.375,19.25 L5.5,19.25 C6.25939153,19.25 6.875,18.6343915 6.875,17.875 L6.875,11 L8.25,11 L8.25,4.125 L4.118125,4.125 C3.36058594,4.125 2.76675781,4.74246094 2.74613281,5.5 Z M19.2538672,5.5 C19.2332422,4.74289062 18.6394141,4.125 17.881875,4.125 L13.75,4.125 L13.75,11 L15.125,11 L15.125,17.875 C15.125,18.6343915 15.7406085,19.25 16.5,19.25 L20.625,19.25 C21.3843915,19.25 22,18.6343915 22,17.875 L22,15.984375 C21.8513281,10.4078906 19.3617188,9.5321875 19.2538672,5.5 Z" id="Shape"></path>
            </g>
        </g>
    </g>
</svg>