<?xml version="1.0" encoding="UTF-8"?>
<svg width="24px" height="19px" viewBox="0 0 24 19" version="1.1" xmlns="http://www.w3.org/2000/svg" xmlns:xlink="http://www.w3.org/1999/xlink">
    <title>icon_popup_reply</title>
    <g id="Page-1" stroke="none" stroke-width="1" fill="none" fill-rule="evenodd">
        <g id="Apple-TV" transform="translate(-703.000000, -651.000000)" fill="#FFFFFF" fill-rule="nonzero">
            <g id="icon_popup_reply" transform="translate(703.000000, 651.000000)">
                <path d="M4.80791667,9.14083333 L9.33333333,13.04875 L9.33333333,13.7083333 C9.33333333,14.5708333 8.32083333,15.01875 7.67958333,14.465 L0.34625,8.13166667 C0.126409391,7.94171251 5.08531316e-05,7.66553825 5.08531316e-05,7.375 C5.08531316e-05,7.08446175 0.126409391,6.80828749 0.34625,6.61833333 L7.67958333,0.285 C8.32166667,-0.26875 9.33333333,0.18125 9.33333333,1.04166667 L9.33333333,1.70125 L4.80791667,5.60916667 C4.29476226,6.05239659 3.99979712,6.69692905 3.99979712,7.375 C3.99979712,8.05307095 4.29476226,8.69760341 4.80791667,9.14083333 Z" id="Path" opacity="0.4"></path>
                <path d="M24,12.0970833 C24,14.6570833 22.3508333,17.1929167 20.5279167,18.5191667 C19.95875,18.9329167 19.1483333,18.4133333 19.3579167,17.7429167 C20.9625,12.6108333 19.1945833,10.6808333 14.6666667,10.1595833 L14.6666667,13.6666667 C14.6666667,14.5291667 13.6541667,14.9770833 13.0129167,14.4233333 L5.67958333,8.09 C5.45974272,7.90004584 5.33338419,7.62387158 5.33338419,7.33333333 C5.33338419,7.04279508 5.45974272,6.76662082 5.67958333,6.57666667 L13.0129167,0.243333333 C13.655,-0.310416667 14.6666667,0.139583333 14.6666667,1 L14.6666667,4.44875 C20.0491667,4.875 24,6.625 24,12.0970833 Z" id="Path"></path>
            </g>
        </g>
    </g>
</svg>