<?xml version="1.0" encoding="UTF-8"?>
<svg width="17px" height="16px" viewBox="0 0 17 16" version="1.1" xmlns="http://www.w3.org/2000/svg" xmlns:xlink="http://www.w3.org/1999/xlink">
    <title>icon_user_profile</title>
    <g id="Page-1" stroke="none" stroke-width="1" fill="none" fill-rule="evenodd">
        <g id="Apple-TV" transform="translate(-142.000000, -166.000000)" fill="#00B0C7" fill-rule="nonzero">
            <g id="icon_user_profile" transform="translate(142.916667, 166.000000)">
                <path d="M12,10.5 C10.73125,10.5 10.5125,10.453125 9.74375,10.7125 C9.196875,10.896875 8.609375,11 8,11 C7.390625,11 6.803125,10.896875 6.25625,10.7125 C5.4875,10.453125 5.271875,10.5 4,10.5 C1.790625,10.5 0,12.290625 0,14.5 L0,15 C0,15.553125 0.446875,16 1,16 L15,16 C15.553125,16 16,15.553125 16,15 L16,14.5 C16,12.290625 14.209375,10.5 12,10.5 Z M14.5,14.5 L1.5,14.5 C1.5,13.83125 1.759375,13.203125 2.23125,12.73125 C2.703125,12.259375 3.33125,12 4,12 C5.284375,12 5.28125,11.965625 5.775,12.13125 C6.49375,12.375 7.24375,12.5 8,12.5 C8.75625,12.5 9.50625,12.375 10.225,12.13125 C10.71875,11.9625 10.715625,12 12,12 C13.378125,12 14.5,13.121875 14.5,14.5 Z M8,10 C10.7625,10 13,7.7625 13,5 C13,2.2375 10.7625,0 8,0 C5.2375,0 3,2.2375 3,5 C3,7.7625 5.2375,10 8,10 Z M8,1.5 C9.93125,1.5 11.5,3.06875 11.5,5 C11.5,6.93125 9.93125,8.5 8,8.5 C6.06875,8.5 4.5,6.93125 4.5,5 C4.5,3.06875 6.06875,1.5 8,1.5 Z" id="Shape"></path>
            </g>
        </g>
    </g>
</svg>