<?xml version="1.0" encoding="UTF-8"?>
<svg width="18px" height="18px" viewBox="0 0 18 18" version="1.1" xmlns="http://www.w3.org/2000/svg" xmlns:xlink="http://www.w3.org/1999/xlink">
    <title>icon_satellite</title>
    <g id="Page-1" stroke="none" stroke-width="1" fill="none" fill-rule="evenodd">
        <g id="Apple-TV" transform="translate(-643.000000, -503.000000)" fill="#FFFFFF" fill-rule="nonzero">
            <g id="icon_satellite" transform="translate(643.000000, 503.000000)">
                <path d="M17.7659274,11.0471371 C16.8387097,15.0321774 13.267379,17.9999815 9,17.9999815 C4.02822581,17.9999815 -2.17748764e-05,13.9717742 -2.17748764e-05,8.99998151 C-0.0032417544,6.92269664 0.715107008,4.90875458 2.03225806,3.30241935 L2.03225806,4.96125 C2.03234794,5.32271282 2.14039272,5.67591184 2.34254032,5.97556452 C2.7678629,6.60665323 3.37245968,7.50229839 3.63701613,7.89060484 C3.82453242,8.16684995 4.04457895,8.41955011 4.29241935,8.64326613 L4.32145161,8.66939516 C4.66742699,8.98251224 5.05371176,9.2479686 5.47004032,9.45870968 C5.97810484,9.71455645 6.71987903,10.1177419 7.24137097,10.40625 C7.61091918,10.610652 7.83984143,11.0000702 7.83870968,11.422379 L7.83870968,12.5836694 C7.83865995,12.8916817 7.96097722,13.1870969 8.17875,13.4049194 C8.72310484,13.9492742 9.06133065,14.8068145 9,15.2647984 L9,16.3197581 C9.00001925,16.5376079 9.0932677,16.745035 9.25619399,16.8896502 C9.41912028,17.0342655 9.63614664,17.1022421 9.85245968,17.0764113 C9.91596774,17.0687903 9.9791129,17.0604435 10.0422581,17.0510081 C10.3468006,17.0045218 10.5930147,16.7785268 10.6653629,16.4790726 L11.1774194,14.3876613 C11.25,14.1884274 11.2957258,13.9808468 11.3505242,13.7754435 C11.3904107,13.6282652 11.4683942,13.4942037 11.5766129,13.3867742 C11.6970968,13.2659274 11.8455242,13.1182258 11.9870565,12.9774194 C12.306063,12.6605807 12.4853081,12.2294516 12.4849597,11.7798387 C12.4853511,11.4858736 12.3687493,11.2038354 12.1608871,10.9959677 L11.6633468,10.499879 C11.4452868,10.2826385 11.1499009,10.1608554 10.8420968,10.1612903 L8.41935484,10.1612903 C8.0778629,9.9903629 7.63983871,8.99998151 7.25806452,8.99998151 C6.87620367,9.00001966 6.49959174,8.91105425 6.15810484,8.74016129 L5.75600806,8.5391129 C5.60124136,8.45929929 5.50889939,8.294962 5.52121621,8.12126329 C5.53353302,7.94756458 5.64814045,7.79790189 5.81262097,7.74072581 L6.94379032,7.36366935 C7.13860079,7.29853625 7.35332716,7.34117792 7.50846774,7.47580645 L7.84524194,7.76830645 C7.89779326,7.81465531 7.9653343,7.84043434 8.03540323,7.8408871 L8.24008065,7.8408871 C8.34068891,7.84083339 8.43409762,7.78869577 8.48695396,7.70309067 C8.5398103,7.61748557 8.54457867,7.51061752 8.49955645,7.42064516 L7.93379032,6.28875 C7.87766614,6.17584291 7.90083467,6.03961781 7.99112903,5.9516129 L8.35112903,5.60141129 C8.40484948,5.54755216 8.47756293,5.51692912 8.55362903,5.51612903 L8.88024194,5.51612903 C8.95726344,5.5161896 9.03115245,5.48564184 9.08564516,5.43120968 L9.37596774,5.1408871 C9.48925607,5.02752449 9.48925607,4.84380616 9.37596774,4.73044355 L9.20576613,4.56024194 C9.0924778,4.44687933 9.0924778,4.263161 9.20576613,4.14979839 L9.58064516,3.77419355 L9.75084677,3.60435484 C9.85976754,3.49545894 9.92096068,3.34774948 9.92096068,3.19372984 C9.92096068,3.0397102 9.85976754,2.89200074 9.75084677,2.78310484 L9.75084677,2.78310484 L8.8653629,1.89762097 C8.77406198,1.80613175 8.6477811,1.75839625 8.51879032,1.7666129 C8.42697581,1.77278226 8.33552419,1.78040323 8.24370968,1.79020161 C8.0139555,1.81346173 7.83902392,2.00673291 7.83870968,2.23766129 C7.84174025,2.50134182 7.67038549,2.73538373 7.41810484,2.8121371 C7.27822425,2.85226654 7.12837455,2.83840835 6.99822581,2.77330645 C6.785523,2.66688091 6.58983337,2.52940894 6.41758065,2.36540323 L4.94491935,0.963145161 C6.20216076,0.327939973 7.59140586,-0.00202749512 9,-1.84897763e-05 C12.7680242,-1.84897763e-05 15.9935081,2.31387097 17.3347984,5.59850806 L16.0098387,5.71282258 C15.662695,5.74280415 15.3243414,5.83810462 15.0125806,5.99370968 C14.8770209,6.06150948 14.7614544,6.16344314 14.6772581,6.28947581 L13.9663306,7.35568548 C13.7713827,7.64819635 13.7713827,8.02922301 13.9663306,8.32173387 L14.6195565,9.30157258 C14.713341,9.44273437 14.8462719,9.55346812 15.0020565,9.62020161 L15.7467339,9.98673387 L17.7659274,11.0471371 Z" id="Path" opacity="0.4"></path>
                <path d="M11.6633468,10.5009677 C11.4454649,10.283328 11.1500571,10.1611443 10.8420968,10.1612903 L8.41935484,10.1612903 C8.0778629,9.9903629 7.63983871,9 7.25806452,9 C6.87620367,9.00001966 6.49959174,8.91105425 6.15810484,8.74016129 L5.75600806,8.5391129 C5.60124136,8.45929929 5.50889939,8.294962 5.52121621,8.12126329 C5.53353302,7.94756458 5.64814045,7.79790189 5.81262097,7.74072581 L6.94379032,7.36366935 C7.13860079,7.29853625 7.35332716,7.34117792 7.50846774,7.47580645 L7.84524194,7.76830645 C7.89779326,7.81465531 7.9653343,7.84043434 8.03540323,7.8408871 L8.24008065,7.8408871 C8.34068891,7.84083339 8.43409762,7.78869577 8.48695396,7.70309067 C8.5398103,7.61748557 8.54457867,7.51061752 8.49955645,7.42064516 L7.93379032,6.28875 C7.87766614,6.17584291 7.90083467,6.03961781 7.99112903,5.9516129 L8.35112903,5.60141129 C8.40484948,5.54755216 8.47756293,5.51692912 8.55362903,5.51612903 L8.88024194,5.51612903 C8.95726344,5.5161896 9.03115245,5.48564184 9.08564516,5.43120968 L9.37596774,5.1408871 C9.48925607,5.02752449 9.48925607,4.84380616 9.37596774,4.73044355 L9.20576613,4.56024194 C9.0924778,4.44687933 9.0924778,4.263161 9.20576613,4.14979839 L9.58064516,3.77419355 L9.75084677,3.60435484 C9.85976754,3.49545894 9.92096068,3.34774948 9.92096068,3.19372984 C9.92096068,3.0397102 9.85976754,2.89200074 9.75084677,2.78310484 L9.75084677,2.78310484 L8.8653629,1.89762097 C8.77406198,1.80613175 8.6477811,1.75839625 8.51879032,1.7666129 C8.42697581,1.77278226 8.33552419,1.78040323 8.24370968,1.79020161 C8.0139555,1.81346173 7.83902392,2.00673291 7.83870968,2.23766129 C7.84174025,2.50134182 7.67038549,2.73538373 7.41810484,2.8121371 C7.27822425,2.85226654 7.12837455,2.83840835 6.99822581,2.77330645 C6.785523,2.66688091 6.58983337,2.52940894 6.41758065,2.36540323 L4.94491935,0.963145161 C3.82168924,1.53151004 2.82960469,2.32829262 2.03225806,3.30241935 L2.03225806,4.96125 C2.03225806,5.32271282 2.14039272,5.67591184 2.34254032,5.97556452 C2.7678629,6.60665323 3.37245968,7.50229839 3.63701613,7.89060484 C3.82453242,8.16684995 4.04457895,8.41955011 4.29241935,8.64326613 L4.32145161,8.66939516 C4.66742699,8.98251224 5.05371176,9.2479686 5.47004032,9.45870968 C5.97810484,9.71455645 6.71987903,10.1177419 7.24137097,10.40625 C7.61091918,10.610652 7.83984143,11.0000702 7.83870968,11.422379 L7.83870968,12.5836694 C7.83865995,12.8916817 7.96097722,13.1870969 8.17875,13.4049194 C8.72310484,13.9492742 9.06133065,14.8068145 9,15.2647984 L9,16.3197581 C9.00001925,16.5376079 9.0932677,16.745035 9.25619399,16.8896502 C9.41912028,17.0342655 9.63614664,17.1022421 9.85245968,17.0764113 C9.91596774,17.0687903 9.9791129,17.0604435 10.0422581,17.0510081 C10.3468006,17.0045218 10.5930147,16.7785268 10.6653629,16.4790726 L11.1774194,14.3876613 C11.25,14.1884274 11.2957258,13.9808468 11.3505242,13.7754435 C11.3904107,13.6282652 11.4683942,13.4942037 11.5766129,13.3867742 C11.6970968,13.2659274 11.8455242,13.1182258 11.9870565,12.9774194 C12.306063,12.6605807 12.4853081,12.2294516 12.4849617,11.7798387 C12.4853511,11.4858736 12.3687493,11.2038354 12.1608871,10.9959677 L11.6633468,10.5009677 Z M17.3347984,5.59850806 L16.0098387,5.71282258 C15.662695,5.74280415 15.3243414,5.83810462 15.0125806,5.99370968 C14.8770209,6.06150948 14.7614544,6.16344314 14.6772581,6.28947581 L13.9663306,7.35568548 C13.7713827,7.64819635 13.7713827,8.02922301 13.9663306,8.32173387 L14.6195565,9.30157258 C14.713341,9.44273437 14.8462719,9.55346812 15.0020565,9.62020161 L15.7467339,9.98673387 L17.7659274,11.0471371 C18.1876021,9.22993007 18.0370136,7.32678602 17.3347984,5.59850806 L17.3347984,5.59850806 Z" id="Shape"></path>
            </g>
        </g>
    </g>
</svg>