<?xml version="1.0" encoding="UTF-8"?>
<svg width="18px" height="18px" viewBox="0 0 18 18" version="1.1" xmlns="http://www.w3.org/2000/svg" xmlns:xlink="http://www.w3.org/1999/xlink">
    <title>icon_enc_all</title>
    <g id="Page-1" stroke="none" stroke-width="1" fill="none" fill-rule="evenodd">
        <g id="Apple-TV" transform="translate(-788.000000, -503.000000)" fill="#FFFFFF" fill-rule="nonzero">
            <g id="icon_enc_all" transform="translate(788.000000, 503.000000)">
                <polygon id="Fill-1" points="9.00024 3.99984 14.00064 13.99944 3.99984 13.99944"></polygon>
                <polygon id="Fill-3" opacity="0.396763393" points="0 2.0004 18 2.0004 18 0.0012 0 0.0012"></polygon>
                <polygon id="Fill-4" opacity="0.396763393" points="0 6 6 6 6 3.9996 0 3.9996"></polygon>
                <polygon id="Fill-5" opacity="0.396763393" points="12 6 18 6 18 3.9996 12 3.9996"></polygon>
                <polygon id="Fill-6" opacity="0.396763393" points="0 9.9996 4.0008 9.9996 4.0008 8.0004 0 8.0004"></polygon>
                <polygon id="Fill-7" opacity="0.396763393" points="14.0004 9.9996 18.0012 9.9996 18.0012 8.0004 14.0004 8.0004"></polygon>
                <polygon id="Fill-8" opacity="0.396763393" points="0 13.9992 3 13.9992 3 12 0 12"></polygon>
                <polygon id="Fill-9" opacity="0.396763393" points="15 13.9992 18 13.9992 18 12 15 12"></polygon>
                <polygon id="Fill-10" opacity="0.396763393" points="0 18 18 18 18 15.9996 0 15.9996"></polygon>
            </g>
        </g>
    </g>
</svg>