<?xml version="1.0" encoding="utf-8"?>
<!-- Generator: Adobe Illustrator 24.0.3, SVG Export Plug-In . SVG Version: 6.00 Build 0)  -->
<svg version="1.1" id="圖層_1" xmlns="http://www.w3.org/2000/svg" xmlns:xlink="http://www.w3.org/1999/xlink" x="0px" y="0px"
	 viewBox="0 0 297.49 48.34" style="enable-background:new 0 0 297.49 48.34;" xml:space="preserve">
<style type="text/css">
	.st0{fill:#FFFFFF;}
</style>
<g>
	<path class="st0" d="M294.86,38.61c-0.24,0.32-0.44,0.49-0.96,0.38c-3.92-0.8-5.03,2.41-4.28,4.86c0.45,1.46,1.83,2.3,3.46,2.14
		c0.47-0.05,0.92-0.15,1.45-0.24c0.25,0.44,0.28,0.79-0.35,0.93c-1.68,0.35-3.32,0.35-4.64-0.94c-1.29-1.25-1.45-2.85-1.05-4.51
		c0.59-2.47,2.9-3.7,5.69-3.09c0.22,0.05,0.45,0.08,0.68,0.11C294.86,38.37,294.86,38.49,294.86,38.61z"/>
	<path class="st0" d="M250.62,48.34c0.2-0.83,0.34-1.68,0.64-2.47c0.13-0.34,0.58-0.55,1.01-0.72c-0.09,1.21-0.46,2.25-1.12,3.18
		C250.98,48.34,250.8,48.34,250.62,48.34z"/>
	<path class="st0" d="M253.06,13.15c0.75,1.41,1.42,2.87,2.26,4.23c0.85,1.36,1.87,2.62,2.9,4.02c-0.95,0-1.85,0.02-2.75-0.01
		c-0.61-0.02-0.87,0.23-0.83,0.83c0.14,2.05-1.09,2.93-2.99,2.92c-3.12-0.03-6.25,0.02-9.38-0.01c-0.84-0.01-1.19,0.24-1.1,1.11
		c0.06,0.55,0,1.12,0.01,1.68c0.02,0.98,0.22,1.19,1.21,1.19c3.89,0.01,7.78,0,11.68,0c1.32,0,2.64,0,4.16,0
		c-0.41,0.75-0.7,1.38-1.08,1.95c-0.11,0.16-0.46,0.22-0.7,0.22c-5.07,0.01-10.14,0.02-15.21,0c-1.75-0.01-3.08-1.53-3.11-3.52
		c-0.03-1.74-0.05-3.48,0.01-5.22c0.03-0.88-0.21-1.26-1.13-1.16c-0.63,0.07-1.27,0.01-2.14,0.01c2.38-2.56,4.05-5.29,5.35-8.51
		c-1.4,0-2.62,0.02-3.83-0.01c-0.35-0.01-0.97-0.1-1-0.24c-0.11-0.56-0.07-1.16,0-1.74c0.01-0.1,0.45-0.21,0.69-0.21
		c1.18-0.02,2.36-0.03,3.54,0c0.67,0.02,0.97-0.22,0.95-0.92c-0.03-0.94-0.03-1.89,0-2.83c0.02-0.66-0.27-0.9-0.9-0.88
		c-0.88,0.02-1.77-0.03-2.65,0.01c-0.67,0.03-0.92-0.24-0.84-0.88c0.03-0.23,0.02-0.47,0-0.71c-0.04-0.5,0.17-0.68,0.67-0.67
		c0.97,0.02,1.95-0.02,2.92,0.01c0.57,0.02,0.8-0.22,0.79-0.78c-0.01-0.77-0.05-1.54,0.03-2.3c0.02-0.23,0.37-0.59,0.59-0.62
		c2.31-0.24,2.3-0.23,2.31,2.09c0.01,1.76-0.18,1.59,1.63,1.59c1.21,0.01,2.42-0.02,3.63,0.01c0.57,0.01,0.81-0.21,0.81-0.77
		c-0.01-0.77-0.12-1.56,0.04-2.29c0.28-1.32,1.39-0.43,2.1-0.64c0.47-0.14,0.86,0.01,0.82,0.67c-0.04,0.76,0.01,1.53-0.02,2.3
		c-0.02,0.54,0.19,0.74,0.72,0.73c1.15-0.02,2.3,0.02,3.45-0.02c0.63-0.02,0.86,0.21,0.79,0.82c-0.03,0.23-0.02,0.47,0,0.71
		c0.05,0.54-0.19,0.74-0.72,0.73c-1.06-0.02-2.13,0.05-3.18-0.02c-0.87-0.05-1.14,0.28-1.07,1.12c0.07,0.88,0.05,1.77,0,2.65
		c-0.04,0.68,0.25,0.88,0.87,0.87c1.39-0.02,2.77,0.03,4.16-0.02c1.08-0.03,0.75,0.72,0.8,1.28c0.06,0.61-0.05,1-0.84,0.97
		c-1.38-0.06-2.76-0.02-4.14-0.02C253.25,12.97,253.15,13.06,253.06,13.15z M246.2,22.92c1.44,0,2.89-0.02,4.33,0.01
		c0.74,0.02,1.12-0.29,1.13-1.02c0.02-0.91,0.02-1.83,0-2.74c-0.01-0.68-0.35-0.99-1.06-0.99c-2.77,0.02-5.54,0.02-8.31,0
		c-0.75,0-1.1,0.34-1.1,1.06c-0.01,0.97,0.02,1.95-0.01,2.92c-0.02,0.57,0.21,0.78,0.78,0.77C243.37,22.9,244.78,22.92,246.2,22.92z
		 M246.52,10.66c0.74,0,1.47-0.02,2.21,0.01c0.61,0.02,0.84-0.26,0.83-0.85c-0.02-1-0.01-2,0-3c0-0.5-0.18-0.77-0.72-0.77
		c-1.56,0.01-3.12,0.01-4.68,0c-0.47,0-0.69,0.21-0.68,0.7c0.02,1.03,0.03,2.06,0,3.09c-0.02,0.63,0.25,0.84,0.84,0.82
		C245.05,10.65,245.78,10.66,246.52,10.66z M251.09,15.79c-0.3-0.83-0.51-1.59-0.85-2.29c-0.14-0.28-0.58-0.58-0.89-0.59
		c-1.73-0.06-3.47-0.04-5.21-0.01c-0.26,0-0.66,0.11-0.75,0.29c-0.43,0.82-0.77,1.68-1.17,2.61
		C245.22,15.79,248.09,15.79,251.09,15.79z"/>
	<path class="st0" d="M284.79,28.96c1.69,0,3.21,0,4.73,0c1.63,0,1.68-0.05,1.68-1.7c0-3.69,0-7.37,0-11.06
		c0-1.14-0.2-1.35-1.33-1.35c-6.99,0-13.98,0.01-20.97-0.02c-0.84,0-1,0.29-1.03,1.07c-0.17,4.56-0.27,9.12-1.19,13.61
		c-0.17,0.85-0.51,1.21-1.39,1.1c-0.64-0.08-1.29-0.03-1.94-0.04c-0.05,0-0.11-0.05-0.22-0.1c0.28-1.23,0.68-2.46,0.84-3.72
		c0.35-2.74,0.75-5.49,0.83-8.24c0.14-4.69,0.05-9.38,0.07-14.07c0-0.38,0-0.77,0.06-1.15c0.24-1.64,1.19-2.51,2.86-2.53
		c2.89-0.03,5.78-0.01,8.67-0.01c4.69,0,9.38,0,14.07,0c2.03,0,2.85,0.8,2.87,2.82c0.02,1.24,0.02,2.48-0.01,3.72
		c-0.03,1.36-0.96,2.32-2.31,2.43c-0.44,0.04-0.88,0.04-1.33,0.04c-6.84,0-13.68,0-20.53,0c-1.32,0-1.32,0-1.32,1.3
		c0,0.06,0,0.12,0,0.18c0,1.37,0,1.37,1.34,1.37c7.11,0,14.22,0.06,21.32-0.03c2.83-0.03,3.66,1.58,3.68,3.67
		c0.03,3.92,0.02,7.84,0.01,11.77c-0.01,2.1-1.2,3.27-3.31,3.27c-1.42,0-2.83-0.04-4.25,0.02c-0.74,0.03-1.16-0.2-1.35-0.92
		C285.24,29.97,285.04,29.57,284.79,28.96z M279.03,7.49c3.36,0,6.72,0,10.09,0c1.12,0,1.33-0.22,1.35-1.36c0.01-0.5,0-1,0-1.5
		c-0.01-1.47-0.15-1.62-1.62-1.62c-6.4,0-12.8,0-19.2,0c-0.21,0-0.41,0-0.62,0.01c-0.73,0.06-1.13,0.44-1.12,1.2
		c0.01,0.71,0.05,1.42-0.01,2.12c-0.08,0.89,0.22,1.18,1.13,1.17C272.36,7.46,275.69,7.49,279.03,7.49z"/>
	<path class="st0" d="M142.91,24.71c0.88,0,1.68,0.07,2.45-0.03c0.35-0.05,0.9-0.42,0.92-0.68c0.09-1.31,0.04-2.63,0.04-3.99
		c-1.92,0-3.73,0-5.67,0c0,1.72,0,3.39,0,5.06c0,1.27,0,1.29-1.3,1.27c-1.8-0.02-1.6,0.27-1.61-1.58c-0.01-1.33-0.02-2.65,0-3.98
		c0.01-0.6-0.19-0.84-0.82-0.82c-1.55,0.04-3.11,0.01-4.77,0.01c0,1.95,0,3.8,0,5.65c0,1.25,0,1.27-1.23,1.25
		c-1.9-0.02-1.64,0.28-1.65-1.63c-0.01-4.87,0-9.73,0-14.6c0-2.16,0.85-3.04,3.04-3.09c1.09-0.03,2.18,0,3.27-0.01
		c0.28,0,0.56-0.03,1.06-0.06c-1.02-1.14-1.9-2.14-2.93-3.29c1.34,0,2.51-0.01,3.67,0.01c0.13,0,0.32,0.09,0.37,0.19
		c0.46,0.84,1.11,0.57,1.74,0.29c1.11-0.51,2.21-1.04,3.31-1.57c-0.02-0.1-0.04-0.2-0.06-0.3c-0.35-0.03-0.71-0.09-1.06-0.09
		c-3.69-0.01-7.37,0-11.06-0.02c-0.32,0-0.88-0.12-0.91-0.27c-0.11-0.53-0.06-1.1,0.01-1.65c0.01-0.09,0.4-0.2,0.62-0.2
		c5.07-0.01,10.15,0,15.22,0c0.87,0,1.47,0.4,1.75,1.22c0.28,0.83-0.08,1.47-0.77,1.88c-1.54,0.92-3.1,1.8-4.66,2.68
		c-0.4,0.23-0.83,0.4-1.25,0.6c-0.01,0.09-0.02,0.19-0.03,0.28c0.31,0.1,0.62,0.29,0.94,0.29c1.47,0.03,2.95,0.01,4.42,0.02
		c2.17,0.01,3.22,1.02,3.23,3.17c0.01,4.39-0.04,8.79,0.02,13.18c0.03,2.02-1.29,2.86-2.88,2.97c-0.32,0.02-0.65,0-0.97,0
		C143.44,26.86,143.44,26.86,142.91,24.71z M140.66,17.79c1.31,0,2.48,0,3.65,0c2.17,0,2.17,0,2.08-2.19c0-0.06-0.01-0.12,0-0.18
		c0.02-0.49-0.24-0.68-0.7-0.68c-1.47,0-2.94-0.02-4.41,0.03c-0.21,0.01-0.57,0.32-0.59,0.52
		C140.62,16.08,140.66,16.87,140.66,17.79z M143.47,12.64c0.5,0,1,0,1.5,0c1.45,0,1.45,0,1.42-1.48c0-0.09,0-0.18,0-0.26
		c-0.06-0.95-0.42-1.32-1.37-1.36c-0.71-0.02-1.41-0.02-2.12,0c-2.71,0.07-2.18-0.51-2.26,2.36c-0.02,0.61,0.26,0.76,0.79,0.74
		C142.12,12.62,142.79,12.64,143.47,12.64z M132.21,17.79c1.7,0,3.29-0.01,4.88,0.01c0.53,0.01,0.73-0.28,0.64-0.71
		c-0.16-0.77,0.56-2.05-0.47-2.24c-1.62-0.3-3.33-0.08-5.05-0.08C132.21,15.82,132.21,16.75,132.21,17.79z M134.92,12.63
		C134.92,12.64,134.92,12.64,134.92,12.63c0.21,0.01,0.41,0.01,0.62,0c2.51-0.07,2.19,0.54,2.21-2.36c0-0.52-0.21-0.75-0.74-0.74
		c-0.85,0.02-1.71,0-2.56,0c-2.3,0-2.49,0.19-2.25,2.47c0.02,0.23,0.38,0.57,0.61,0.59C133.49,12.69,134.21,12.63,134.92,12.63z"/>
	<path class="st0" d="M83.39,31.3c4.55-2.64,9.09-5.23,13.08-8.68c-2.23-2.79-4.42-5.53-6.71-8.4c-1.6,2.43-4.08,1.21-6.31,1.39
		c0.16-0.14,0.31-0.3,0.48-0.42c2.58-1.89,4.93-4.02,6.81-6.64c0.17-0.24,0.55-0.45,0.85-0.47c1-0.06,2-0.02,3.2,0.17
		c-1.49,1.88-2.99,3.76-4.61,5.82c0.9,0,1.66,0.05,2.4-0.01c0.72-0.06,1.1,0.25,1.51,0.8c1.17,1.59,2.42,3.12,3.63,4.67
		c0.27,0.35,0.51,0.73,0.76,1.09c0.14-0.03,0.27-0.05,0.41-0.08c1.37-1.72,2.82-3.38,4.08-5.18c0.66-0.95,1.31-1.47,2.48-1.3
		c0.6,0.09,1.23,0.02,2.06,0.02c-1.6-2.02-3.08-3.88-4.56-5.74c0.04-0.08,0.08-0.16,0.13-0.24c1.12,0,2.25-0.01,3.37,0.01
		c0.14,0,0.29,0.19,0.4,0.32c2.05,2.63,4.31,5.06,7.09,7.28c-1.58,0-2.95,0.05-4.31-0.03c-0.36-0.02-0.71-0.46-1.04-0.73
		c-0.29-0.24-0.55-0.51-0.82-0.76c-2.26,2.82-4.47,5.59-6.77,8.46c3.84,3.4,8.34,5.99,12.88,8.64c-1.86,0-3.73,0.01-5.59-0.01
		c-0.21,0-0.44-0.16-0.63-0.29c-2.8-1.96-5.61-3.9-8.38-5.9c-0.53-0.38-0.8-0.31-1.28,0.04c-2.7,1.94-5.42,3.86-8.17,5.73
		c-0.43,0.29-1.03,0.42-1.56,0.43C86.64,31.34,85.01,31.3,83.39,31.3z"/>
	<path class="st0" d="M200.43,0.16c-0.16,0.51-0.29,0.95-0.44,1.39c-0.14,0.41-0.29,0.82-0.49,1.38c0.56,0,0.99-0.01,1.42,0
		c1.77,0.05,2.77,1.07,2.77,2.83c0,7.64,0,15.27,0,22.91c0,1.69-0.91,2.59-2.62,2.62c-0.44,0.01-0.88,0-1.33,0
		c-2.01,0-2.01,0-2.63-2.19c0.88,0,1.71,0.01,2.55,0c0.97-0.01,1.28-0.3,1.28-1.27c0.01-3.27-0.01-6.55,0.01-9.82
		c0-0.65-0.22-0.9-0.88-0.88c-1.15,0.03-2.3,0.05-3.45,0c-0.76-0.03-0.94,0.29-0.94,0.99c-0.01,4.07-0.4,8.1-1.21,12.09
		c-0.16,0.78-0.4,1.22-1.3,1.08c-0.6-0.09-1.22-0.02-1.85-0.02c0.36-1.8,0.81-3.48,1.01-5.18c0.31-2.72,0.43-5.45,0.64-8.18
		c0.04-0.57-0.2-0.85-0.77-0.77c-0.84,0.12-1.07-0.26-1.03-1.05c0.04-0.69-0.05-1.34,0.98-1.2c0.67,0.09,0.85-0.28,0.84-0.9
		c-0.02-2.74-0.01-5.48-0.01-8.23c0-1.78,1.01-2.84,2.76-2.83c0.61,0,0.94-0.2,1.11-0.76c0.02-0.06,0.04-0.11,0.06-0.17
		C197.8-0.17,197.8-0.17,200.43,0.16z M195.7,10.28c0,1.27,0.02,2.53-0.01,3.79c-0.02,0.61,0.19,0.86,0.81,0.84
		c1.21-0.02,2.41-0.02,3.62,0c0.58,0.01,0.85-0.2,0.84-0.82c-0.02-2.53-0.01-5.06-0.01-7.59c0-0.78-0.37-1.22-1.17-1.22
		c-0.97-0.01-1.94-0.01-2.91,0c-0.79,0.01-1.18,0.38-1.17,1.2C195.71,7.74,195.7,9.01,195.7,10.28z"/>
	<path class="st0" d="M178.39,24.15c0.81,0,1.54,0.01,2.27,0c1.59-0.02,2.35-0.73,2.6-2.3c0.31-1.96,0.07-3.86-0.86-5.57
		c-0.82-1.51-1.89-2.9-2.92-4.28c-0.37-0.49-0.46-0.78-0.16-1.37c1.07-2.12,2.07-4.29,3.04-6.46c0.37-0.82,0.17-1.06-0.73-1.09
		c-1-0.03-2.01-0.03-3.01,0c-1.13,0.03-1.31,0.23-1.31,1.38c0,8.46,0,16.93,0,25.39c0,0.24,0,0.47,0,0.71
		c0,0.12,0.04,0.27-0.02,0.35c-0.61,0.86-1.5,0.23-2.25,0.39c-0.43,0.09-0.66-0.15-0.63-0.61c0.01-0.18,0-0.35,0-0.53
		c0-8.82,0-17.63,0-26.45c0-2.04,0.95-3.07,2.98-3.12c1.86-0.05,3.72-0.05,5.57,0c2.16,0.06,3.21,1.5,2.44,3.52
		c-0.82,2.14-1.81,4.21-2.81,6.27c-0.3,0.63-0.32,1.02,0.15,1.55c1.7,1.96,3.03,4.15,3.48,6.75c0.28,1.6,0.37,3.23-0.29,4.78
		c-0.75,1.78-2.04,2.85-4.03,2.93c-0.27,0.01-0.53,0.03-0.8,0.03C178.96,26.44,178.96,26.44,178.39,24.15z"/>
	<path class="st0" d="M124.71,27.8c-0.64,1.07-1.14,2.01-1.74,2.88c-0.21,0.3-0.67,0.54-1.04,0.58c-0.84,0.08-1.69,0.03-2.72,0.03
		c0.24-0.39,0.4-0.66,0.56-0.91c1.97-3.01,3.76-6.12,4.93-9.55c0.39-1.14,0.33-1.22-0.84-1.22c-0.88,0-1.77,0.04-2.65-0.01
		c-1.52-0.09-2.01-1.06-1.21-2.36c1.13-1.83,2.31-3.63,3.44-5.46c0.67-1.08,0.55-1.26-0.75-1.27c-0.97-0.01-1.95-0.02-2.92,0
		c-1.02,0.02-0.67-0.74-0.73-1.26c-0.07-0.58,0.12-0.86,0.77-0.84c1.83,0.04,3.66-0.01,5.48,0.02c1.72,0.03,2.53,1.32,1.7,2.81
		c-0.98,1.78-2.06,3.5-3.1,5.25c-0.16,0.27-0.32,0.54-0.62,1.06c0.87,0,1.53-0.01,2.19,0c2.07,0.04,2.78,0.95,2.17,2.96
		c-0.46,1.52-1.04,3-1.65,4.46c-0.26,0.64-0.21,1.08,0.24,1.59c1.65,1.87,3.83,2.52,6.18,2.55c5.63,0.07,11.26,0.03,16.89,0.03
		c0.32,0,0.64,0,1.17,0c-0.34,0.73-0.59,1.35-0.92,1.91c-0.1,0.16-0.45,0.25-0.68,0.25c-5.66,0.01-11.32,0.05-16.98-0.01
		c-2.44-0.03-4.58-0.99-6.35-2.7C125.29,28.32,125.03,28.09,124.71,27.8z"/>
	<path class="st0" d="M204.06,31.29c2.28-3.39,2.88-7.07,2.91-10.89c0.02-2.18,0-4.36,0.01-6.54c0.01-1.96,1.17-3.13,3.13-3.14
		c1.65-0.01,3.3-0.01,4.95,0c2.14,0.01,3.28,1.14,3.29,3.26c0,4.48,0,8.96,0,13.44c0,1.32,0.2,1.51,1.55,1.52c0.76,0,1.53,0,2.46,0
		c-0.35,0.77-0.63,1.43-0.95,2.08c-0.06,0.13-0.27,0.26-0.41,0.26c-1.15,0-2.31,0.08-3.44-0.07c-1.31-0.18-2.04-1.09-2.1-2.46
		c-0.07-1.83-0.06-3.65-0.07-5.48c-0.01-2.86,0-5.72-0.01-8.58c0-1.39-0.22-1.6-1.57-1.6c-0.88,0-1.77-0.01-2.65,0
		c-0.96,0.02-1.27,0.32-1.28,1.28c-0.02,2.54,0.01,5.07-0.03,7.61c-0.05,3.05-0.84,5.92-2.08,8.69c-0.21,0.48-0.49,0.66-1.01,0.64
		C205.93,31.26,205.07,31.29,204.06,31.29z"/>
	<path class="st0" d="M164.06,31.3c-1.47,0-2.94,0.01-4.42,0c-1.55-0.01-2.71-1.08-2.74-2.63c-0.04-2.44-0.04-4.89,0-7.33
		c0.02-1.47,1.24-2.64,2.76-2.66c3.03-0.03,6.07-0.03,9.1,0c1.57,0.01,2.68,1.08,2.71,2.66c0.05,2.44,0.04,4.89-0.01,7.33
		c-0.04,1.63-1.08,2.59-2.72,2.62C167.18,31.32,165.62,31.3,164.06,31.3C164.06,31.3,164.06,31.3,164.06,31.3z M164.17,28.94
		c1.03,0,2.06,0,3.09,0c1-0.01,1.28-0.25,1.29-1.23c0.02-1.8,0.02-3.59,0-5.39c-0.01-0.89-0.36-1.26-1.22-1.27
		c-2.09-0.02-4.18,0-6.27-0.01c-0.75,0-1.18,0.35-1.19,1.1c-0.02,1.91-0.02,3.83,0.01,5.74c0.01,0.75,0.43,1.09,1.2,1.07
		C162.11,28.91,163.14,28.94,164.17,28.94z"/>
	<path class="st0" d="M279.44,27.59c-1.83,0-3.65,0.01-5.48,0c-1.58-0.01-2.68-1.02-2.73-2.61c-0.06-1.65-0.05-3.3,0-4.95
		c0.04-1.49,1.14-2.57,2.7-2.58c3.74-0.04,7.48-0.03,11.22,0c1.49,0.01,2.38,0.98,2.39,2.49c0.02,1.71,0.02,3.42,0,5.12
		c-0.02,1.59-0.93,2.51-2.54,2.52C283.16,27.61,281.3,27.59,279.44,27.59z M279.42,25.3C279.42,25.3,279.42,25.3,279.42,25.3
		c1.38-0.01,2.77-0.01,4.15-0.01c0.76,0,1.13-0.34,1.1-1.14c-0.03-1.06-0.02-2.12,0-3.18c0.02-0.83-0.4-1.17-1.19-1.17
		c-2.71,0-5.41-0.01-8.12,0c-0.94,0-1.24,0.33-1.25,1.3c-0.01,0.97-0.01,1.94,0,2.91c0.01,1.01,0.21,1.24,1.25,1.27
		C276.71,25.33,278.06,25.3,279.42,25.3z"/>
	<path class="st0" d="M96.38,3.88c-0.47-1.31-0.87-2.46-1.34-3.78c1.22,0,2.27-0.03,3.32,0.03c0.19,0.01,0.42,0.36,0.52,0.6
		c0.36,0.8,0.69,1.62,1,2.45c0.24,0.62,0.66,0.8,1.3,0.79c3.86-0.02,7.72,0.02,11.58-0.03c0.95-0.01,1.02,0.4,1.03,1.16
		c0.01,0.78-0.11,1.16-1.04,1.15c-9.43-0.03-18.87-0.04-28.3,0c-1.05,0-1-0.51-1.04-1.25c-0.03-0.8,0.2-1.07,1.03-1.06
		c3.57,0.04,7.13,0.02,10.7,0.02C95.52,3.95,95.89,3.91,96.38,3.88z"/>
	<path class="st0" d="M170.89,7.13c-0.73,2.34-1.4,4.48-2.12,6.79c0.63,0.03,1.22,0.07,1.81,0.09c0.35,0.01,0.71,0,1.06,0
		c1.24,0,1.2,0,1.24,1.28c0.02,0.7-0.15,0.98-0.92,0.97c-5.3-0.03-10.61-0.04-15.91,0c-0.84,0.01-0.99-0.31-0.95-1.04
		c0.04-0.66-0.1-1.26,0.95-1.24c2.83,0.07,5.66,0,8.48,0.03c0.72,0.01,1.16-0.2,1.37-0.92c0.51-1.71,1.09-3.41,1.59-5.13
		c0.17-0.58,0.38-0.92,1.07-0.86C169.27,7.17,169.97,7.13,170.89,7.13z"/>
	<path class="st0" d="M211.74,4.93c-0.55-1.68-1.04-3.2-1.58-4.86c1.01,0,1.86-0.04,2.7,0.03c0.22,0.02,0.48,0.37,0.59,0.62
		c0.5,1.16,0.96,2.34,1.4,3.53c0.21,0.55,0.55,0.76,1.13,0.75c1.68-0.03,3.36,0.04,5.04-0.03c0.96-0.04,0.94,0.5,0.95,1.17
		c0,0.66-0.03,1.11-0.92,1.1c-5.07-0.04-10.14-0.04-15.21,0c-0.88,0.01-0.94-0.43-0.93-1.09c0.01-0.67-0.02-1.22,0.95-1.18
		c1.56,0.06,3.12,0.02,4.69,0.01C210.9,5,211.25,4.96,211.74,4.93z"/>
	<path class="st0" d="M162.75,3.32c-0.36-1.14-0.67-2.11-1.03-3.22c1.01,0,1.88-0.03,2.75,0.02c0.21,0.01,0.5,0.28,0.6,0.5
		c0.28,0.61,0.51,1.25,0.71,1.9c0.2,0.67,0.59,0.92,1.3,0.9c1.44-0.05,2.89,0,4.33-0.02c0.57-0.01,0.76,0.2,0.77,0.78
		c0.01,1.45,0.03,1.45-1.4,1.45c-4.6,0-9.2-0.03-13.8,0.02c-0.91,0.01-0.99-0.36-0.99-1.09c0-0.75,0.05-1.22,1.02-1.17
		c1.53,0.08,3.06,0.03,4.6,0.02C161.94,3.4,162.28,3.35,162.75,3.32z"/>
	<path class="st0" d="M227.04,31.28c2.14-4.06,3.62-8.18,4.75-12.43c0.06-0.22,0.42-0.49,0.66-0.51c0.85-0.06,1.7-0.02,2.63-0.02
		c-0.04,0.3-0.05,0.53-0.1,0.74c-1.12,3.94-2.44,7.8-4.18,11.52c-0.25,0.54-0.55,0.75-1.14,0.72
		C228.84,31.25,228.02,31.28,227.04,31.28z"/>
	<path class="st0" d="M260.08,46.68c-0.33,0-0.58,0-0.97,0c0.19-2.82,0.39-5.63,0.58-8.42c1.27-0.3,1.32-0.28,1.7,0.82
		c0.69,1.99,1.36,3.99,2.06,6.04c0.74-2.06,1.45-4.04,2.17-6.03c0.38-1.05,0.39-1.05,1.71-0.89c0.17,2.78,0.34,5.59,0.52,8.46
		c-0.37,0-0.65,0-1.01,0c-0.12-2.38-0.23-4.74-0.34-7.1c-0.05-0.01-0.11-0.02-0.16-0.03c-0.1,0.25-0.2,0.51-0.3,0.76
		c-0.67,1.91-1.34,3.83-2.03,5.73c-0.09,0.26-0.38,0.44-0.58,0.66c-0.22-0.22-0.55-0.41-0.65-0.68c-0.74-2.13-1.44-4.28-2.28-6.43
		C260.35,41.93,260.22,44.28,260.08,46.68z"/>
	<path class="st0" d="M84,39.59c-0.13,2.34-0.26,4.67-0.39,7.07c-0.33,0.02-0.58,0.04-0.98,0.06c0.2-2.88,0.39-5.69,0.58-8.48
		c1.31-0.28,1.32-0.28,1.71,0.86c0.68,1.97,1.34,3.94,2.06,6.04c0.62-1.76,1.2-3.4,1.78-5.04c0.12-0.33,0.24-0.66,0.36-1
		c0.39-1.06,0.39-1.06,1.72-0.91c0.18,2.78,0.35,5.59,0.54,8.47c-0.37,0.02-0.65,0.04-1.01,0.06c-0.12-2.4-0.24-4.74-0.36-7.08
		c-0.06-0.02-0.12-0.03-0.18-0.05c-0.09,0.24-0.19,0.48-0.28,0.73c-0.68,1.91-1.35,3.83-2.05,5.73c-0.09,0.25-0.4,0.41-0.61,0.62
		c-0.2-0.21-0.5-0.38-0.59-0.63c-0.74-2.14-1.44-4.29-2.15-6.43C84.1,39.61,84.05,39.6,84,39.59z"/>
	<path class="st0" d="M227.48,9.12c0.94,0,1.88-0.03,2.81,0.02c0.22,0.01,0.52,0.26,0.63,0.47c1.15,2.31,2.28,4.63,3.44,7.02
		c-1.01,0-2.16,0.01-3.31-0.01c-0.11,0-0.26-0.15-0.32-0.27c-1.18-2.32-2.36-4.65-3.53-6.97C227.29,9.29,227.39,9.2,227.48,9.12z"/>
	<path class="st0" d="M205.6,38.19c1.12,0,2.15-0.08,3.16,0.02c0.91,0.09,1.61,0.63,1.8,1.58c0.19,0.95-0.25,1.65-1.07,2.13
		c-0.07,0.04-0.13,0.1-0.22,0.17c0.11,0.09,0.19,0.17,0.3,0.22c0.97,0.44,1.47,1.2,1.34,2.25c-0.12,1.07-0.77,1.82-1.84,1.99
		c-1.12,0.18-2.26,0.19-3.47,0.27C205.6,43.88,205.6,41.1,205.6,38.19z M207.3,42.55c-0.55-0.11-0.79,0.18-0.75,0.84
		c0.04,0.64,0.03,1.29,0,1.94c-0.02,0.49,0.2,0.67,0.67,0.7c1.42,0.11,2.48-0.51,2.57-1.56c0.1-1.17-0.63-1.8-2.21-1.91
		C207.53,42.56,207.48,42.56,207.3,42.55z M206.61,41.77c1.1,0.07,2.19,0.23,2.74-0.84c0.2-0.39,0.08-1.1-0.15-1.52
		c-0.36-0.63-1.61-0.72-2.58-0.33C206.61,39.94,206.61,40.81,206.61,41.77z"/>
	<path class="st0" d="M278.28,42.19c0.01,2.24-0.89,3.78-2.5,4.4c-2.28,0.87-4.65-0.3-5.1-2.7c-0.2-1.08-0.13-2.3,0.18-3.36
		c0.52-1.81,2.22-2.73,4.07-2.49c1.81,0.24,3.06,1.52,3.28,3.39C278.25,41.72,278.26,42.02,278.28,42.19z M277.34,42.44
		c-0.25-0.8-0.41-1.59-0.75-2.29c-0.43-0.88-1.24-1.34-2.23-1.34c-1.02,0.01-1.83,0.49-2.29,1.4c-0.73,1.46-0.78,2.96,0,4.41
		c0.99,1.84,3.42,1.93,4.46,0.15C276.94,44.09,277.08,43.25,277.34,42.44z"/>
	<path class="st0" d="M121.66,40.62c0.26,0,0.49,0,0.76,0c0.05,0.26,0.09,0.5,0.14,0.76c1.89-1.32,2.6-1.28,3.79,0.19
		c0.23-0.22,0.45-0.46,0.7-0.66c1.21-0.95,2.93-0.48,3.19,1.03c0.27,1.52,0.19,3.09,0.27,4.71c-0.41,0.03-0.69,0.05-1.09,0.07
		c0-1.17,0.01-2.28,0-3.39c-0.01-1.35-0.52-2.09-1.41-2.07c-0.92,0.02-1.47,0.8-1.47,2.13c0,1.06,0,2.12,0,3.25
		c-0.32,0.03-0.59,0.05-1.01,0.08c0-1.04,0-2.03,0-3.02c0-0.29,0.01-0.59-0.01-0.88c-0.07-0.97-0.61-1.58-1.35-1.57
		c-0.78,0.01-1.48,0.75-1.51,1.68c-0.04,1.12-0.01,2.24-0.02,3.36c0,0.11-0.04,0.22-0.06,0.36c-0.31,0-0.58,0-0.96,0
		c0-1.84,0-3.63,0-5.42C121.62,41.06,121.65,40.85,121.66,40.62z"/>
	<path class="st0" d="M227.49,3.5c0.01-1.5,1.13-2.58,2.65-2.56c1.46,0.02,2.55,1.12,2.55,2.58c0,1.48-1.15,2.64-2.62,2.63
		C228.61,6.15,227.48,5,227.49,3.5z"/>
	<path class="st0" d="M122.95,0.94c1.49,0.02,2.56,1.15,2.53,2.68c-0.03,1.43-1.18,2.55-2.61,2.54c-1.43-0.01-2.63-1.23-2.61-2.66
		C120.28,2.04,121.45,0.93,122.95,0.94z"/>
	<path class="st0" d="M165.61,41.19c0-0.95-0.01-1.82,0-2.69c0.01-0.85,0.04-0.86,1.01-0.7c0,2.92,0,5.86,0,8.86
		c-0.22,0.02-0.47,0.04-0.77,0.06c-0.08-0.31-0.14-0.59-0.17-0.68c-0.73,0.27-1.46,0.71-2.21,0.77c-0.53,0.04-1.21-0.31-1.64-0.69
		c-1.17-1.03-1.25-3.31-0.25-4.63C162.5,40.28,163.85,40.15,165.61,41.19z M165.62,43.74c-0.02-0.33-0.01-0.57-0.04-0.8
		c-0.09-0.91-0.62-1.54-1.42-1.68c-0.81-0.14-1.61,0.32-1.96,1.17c-0.37,0.89-0.36,1.78,0.09,2.64c0.36,0.7,0.97,1.05,1.74,0.94
		c0.8-0.11,1.33-0.59,1.5-1.41C165.6,44.3,165.6,43.97,165.62,43.74z"/>
	<path class="st0" d="M175.03,43.47c0,0.97,0,2.05,0,3.2c-0.35,0.02-0.63,0.04-1.04,0.06c0-1.43,0-2.81,0-4.19c0-1.38,0-2.76,0-4.27
		c1.43-0.23,2.81-0.44,4.13,0.27c0.84,0.45,1.15,1.25,1.11,2.16c-0.05,1.06-0.53,1.92-1.55,2.26
		C176.87,43.23,175.98,43.3,175.03,43.47z M175.02,38.91c0,0.94,0,1.75,0,2.57c0,1.01,0.09,1.09,1.11,1.03
		c0.23-0.01,0.47-0.06,0.69-0.12c0.94-0.27,1.44-0.96,1.37-1.89c-0.07-0.93-0.66-1.5-1.69-1.58
		C176.06,38.88,175.62,38.91,175.02,38.91z"/>
	<path class="st0" d="M162.81,12.59c-0.99,0-1.92,0.03-2.85-0.02c-0.2-0.01-0.48-0.26-0.56-0.47c-0.55-1.42-1.06-2.86-1.57-4.3
		c-0.15-0.43,0-0.69,0.49-0.68c0.06,0,0.12,0,0.18,0c2.21-0.1,2.2-0.09,2.95,2.03C161.85,10.28,162.33,11.38,162.81,12.59z"/>
	<path class="st0" d="M243,40.61c0.23,0,0.49,0,0.9,0c0,0.56,0,1.1,0,1.65c0.01,0.71-0.03,1.42,0.04,2.12
		c0.11,1.12,0.64,1.68,1.47,1.64c0.89-0.04,1.53-0.76,1.56-1.8c0.02-0.88,0.01-1.77,0.01-2.65c0-0.29,0-0.58,0-0.94
		c0.36-0.02,0.64-0.03,1.01-0.05c0,2.04,0,4.02,0,6.02c-0.75,0.19-0.75,0.19-0.96-0.72c-0.24,0.19-0.44,0.37-0.66,0.53
		c-1.33,0.96-3.12,0.38-3.34-1.23C242.85,43.72,243,42.2,243,40.61z"/>
	<path class="st0" d="M187.61,43.58c0,1.95-1.21,3.26-3.03,3.29c-1.69,0.02-2.94-1.32-2.95-3.16c-0.01-1.92,1.26-3.28,3.04-3.28
		C186.42,40.43,187.6,41.71,187.61,43.58z M184.6,40.96c-0.57,0.42-1.17,0.68-1.47,1.14c-0.65,0.98-0.63,2.07-0.03,3.1
		c0.7,1.19,2.22,1.2,2.99,0.05c0.62-0.93,0.65-2.39-0.05-3.25C185.72,41.6,185.19,41.37,184.6,40.96z"/>
	<path class="st0" d="M149.72,46.92c-0.48-0.28-0.8-0.47-1.18-0.69c-0.33,0.15-0.81,0.44-1.33,0.58c-0.9,0.24-1.82-0.23-2.13-1
		c-0.36-0.88-0.07-1.95,0.83-2.35c0.84-0.38,1.77-0.53,2.71-0.8c0.27-1.14-0.87-1.93-2.96-1.13c-0.32-0.39-0.26-0.62,0.24-0.82
		c2.2-0.91,3.81,0.11,3.82,2.45C149.73,44.31,149.72,45.45,149.72,46.92z M148.59,43.43c-0.7,0.17-1.36,0.26-1.96,0.51
		c-0.63,0.26-0.76,0.87-0.57,1.48c0.19,0.61,0.71,0.72,1.28,0.66C148.4,45.95,148.84,45.13,148.59,43.43z"/>
	<path class="st0" d="M97.65,42.82c0.02-1.59-0.82-1.94-3.17-1.42c0.13-0.22,0.22-0.57,0.41-0.65c1.65-0.66,3.93-0.51,3.86,2.35
		c-0.03,1.17,0,2.34,0,3.5c-0.59,0.27-0.94,0.12-0.94-0.47c-0.62,0.26-1.13,0.57-1.68,0.69c-0.85,0.2-1.74-0.31-2.03-1.05
		c-0.32-0.82-0.07-1.82,0.72-2.25c0.6-0.33,1.31-0.46,1.99-0.64C97.08,42.82,97.38,42.84,97.65,42.82z M97.67,43.42
		c-0.73,0.18-1.42,0.28-2.04,0.54c-0.59,0.25-0.71,0.84-0.54,1.42c0.18,0.61,0.67,0.76,1.25,0.7
		C97.41,45.97,97.84,45.22,97.67,43.42z"/>
	<path class="st0" d="M134.3,43.84c0.03,1.73,1.14,2.49,3,2.13c0.72-0.14,0.72-0.14,0.88,0.5c-0.97,0.39-1.97,0.52-2.99,0.23
		c-1.58-0.45-2.36-2.24-1.83-4.13c0.44-1.56,1.91-2.45,3.39-2.06c1.16,0.31,2.07,1.69,1.81,2.86c-0.04,0.18-0.38,0.41-0.6,0.42
		c-0.91,0.04-1.82,0-2.73,0C134.92,43.79,134.61,43.83,134.3,43.84z M137.51,43.02c0.23-1.13-0.73-1.9-1.53-1.86
		c-0.99,0.05-1.66,0.8-1.6,1.86C135.43,43.02,136.48,43.02,137.51,43.02z"/>
	<path class="st0" d="M228.37,43.85c-0.1,1.26,0.57,2.09,1.78,2.18c0.49,0.04,0.99-0.11,1.48-0.12c0.18,0,0.37,0.15,0.55,0.23
		c-0.13,0.16-0.24,0.45-0.38,0.46c-0.87,0.06-1.77,0.23-2.6,0.05c-1.6-0.35-2.37-2.25-1.8-4.11c0.5-1.66,2.01-2.5,3.56-1.99
		c1.05,0.35,1.9,1.78,1.61,2.82c-0.05,0.18-0.4,0.39-0.63,0.4c-0.94,0.04-1.88,0-2.82,0C228.87,43.79,228.61,43.83,228.37,43.85z
		 M228.33,43.02c1.11,0,2.16,0,3.2,0c0.03-1.14-0.44-1.76-1.33-1.84C229.18,41.08,228.49,41.74,228.33,43.02z"/>
	<path class="st0" d="M235.45,41.39c0.11-0.21,0.16-0.52,0.34-0.61c1.96-1.08,3.83-0.04,3.92,2.17c0.05,1.23,0.01,2.46,0.01,3.92
		c-0.43-0.23-0.76-0.41-1.19-0.64c-0.32,0.14-0.83,0.45-1.38,0.59c-0.87,0.22-1.73-0.25-2.05-1c-0.37-0.85-0.12-1.86,0.72-2.31
		c0.6-0.32,1.32-0.44,2-0.62c0.25-0.07,0.51-0.05,0.75-0.07c0.38-1.5-1.21-2.02-2.82-1.29C235.64,41.48,235.55,41.44,235.45,41.39z
		 M238.56,43.44c-0.67,0.16-1.31,0.23-1.88,0.47c-0.66,0.27-0.84,0.87-0.61,1.53c0.23,0.66,0.79,0.72,1.37,0.62
		C238.47,45.88,238.89,44.99,238.56,43.44z"/>
	<path class="st0" d="M214.82,40.58c0,1.28-0.02,2.42,0.01,3.57c0.03,1.24,0.53,1.88,1.41,1.88c0.93,0,1.63-0.8,1.65-1.92
		c0.02-1.14,0-2.28,0-3.47c0.37,0,0.65,0,0.98,0c0,2,0,3.99,0,5.98c-0.72,0.13-0.72,0.13-0.96-0.65c-0.44,0.26-0.85,0.6-1.32,0.77
		c-1.33,0.47-2.61-0.25-2.73-1.63c-0.12-1.45-0.03-2.92-0.03-4.46C214.13,40.61,214.41,40.6,214.82,40.58z"/>
	<path class="st0" d="M153.97,46.68c-0.36,0-0.64,0-0.98,0c0-2.01,0-4,0-6c0.7-0.32,0.86,0.09,0.86,0.78
		c0.3-0.23,0.51-0.42,0.74-0.58c1.44-1,3.22-0.24,3.46,1.48c0.06,0.41,0.07,0.82,0.07,1.23c0.01,1,0,1.99,0,3.07
		c-0.35,0.02-0.62,0.04-1.05,0.08c0-0.96,0-1.86,0-2.75c0-0.32,0.01-0.65-0.01-0.97c-0.06-1.13-0.58-1.75-1.47-1.74
		c-0.91,0.01-1.61,0.78-1.62,1.85C153.96,44.29,153.97,45.46,153.97,46.68z"/>
	<path class="st0" d="M283.86,38.96c0,2.65,0,5.15,0,7.71c-0.35,0.02-0.62,0.04-1.05,0.07c0-0.61,0-1.15,0-1.7
		c0-1.74-0.02-3.48,0.01-5.21c0.01-0.66-0.21-0.91-0.87-0.85c-0.38,0.04-0.77-0.01-1.15,0.01c-0.59,0.03-0.74-0.23-0.52-0.85
		c1.93,0,3.9-0.01,5.86,0.03c0.15,0,0.3,0.39,0.6,0.81C285.62,38.96,284.81,38.96,283.86,38.96z"/>
	<path class="st0" d="M198.34,24.91c-1.16-0.02-2.02-0.93-1.99-2.12c0.02-1.12,0.93-2.01,2.04-1.99c1.09,0.02,2.02,0.95,2.03,2.04
		C200.43,23.96,199.46,24.93,198.34,24.91z"/>
	<path class="st0" d="M112.07,41.56c-0.44-0.29-1.29,0.03-0.95-0.92c0.26-0.04,0.54-0.08,0.85-0.13c0.11-0.6-0.04-1.42,1.04-1.27
		c0.03,0.38,0.06,0.78,0.09,1.29c0.48,0.02,0.97,0.05,1.45,0.07c0.07,0.06,0.14,0.13,0.2,0.19c-0.19,0.19-0.35,0.49-0.57,0.56
		c-0.32,0.1-0.68,0.02-1.09,0.02c0,1.33-0.02,2.56,0.01,3.79c0.01,0.57,0.39,0.8,0.93,0.87c0.18,0.02,0.34,0.2,0.51,0.31
		c-0.16,0.16-0.3,0.43-0.49,0.48c-1.06,0.28-1.92-0.39-1.97-1.55C112.03,44.02,112.07,42.76,112.07,41.56z"/>
	<path class="st0" d="M196.16,40.52c-0.04-0.75,0.02-1.36,0.96-1.3c0.05,0.41,0.1,0.84,0.16,1.36c0.39,0,0.74-0.04,1.07,0.02
		c0.17,0.03,0.3,0.25,0.45,0.38c-0.16,0.13-0.3,0.35-0.47,0.38c-0.33,0.06-0.69,0.02-1.08,0.02c0,1.34-0.04,2.57,0.01,3.8
		c0.04,0.86,0.72,0.88,1.37,0.86c0.26,0.54,0.02,0.75-0.49,0.83c-1,0.15-1.79-0.35-1.86-1.38c-0.1-1.31-0.02-2.64-0.02-3.91
		c-0.47-0.28-1.32-0.02-0.93-0.94C195.57,40.6,195.82,40.57,196.16,40.52z"/>
	<path class="st0" d="M103,46.69c-0.36,0-0.62,0-0.96,0c0-1.99,0-3.98,0-6.05c0.2-0.02,0.44-0.03,0.73-0.06
		c0.04,0.34,0.07,0.62,0.1,0.87c0.6-0.39,1.2-0.78,2-1.3c0.04,0.59,0.06,0.87,0.08,1.14c-1.59,0.39-1.94,0.85-1.95,2.48
		C103,44.71,103,45.65,103,46.69z"/>
	<path class="st0" d="M190.5,40.62c0.26,0,0.48,0,0.76,0c0.03,0.29,0.06,0.58,0.09,0.83c0.6-0.39,1.2-0.78,1.99-1.3
		c0.05,0.58,0.08,0.86,0.1,1.12c-1.65,0.46-1.95,0.85-1.96,2.56c0,0.94,0,1.87,0,2.84c-0.37,0-0.65,0-0.98,0
		C190.5,44.67,190.5,42.7,190.5,40.62z"/>
	<path class="st0" d="M223.2,46.7c-0.4,0-0.66,0-0.98,0c0-2.01,0-4,0-6.07c0.23-0.01,0.47-0.02,0.74-0.03
		c0.07,0.33,0.12,0.61,0.19,0.98c0.33-0.33,0.56-0.63,0.86-0.83c0.28-0.18,0.63-0.24,1.07-0.4c0.03,0.4,0.05,0.67,0.07,0.93
		c-1.57,0.42-1.94,0.9-1.95,2.51C223.19,44.73,223.2,45.67,223.2,46.7z"/>
	<path class="st0" d="M107.53,40.62c0.32,0,0.59,0,0.92,0c0,2.02,0,4,0,6.05c-0.3,0.02-0.58,0.03-0.92,0.05
		C107.53,44.67,107.53,42.66,107.53,40.62z"/>
	<path class="st0" d="M118.34,46.68c-0.32,0-0.58,0-0.92,0c0-1.98,0-3.97,0-6.03c0.28,0,0.57,0,0.92,0
		C118.34,42.64,118.34,44.61,118.34,46.68z"/>
	<path class="st0" d="M108.04,37.69c0.29,0.48,0.61,0.77,0.57,1c-0.04,0.24-0.44,0.57-0.67,0.57c-0.21-0.01-0.57-0.41-0.58-0.65
		C107.35,38.37,107.7,38.13,108.04,37.69z"/>
	<path class="st0" d="M117.88,37.68c0.3,0.49,0.61,0.77,0.58,1.01c-0.04,0.24-0.42,0.57-0.65,0.57c-0.2,0-0.55-0.4-0.57-0.64
		C117.22,38.39,117.55,38.13,117.88,37.68z"/>
	<path class="st0" d="M196.34,9.9c0-1.2,0.84-2.04,2.05-2.03c1.12,0.01,2.02,0.89,2.02,2c0.01,1.14-0.94,2.08-2.08,2.06
		C197.23,11.91,196.35,11.02,196.34,9.9z"/>
</g>
<g>
	<path class="st0" d="M14.9,32.84l16.72,14.45l29.6-21.72c0,0-5.2,2.58-9.45,3.23c0,0-4.8,0.72-10.86-0.45
		C34.41,27.09,23.23,26.48,14.9,32.84z"/>
	<path class="st0" d="M69.55,18.75c0,0-5.71,4.8-14.19,6.47c-8.49,1.67-16.77-2.12-24.65-1.97c-7.88,0.15-14.65,3.13-19.04,6.97
		l-8.23-7.07c0,0,8.23-6.41,20.76-6.57s15.91,4.8,28.08,5.56C52.28,22.14,64.05,22.54,69.55,18.75z"/>
	<path class="st0" d="M74.86,12.74c0,0-7.83,5.15-14.95,6.01s-17.48-2.93-20.56-3.64c-3.08-0.71-11.67-5.4-27.83-0.15L0,4.66
		c0,0,7.37-3.18,17.83-3.18s19.8,5.15,24.55,7.33S55.36,16.73,74.86,12.74z"/>
</g>
</svg>
