<?xml version="1.0" encoding="UTF-8"?>
<svg width="24px" height="21px" viewBox="0 0 24 21" version="1.1" xmlns="http://www.w3.org/2000/svg" xmlns:xlink="http://www.w3.org/1999/xlink">
    <title>map-marked</title>
    <g id="Page-1" stroke="none" stroke-width="1" fill="none" fill-rule="evenodd">
        <g id="Apple-TV" transform="translate(-971.000000, -344.000000)" fill="#FFFFFF" fill-rule="nonzero">
            <g id="map-marked" transform="translate(971.000000, 344.000000)">
                <path d="M11.5714286,14.4510268 C11.0056988,14.450615 10.4689535,14.2006925 10.1045089,13.7679911 C9.31459821,12.8374554 8.47446429,11.7759375 7.71428571,10.6875 L7.71428571,18 L15.4285714,20.5714286 L15.4285714,10.6875 C14.6683929,11.7759375 13.8286607,12.8378571 13.0383482,13.77 C12.6734539,14.2018631 12.1368077,14.4510045 11.5714286,14.4510268 Z M0.808392857,8.67857143 C0.320886168,8.87348759 0.000870759463,9.34523993 -1.51958009e-08,9.87026786 L-1.51958009e-08,19.9285714 C-1.51958009e-08,20.1418942 0.10573125,20.341346 0.282354806,20.4609735 C0.458978362,20.5806009 0.683440637,20.6048211 0.881517857,20.525625 L6.42857143,18 L6.42857143,8.63517857 C6.09198438,8.03862185 5.80637155,7.41470903 5.57477679,6.77008929 L0.808392857,8.67857143 Z M22.2613393,6.4771875 L16.7142857,9 L16.7142857,20.5714286 L22.3344643,18.3234375 C22.8226505,18.1282488 23.1428571,17.6554929 23.1428571,17.1297321 L23.1428571,7.07142857 C23.142637,6.85824805 23.0367504,6.65904205 22.8601698,6.53960469 C22.6835893,6.42016732 22.4592845,6.39603515 22.2613393,6.47517857 L22.2613393,6.4771875 Z" id="Shape" opacity="0.4"></path>
                <path d="M16.6339286,5.0625 C16.6339286,7.32294643 13.3252232,11.4428571 12.0575893,12.9375 C11.9372029,13.0815328 11.7591473,13.1647701 11.5714286,13.1647701 C11.3837098,13.1647701 11.2056543,13.0815328 11.0852679,12.9375 C9.81763393,11.4428571 6.50892857,7.32294643 6.50892857,5.0625 C6.50892857,2.26655845 8.77548703,0 11.5714286,0 C14.3673701,0 16.6339286,2.26655845 16.6339286,5.0625 Z" id="Path"></path>
            </g>
        </g>
    </g>
</svg>